<svg version="1.1" xmlns="http://www.w3.org/2000/svg" viewBox="0 0 996 622" width="996" height="622">
  <!-- svg-source:excalidraw -->
  
  <defs>
    <style>
      @font-face {
        font-family: "Virgil";
        src: url("https://excalidraw.com/Virgil.woff2");
      }
      @font-face {
        font-family: "Cascadia";
        src: url("https://excalidraw.com/Cascadia.woff2");
      }
    </style>
  </defs>
  <rect x="0" y="0" width="996" height="622" fill="#ffffff"></rect><g stroke-linecap="round" transform="translate(99 148) rotate(0 49 68.5)"><path d="M0.2 0.62 C35.97 1.88, 72.27 -0.44, 97.88 -0.44 M0.99 -0.5 C34.63 -0.89, 66.86 -0.43, 98.46 0.97 M96.41 0.96 C96.15 46.04, 97.83 93.96, 99.65 135.2 M98.23 -0.07 C98.64 35.04, 99.98 69.63, 97.16 136.56 M97.97 135.08 C72.88 135.49, 44.32 137.62, -1.57 135.11 M97.87 137.5 C67.15 136.64, 35.8 137.75, 0.18 137.47 M-1.95 137.83 C1.09 96.88, 0.61 60.45, 1.26 1.36 M0.08 136.64 C-1.19 95.72, 0.36 55.21, 0.51 0.01" stroke="#000000" stroke-width="1" fill="none"></path></g><g transform="translate(136 153) rotate(0 14 62.5)"><text x="0" y="18" font-family="Virgil, Segoe UI Emoji" font-size="20px" fill="#000000" text-anchor="start" style="white-space: pre;" direction="ltr">5</text><text x="0" y="43" font-family="Virgil, Segoe UI Emoji" font-size="20px" fill="#000000" text-anchor="start" style="white-space: pre;" direction="ltr">10</text><text x="0" y="68" font-family="Virgil, Segoe UI Emoji" font-size="20px" fill="#000000" text-anchor="start" style="white-space: pre;" direction="ltr">0</text><text x="0" y="93" font-family="Virgil, Segoe UI Emoji" font-size="20px" fill="#000000" text-anchor="start" style="white-space: pre;" direction="ltr">20</text><text x="0" y="118" font-family="Virgil, Segoe UI Emoji" font-size="20px" fill="#000000" text-anchor="start" style="white-space: pre;" direction="ltr">...</text></g><g transform="translate(523 183) rotate(0 35.5 12.5)"><text x="0" y="18" font-family="Virgil, Segoe UI Emoji" font-size="20px" fill="#000000" text-anchor="start" style="white-space: pre;" direction="ltr">addout</text></g><g transform="translate(502 156) rotate(0 12 22.5)"><text x="0" y="32" font-family="Virgil, Segoe UI Emoji" font-size="36px" fill="#000000" text-anchor="start" style="white-space: pre;" direction="ltr">+</text></g><g stroke-linecap="round"><g transform="translate(513 193) rotate(0 0.9690034244209755 8.648968494255087)"><path d="M-0.51 0.36 C-0.1 3.12, 1.9 13.61, 2.45 16.17 M1.42 -0.5 C1.62 2.52, 1.13 14.89, 1.22 17.8" stroke="#000000" stroke-width="1" fill="none"></path></g><g transform="translate(513 193) rotate(0 0.9690034244209755 8.648968494255087)"><path d="M-1.25 9.75 C-0.6 12.3, -0.08 14.67, 1.02 18.36 M-1.88 10.53 C-0.74 11.51, -0.63 13.11, 0.9 18.04" stroke="#000000" stroke-width="1" fill="none"></path></g><g transform="translate(513 193) rotate(0 0.9690034244209755 8.648968494255087)"><path d="M4.31 9.8 C3.31 12.31, 2.17 14.66, 1.02 18.36 M3.69 10.58 C3.68 11.59, 2.63 13.19, 0.9 18.04" stroke="#000000" stroke-width="1" fill="none"></path></g></g><g transform="translate(506 225) rotate(0 26.5 12.5)"><text x="0" y="18" font-family="Virgil, Segoe UI Emoji" font-size="20px" fill="#000000" text-anchor="start" style="white-space: pre;" direction="ltr">saldo</text></g><g transform="translate(543 125) rotate(0 30 12.5)"><text x="0" y="18" font-family="Virgil, Segoe UI Emoji" font-size="20px" fill="#000000" text-anchor="start" style="white-space: pre;" direction="ltr">moeda</text></g><g stroke-linecap="round"><g transform="translate(548.0088306851544 151) rotate(0 -9.244306494679734 10.196331945974862)"><path d="M-0.56 0.99 C-3.8 4.25, -15.8 15.56, -18.58 18.77 M1.34 0.46 C-2.17 3.94, -16.68 16.95, -19.83 19.94" stroke="#000000" stroke-width="1" fill="none"></path></g><g transform="translate(548.0088306851544 151) rotate(0 -9.244306494679734 10.196331945974862)"><path d="M-12.62 7.53 C-16.83 13.34, -17.42 15.58, -19.9 19.94 M-13.7 8.54 C-16.22 11.43, -17.94 15.74, -20.06 20.31" stroke="#000000" stroke-width="1" fill="none"></path></g><g transform="translate(548.0088306851544 151) rotate(0 -9.244306494679734 10.196331945974862)"><path d="M-6.49 14.22 C-12.91 17.53, -15.76 17.31, -19.9 19.94 M-7.56 15.22 C-11.9 16.09, -15.44 18.4, -20.06 20.31" stroke="#000000" stroke-width="1" fill="none"></path></g></g><g transform="translate(521 281) rotate(0 25 12.5)"><text x="0" y="18" font-family="Virgil, Segoe UI Emoji" font-size="20px" fill="#000000" text-anchor="start" style="white-space: pre;" direction="ltr">&gt;=40</text></g><g stroke-linecap="round"><g transform="translate(542 307) rotate(0 0.5893678082339306 14.105585441365832)"><path d="M0.68 -1.09 C0.72 3.91, -0.33 24.22, -0.61 29.3 M-0.43 0.95 C0.09 5.64, 1.48 22.96, 1.79 27.34" stroke="#000000" stroke-width="1" fill="none"></path></g><g transform="translate(542 307) rotate(0 0.5893678082339306 14.105585441365832)"><path d="M-5.52 13.4 C-2.55 15.95, -1.07 20.03, 2.44 28.35 M-3.86 14.74 C-3.2 17.23, -0.94 20.32, 1.48 26.69" stroke="#000000" stroke-width="1" fill="none"></path></g><g transform="translate(542 307) rotate(0 0.5893678082339306 14.105585441365832)"><path d="M4.37 12.64 C5.08 15.42, 4.3 19.67, 2.44 28.35 M6.03 13.98 C4.37 16.68, 4.31 19.95, 1.48 26.69" stroke="#000000" stroke-width="1" fill="none"></path></g></g><g transform="translate(534 332) rotate(0 5.5 12.5)"><text x="0" y="18" font-family="Virgil, Segoe UI Emoji" font-size="20px" fill="#c92a2a" text-anchor="start" style="white-space: pre;" direction="ltr">c</text></g><g stroke-linecap="round" transform="translate(480 219) rotate(0 37.5 20)"><path d="M1.98 -1.06 C27.5 -1.04, 54.59 0.72, 76.32 -1.43 M0.39 -0.05 C17.49 -0.08, 35.66 -0.1, 75.15 0.23 M75.43 -1.76 C76.73 11.61, 75.11 25.4, 76.39 40 M74.62 -0.72 C75.61 15.35, 75.02 32.13, 74.98 39.01 M73.34 38.6 C51.34 42.06, 27.34 39.5, 1.36 39.28 M75.91 39.9 C51.92 40.51, 27.26 40.06, -0.28 40.27 M-0.77 41.07 C-1.56 29.94, 1.45 21.34, -1.74 1.01 M-0.19 39.06 C0.92 30.03, 0.59 17.74, 0.96 0.95" stroke="#000000" stroke-width="1" fill="none"></path></g><g stroke-linecap="round"><g transform="translate(518 255) rotate(0 12.504743996988964 13.857478655148299)"><path d="M0.4 -0.11 C4.59 4.56, 21.9 24.44, 25.86 28.93 M-0.86 -1.22 C3.2 3.05, 20.79 22.5, 25.37 27.3" stroke="#000000" stroke-width="1" fill="none"></path></g><g transform="translate(518 255) rotate(0 12.504743996988964 13.857478655148299)"><path d="M8.5 20.08 C16.15 20.43, 18.85 25.6, 26.23 28.77 M8.93 17.87 C15.77 21.48, 21.14 25.73, 26.17 26.92" stroke="#000000" stroke-width="1" fill="none"></path></g><g transform="translate(518 255) rotate(0 12.504743996988964 13.857478655148299)"><path d="M17.92 11.35 C22.27 14.85, 21.62 23.13, 26.23 28.77 M18.34 9.14 C21.67 16.06, 23.52 23.58, 26.17 26.92" stroke="#000000" stroke-width="1" fill="none"></path></g></g><g stroke-linecap="round"><g transform="translate(517 254) rotate(0 -14.406574631901492 20.382766009289753)"><path d="M0.87 1.03 C-3.8 7.5, -23.63 32.33, -28.48 38.81 M-0.14 0.52 C-4.97 7.18, -24.86 34, -29.68 40.24" stroke="#000000" stroke-width="1" fill="none"></path></g><g transform="translate(517 254) rotate(0 -14.406574631901492 20.382766009289753)"><path d="M-20.95 16.49 C-24.81 22.98, -24.84 29.91, -28.72 38.5 M-21.75 17.23 C-25.04 23.53, -26.29 29.62, -29.06 41.1" stroke="#000000" stroke-width="1" fill="none"></path></g><g transform="translate(517 254) rotate(0 -14.406574631901492 20.382766009289753)"><path d="M-7.83 26.37 C-15.12 30.38, -18.57 34.73, -28.72 38.5 M-8.64 27.11 C-15.49 30.81, -20.23 34.26, -29.06 41.1" stroke="#000000" stroke-width="1" fill="none"></path></g></g><g stroke-linecap="round"><g transform="translate(486 296) rotate(0 -13.549442298758663 -77.87850324530137)"><path d="M1.03 0.88 C-3.53 -1.5, -20.27 -1.41, -27.29 -13.55 C-34.31 -25.68, -38.99 -54.62, -41.09 -71.92 C-43.19 -89.22, -42.48 -104.6, -39.88 -117.36 C-37.27 -130.11, -30.43 -142.29, -25.47 -148.45 C-20.52 -154.62, -17.11 -157.78, -10.15 -154.36 C-3.19 -150.94, 11.87 -132.25, 16.3 -127.92 M0.11 0.3 C-4.64 -2.51, -21.38 -3.62, -28.38 -15.43 C-35.39 -27.24, -39.52 -53.72, -41.91 -70.56 C-44.29 -87.39, -45.24 -103.57, -42.7 -116.44 C-40.16 -129.31, -31.79 -141.25, -26.67 -147.78 C-21.54 -154.3, -19.24 -158.77, -11.95 -155.59 C-4.65 -152.41, 12.5 -133.23, 17.11 -128.69" stroke="#000000" stroke-width="1" fill="none"></path></g><g transform="translate(486 296) rotate(0 -13.549442298758663 -77.87850324530137)"><path d="M1.94 -137.23 C6.4 -134.59, 10.9 -130.24, 16.56 -127.88 M0.82 -135.97 C6.73 -133.46, 12.9 -131.17, 17.61 -128.32" stroke="#000000" stroke-width="1" fill="none"></path></g><g transform="translate(486 296) rotate(0 -13.549442298758663 -77.87850324530137)"><path d="M11.01 -145.96 C12.75 -140.56, 14.46 -133.54, 16.56 -127.88 M9.9 -144.69 C12.73 -139.19, 15.77 -133.9, 17.61 -128.32" stroke="#000000" stroke-width="1" fill="none"></path></g></g><g stroke-linecap="round"><g transform="translate(478 250) rotate(0 9.76269837282598 -5.9766980172507544)"><path d="M-0.46 -0.41 C2.74 -2.11, 16.54 -8.03, 19.99 -9.97 M1.5 -1.67 C4.56 -3.71, 16.46 -9.95, 19.56 -11.55" stroke="#000000" stroke-width="1" fill="none"></path></g></g><g stroke-linecap="round"><g transform="translate(500 240) rotate(0 -14.143900301475071 -11.051452503483745)"><path d="M0.81 -0.18 C-3.73 -3.69, -23.33 -16.77, -28.1 -20.22 M-0.23 -1.32 C-4.85 -5.23, -24.39 -18.9, -29.1 -21.93" stroke="#000000" stroke-width="1" fill="none"></path></g></g><g transform="translate(588 88) rotate(0 25.5 12.5)"><text x="0" y="18" font-family="Virgil, Segoe UI Emoji" font-size="20px" fill="#000000" text-anchor="start" style="white-space: pre;" direction="ltr">4bits</text></g><g transform="translate(389 169) rotate(0 25 12.5)"><text x="0" y="18" font-family="Virgil, Segoe UI Emoji" font-size="20px" fill="#000000" text-anchor="start" style="white-space: pre;" direction="ltr">5bits</text></g><g stroke-linecap="round"><g transform="translate(573 83) rotate(0 1.3387689093055428 20.75420349575579)"><path d="M0.89 -1.1 C0.98 6.06, 0.42 35.25, 0.39 42.61 M-0.1 0.93 C0.4 7.78, 2.79 34.09, 2.78 40.81" stroke="#000000" stroke-width="1" fill="none"></path></g><g transform="translate(573 83) rotate(0 1.3387689093055428 20.75420349575579)"><path d="M-7.23 20.44 C-2.08 26.53, 1 32.41, 3.16 41.94 M-5.49 21.61 C-3.8 26.24, -1.12 30.6, 3.51 41.17" stroke="#000000" stroke-width="1" fill="none"></path></g><g transform="translate(573 83) rotate(0 1.3387689093055428 20.75420349575579)"><path d="M7.12 19.71 C8.12 26.12, 7.06 32.21, 3.16 41.94 M8.86 20.88 C6.91 25.68, 5.96 30.23, 3.51 41.17" stroke="#000000" stroke-width="1" fill="none"></path></g></g><g stroke-linecap="round"><g transform="translate(630 225) rotate(0 -29.475786607731095 -1.337134018167859)"><path d="M-0.73 -0.25 C-10.61 -0.79, -50.3 -2.09, -60.04 -2.43 M1.09 -1.43 C-8.37 -1.87, -47.69 -1.17, -57.88 -1.11" stroke="#000000" stroke-width="1" fill="none"></path></g><g transform="translate(630 225) rotate(0 -29.475786607731095 -1.337134018167859)"><path d="M-30.67 -13.26 C-37.5 -9.46, -43.81 -7.67, -57.9 -0.71 M-29.34 -11.37 C-37.92 -8.6, -47.83 -4.72, -57.1 -0.99" stroke="#000000" stroke-width="1" fill="none"></path></g><g transform="translate(630 225) rotate(0 -29.475786607731095 -1.337134018167859)"><path d="M-30.44 6.93 C-37.46 5.9, -43.82 2.85, -57.9 -0.71 M-29.11 8.82 C-37.93 5.4, -47.91 3.09, -57.1 -0.99" stroke="#000000" stroke-width="1" fill="none"></path></g></g><g transform="translate(632 199) rotate(0 57.5 25)"><text x="0" y="18" font-family="Virgil, Segoe UI Emoji" font-size="20px" fill="#c92a2a" text-anchor="start" style="white-space: pre;" direction="ltr">rst&amp;ACCrst</text><text x="0" y="43" font-family="Virgil, Segoe UI Emoji" font-size="20px" fill="#c92a2a" text-anchor="start" style="white-space: pre;" direction="ltr">enableACC</text></g><g stroke-linecap="round" transform="translate(712 297) rotate(0 31.5 18.5)"><path d="M20.2 1.42 C26.07 -0.05, 35.74 -0.46, 42.08 0.82 C48.42 2.09, 54.95 5.56, 58.26 9.07 C61.58 12.59, 62.94 18.05, 61.96 21.91 C60.98 25.77, 57.35 29.58, 52.37 32.24 C47.4 34.89, 38.76 37.61, 32.13 37.84 C25.49 38.07, 17.93 36.33, 12.59 33.62 C7.24 30.92, 1.34 25.56, 0.05 21.58 C-1.23 17.6, 1.04 13.33, 4.87 9.74 C8.7 6.16, 19.37 1.64, 23.06 0.06 C26.74 -1.51, 26.78 -0.11, 27 0.31 M43.26 2.22 C49.21 3.11, 56.38 5.32, 59.65 8.88 C62.92 12.43, 64.49 19.37, 62.88 23.53 C61.27 27.69, 55.58 31.68, 50 33.82 C44.41 35.95, 36.21 36.83, 29.38 36.33 C22.54 35.83, 14.01 33.48, 8.98 30.82 C3.95 28.17, -0.2 24.16, -0.8 20.42 C-1.39 16.68, 1.76 11.62, 5.42 8.4 C9.09 5.19, 14.73 2.49, 21.19 1.13 C27.65 -0.23, 40.33 0.25, 44.19 0.24 C48.05 0.23, 44.42 0.49, 44.36 1.07" stroke="#000000" stroke-width="1" fill="none"></path></g><g transform="translate(717 303) rotate(0 26.5 12.5)"><text x="26.5" y="18" font-family="Virgil, Segoe UI Emoji" font-size="20px" fill="#000000" text-anchor="middle" style="white-space: pre;" direction="ltr">init</text></g><g stroke-linecap="round" transform="translate(807 293) rotate(0 53.5 20.5)"><path d="M35.62 0.41 C44.08 -1.04, 56.69 -0.3, 65.94 0.76 C75.19 1.81, 84.52 3.98, 91.11 6.73 C97.69 9.48, 103.36 13.69, 105.45 17.26 C107.54 20.84, 107.27 24.87, 103.67 28.16 C100.07 31.46, 91.84 34.83, 83.87 37.04 C75.9 39.25, 65.35 41.34, 55.86 41.41 C46.37 41.49, 35.32 39.48, 26.93 37.49 C18.54 35.5, 10.03 32.52, 5.53 29.47 C1.03 26.43, -0.92 22.76, -0.05 19.24 C0.82 15.72, 4.43 11.45, 10.76 8.35 C17.09 5.24, 32.98 1.71, 37.93 0.6 C42.88 -0.52, 40.31 1.15, 40.45 1.66 M66.59 0.45 C75.54 1.37, 86.31 4.73, 92.97 7.6 C99.62 10.48, 104.69 14.36, 106.53 17.69 C108.38 21.01, 107.72 24.38, 104.03 27.55 C100.34 30.72, 92.44 34.32, 84.39 36.71 C76.34 39.1, 65.75 41.55, 55.73 41.91 C45.71 42.28, 32.75 41.19, 24.27 38.9 C15.78 36.62, 8.91 31.57, 4.8 28.19 C0.69 24.82, -1.71 22.01, -0.37 18.64 C0.97 15.27, 6.5 10.99, 12.85 7.98 C19.21 4.97, 28.51 1.94, 37.75 0.56 C46.99 -0.82, 63.5 -0.6, 68.3 -0.33 C73.11 -0.06, 66.97 1.71, 66.57 2.18" stroke="#000000" stroke-width="1" fill="none"></path></g><g transform="translate(812 301) rotate(0 48.5 12.5)"><text x="48.5" y="18" font-family="Virgil, Segoe UI Emoji" font-size="20px" fill="#000000" text-anchor="middle" style="white-space: pre;" direction="ltr">resquest</text></g><g stroke-linecap="round"><g transform="translate(779 310) rotate(0 14.142901940224647 -0.08432479056529019)"><path d="M-1.15 -0.56 C3.38 -0.81, 22.19 -1.8, 27.17 -1.94 M0.44 1.77 C5.36 1.76, 24.79 0.49, 29.44 -0.37" stroke="#000000" stroke-width="1" fill="none"></path></g><g transform="translate(779 310) rotate(0 14.142901940224647 -0.08432479056529019)"><path d="M16.23 4.92 C20.7 4.99, 25.09 2.76, 28.84 0.24 M17.14 6.48 C22.15 3.52, 25.86 0.71, 28.83 -0.42" stroke="#000000" stroke-width="1" fill="none"></path></g><g transform="translate(779 310) rotate(0 14.142901940224647 -0.08432479056529019)"><path d="M15.14 -4.62 C19.91 -1.7, 24.62 -1.1, 28.84 0.24 M16.06 -3.06 C21.4 -2.44, 25.52 -1.67, 28.83 -0.42" stroke="#000000" stroke-width="1" fill="none"></path></g></g><g stroke-linecap="round"><g transform="translate(856 337) rotate(0 -0.11314292388033209 17.005337080731977)"><path d="M0.61 -0.98 C0.61 5.03, -1.13 29.1, -1.16 34.99 M-0.52 1.12 C-0.07 6.9, 0.87 27.6, 0.94 33.39" stroke="#000000" stroke-width="1" fill="none"></path></g><g transform="translate(856 337) rotate(0 -0.11314292388033209 17.005337080731977)"><path d="M-6.75 15.95 C-2.82 21.36, -2.47 22.35, 2.22 33.59 M-5.29 18.14 C-3.79 22.33, -1 28.08, 1.3 33.63" stroke="#000000" stroke-width="1" fill="none"></path></g><g transform="translate(856 337) rotate(0 -0.11314292388033209 17.005337080731977)"><path d="M4.87 15.59 C6.44 21.14, 4.42 22.2, 2.22 33.59 M6.33 17.78 C3.89 21.99, 2.74 27.86, 1.3 33.63" stroke="#000000" stroke-width="1" fill="none"></path></g></g><g stroke-linecap="round" transform="translate(818 380) rotate(0 48.5 17.5)"><path d="M56.16 0.89 C65.2 1.08, 74.81 2.95, 81.46 5.36 C88.11 7.78, 94.39 12.06, 96.06 15.39 C97.73 18.73, 95.46 22.42, 91.47 25.39 C87.48 28.36, 80.31 31.5, 72.12 33.21 C63.92 34.91, 52.03 36.09, 42.32 35.6 C32.61 35.12, 20.7 32.88, 13.84 30.3 C6.98 27.72, 2.78 23.63, 1.17 20.12 C-0.44 16.62, 0.09 12.32, 4.18 9.25 C8.26 6.18, 16.14 3.04, 25.69 1.7 C35.24 0.35, 54.26 1.1, 61.48 1.19 C68.69 1.29, 69.11 1.92, 68.97 2.27 M64.82 0.92 C73.48 1.79, 83.42 5.06, 88.71 8.03 C94.01 11.01, 96.75 15.63, 96.6 18.77 C96.46 21.91, 93.58 24.42, 87.85 26.85 C82.12 29.27, 71.31 32.13, 62.24 33.31 C53.17 34.49, 42.35 34.73, 33.44 33.9 C24.52 33.08, 14.38 30.97, 8.74 28.39 C3.1 25.8, -0.69 22.14, -0.41 18.38 C-0.12 14.63, 4.66 8.67, 10.44 5.84 C16.23 3.01, 25.29 2.16, 34.3 1.4 C43.31 0.64, 59.41 1.16, 64.51 1.29 C69.62 1.43, 65.24 2.2, 64.94 2.19" stroke="#000000" stroke-width="1" fill="none"></path></g><g transform="translate(839 385) rotate(0 21 12.5)"><text x="0" y="18" font-family="Virgil, Segoe UI Emoji" font-size="20px" fill="#000000" text-anchor="start" style="white-space: pre;" direction="ltr">wait</text></g><g transform="translate(871 344) rotate(0 57.5 12.5)"><text x="0" y="18" font-family="Virgil, Segoe UI Emoji" font-size="20px" fill="#000000" text-anchor="start" style="white-space: pre;" direction="ltr">tem moeda?</text></g><g stroke-linecap="round"><g transform="translate(879 286) rotate(0 -17.477915151462298 -23.80458537318259)"><path d="M0.01 0.49 C-0.15 -6.57, 5.43 -35.84, -0.82 -43.04 C-7.08 -50.23, -34.09 -49.43, -37.54 -42.69 C-40.98 -35.95, -24.16 -9.29, -21.5 -2.59 M-1.45 -0.3 C-1.24 -7.09, 7.56 -34.7, 1.46 -41.52 C-4.65 -48.34, -34.32 -47.83, -38.06 -41.21 C-41.8 -34.59, -23.53 -8.27, -20.99 -1.79" stroke="#000000" stroke-width="1" fill="none"></path></g><g transform="translate(879 286) rotate(0 -17.477915151462298 -23.80458537318259)"><path d="M-36.67 -17.72 C-32.49 -11.04, -26.76 -6.44, -21.97 -1.08 M-36.56 -15.41 C-32.66 -12.02, -28.54 -8.48, -20.37 -2.54" stroke="#000000" stroke-width="1" fill="none"></path></g><g transform="translate(879 286) rotate(0 -17.477915151462298 -23.80458537318259)"><path d="M-23.46 -24.92 C-23.44 -15.99, -21.83 -9.14, -21.97 -1.08 M-23.34 -22.61 C-22.86 -17.23, -22.2 -11.8, -20.37 -2.54" stroke="#000000" stroke-width="1" fill="none"></path></g></g><g transform="translate(841 211) rotate(0 49.5 12.5)"><text x="0" y="18" font-family="Virgil, Segoe UI Emoji" font-size="20px" fill="#000000" text-anchor="start" style="white-space: pre;" direction="ltr">moeda==0</text></g><g stroke-linecap="round" transform="translate(827 441) rotate(0 45 19)"><path d="M38.65 1.11 C46.8 0.32, 57.82 1.33, 65.4 2.7 C72.99 4.06, 80.11 6.09, 84.15 9.3 C88.18 12.51, 90.94 18.09, 89.61 21.94 C88.29 25.79, 82.43 29.6, 76.2 32.4 C69.97 35.2, 60.81 38.17, 52.22 38.75 C43.63 39.32, 32.49 37.64, 24.65 35.85 C16.8 34.07, 9.15 31.39, 5.14 28.03 C1.14 24.66, -0.85 19.35, 0.61 15.68 C2.07 12.02, 5.57 8.62, 13.91 6.05 C22.25 3.47, 42.67 0.9, 50.64 0.26 C58.61 -0.39, 61.8 1.93, 61.73 2.17 M33.92 -0.52 C41.7 -1.84, 52.75 -1.02, 60.71 0.37 C68.68 1.76, 76.62 4.7, 81.7 7.8 C86.78 10.89, 91.55 15.14, 91.19 18.93 C90.83 22.73, 85.57 27.29, 79.55 30.56 C73.53 33.84, 63.51 37.68, 55.08 38.6 C46.64 39.53, 36.68 37.53, 28.93 36.1 C21.18 34.67, 13.21 33.28, 8.56 30.04 C3.91 26.81, 0.83 20.31, 1.01 16.68 C1.2 13.06, 4.08 10.92, 9.66 8.31 C15.24 5.69, 30.45 2.27, 34.5 1 C38.55 -0.28, 34.02 0.54, 33.97 0.63" stroke="#000000" stroke-width="1" fill="none"></path></g><g transform="translate(832 447.5) rotate(0 40 12.5)"><text x="40" y="18" font-family="Virgil, Segoe UI Emoji" font-size="20px" fill="#000000" text-anchor="middle" style="white-space: pre;" direction="ltr">add</text></g><g stroke-linecap="round"><g transform="translate(868 414) rotate(0 0.6630881959374619 11.925076412279168)"><path d="M1.1 0.59 C1.2 4.51, 1 18.91, 0.76 22.99 M0.21 -0.14 C0.21 3.93, 0.46 20.09, 0.2 23.99" stroke="#000000" stroke-width="1" fill="none"></path></g><g transform="translate(868 414) rotate(0 0.6630881959374619 11.925076412279168)"><path d="M-3.1 13.39 C-3.54 15.78, -0.27 20.5, 0.49 24.2 M-3.9 12.14 C-2.55 16.27, -2.17 19.09, 0.55 23.66" stroke="#000000" stroke-width="1" fill="none"></path></g><g transform="translate(868 414) rotate(0 0.6630881959374619 11.925076412279168)"><path d="M5.11 13.55 C2.11 15.96, 2.82 20.63, 0.49 24.2 M4.31 12.29 C3.39 16.33, 1.52 19.11, 0.55 23.66" stroke="#000000" stroke-width="1" fill="none"></path></g></g><g transform="translate(918 428) rotate(0 30 12.5)"><text x="0" y="18" font-family="Virgil, Segoe UI Emoji" font-size="20px" fill="#c92a2a" text-anchor="start" style="white-space: pre;" direction="ltr">enACC</text></g><g stroke-linecap="round"><g transform="translate(828 455) rotate(0 -11.790379838766512 0.9407658991070207)"><path d="M0.29 0.89 C-3.42 0.91, -19.38 0.47, -23.29 0.13 M-1.01 0.31 C-4.74 0.55, -20.11 1.85, -23.87 1.74" stroke="#000000" stroke-width="1" fill="none"></path></g><g transform="translate(828 455) rotate(0 -11.790379838766512 0.9407658991070207)"><path d="M-11.86 -2.07 C-15.02 -0.99, -18.66 -0.31, -22.68 2.08 M-12.31 -2.69 C-14.89 -1.95, -17.83 -0.99, -24.24 1.83" stroke="#000000" stroke-width="1" fill="none"></path></g><g transform="translate(828 455) rotate(0 -11.790379838766512 0.9407658991070207)"><path d="M-11.57 6.14 C-14.79 5.44, -18.5 4.35, -22.68 2.08 M-12.01 5.51 C-14.58 4.47, -17.58 3.64, -24.24 1.83" stroke="#000000" stroke-width="1" fill="none"></path></g></g><g stroke-linecap="round" transform="translate(724 440) rotate(0 39.5 18)"><path d="M41.91 -0.18 C49.77 -0.1, 60.2 2.54, 66.31 5.2 C72.42 7.85, 77.61 11.91, 78.56 15.73 C79.5 19.54, 76.7 24.82, 71.97 28.07 C67.24 31.31, 58.25 34.26, 50.18 35.17 C42.12 36.09, 31.37 35.01, 23.59 33.54 C15.8 32.08, 7.06 29.63, 3.46 26.37 C-0.14 23.11, -0.25 17.78, 2 13.96 C4.24 10.15, 8.98 5.58, 16.91 3.47 C24.85 1.36, 43.16 1.4, 49.58 1.28 C56.01 1.16, 55.81 2.47, 55.49 2.76 M24.43 0.62 C31.61 -1.19, 42.62 -0.37, 50.71 1.06 C58.79 2.49, 68.5 6.26, 72.93 9.2 C77.37 12.14, 78.33 14.88, 77.33 18.69 C76.33 22.5, 72.91 29.15, 66.93 32.05 C60.95 34.95, 49.85 35.98, 41.46 36.1 C33.08 36.23, 23.52 35.12, 16.62 32.8 C9.72 30.47, 2.07 26.14, 0.08 22.16 C-1.91 18.17, 0.78 12.08, 4.69 8.9 C8.6 5.72, 20.51 4.23, 23.54 3.07 C26.56 1.92, 22.52 1.77, 22.84 1.96" stroke="#000000" stroke-width="1" fill="none"></path></g><g transform="translate(729 445.5) rotate(0 34.5 12.5)"><text x="34.5" y="18" font-family="Virgil, Segoe UI Emoji" font-size="20px" fill="#000000" text-anchor="middle" style="white-space: pre;" direction="ltr">less40</text></g><g stroke-linecap="round" transform="translate(613 440) rotate(0 44 17.5)"><path d="M47.5 -0.8 C55.86 -0.62, 65.94 2.73, 72.37 5.08 C78.81 7.42, 84.01 10, 86.14 13.28 C88.26 16.56, 88.3 21.55, 85.13 24.73 C81.97 27.91, 74.55 30.71, 67.15 32.35 C59.75 33.99, 49.38 34.72, 40.72 34.55 C32.05 34.38, 21.89 33.33, 15.16 31.34 C8.43 29.35, 2.27 26.09, 0.35 22.63 C-1.58 19.16, 0.13 13.98, 3.61 10.53 C7.08 7.08, 12.87 3.66, 21.21 1.95 C29.54 0.24, 47.36 0.32, 53.6 0.26 C59.85 0.2, 58.84 1.14, 58.7 1.57 M52.42 1.73 C60.75 2.44, 72.25 4.23, 77.95 6.57 C83.65 8.91, 86.09 12.56, 86.63 15.78 C87.17 19, 85.25 22.97, 81.18 25.91 C77.11 28.85, 69.7 32.06, 62.19 33.41 C54.69 34.76, 44.7 34.72, 36.15 34.03 C27.61 33.34, 16.84 31.87, 10.9 29.28 C4.96 26.7, 1.46 21.81, 0.53 18.52 C-0.41 15.24, 1.23 12.13, 5.28 9.55 C9.33 6.97, 16.65 4.73, 24.82 3.05 C33 1.36, 49.88 0, 54.34 -0.55 C58.8 -1.11, 51.89 -0.56, 51.56 -0.26" stroke="#000000" stroke-width="1" fill="none"></path></g><g transform="translate(618 445) rotate(0 39 12.5)"><text x="39" y="18" font-family="Virgil, Segoe UI Emoji" font-size="20px" fill="#000000" text-anchor="middle" style="white-space: pre;" direction="ltr">done</text></g><g stroke-linecap="round"><g transform="translate(719 458) rotate(0 -7.4953314636368304 0.2329913869729694)"><path d="M-0.88 0.18 C-3.71 0.03, -13.5 -0.16, -15.85 -0.19 M0.86 -0.78 C-1.7 -0.8, -10.82 0.9, -13.58 1.24" stroke="#000000" stroke-width="1" fill="none"></path></g><g transform="translate(719 458) rotate(0 -7.4953314636368304 0.2329913869729694)"><path d="M-6.9 -2.89 C-9.71 -0.96, -12.21 0.96, -13.89 0.95 M-7.13 -2.19 C-9.23 -0.95, -10.57 -0.47, -13.87 1" stroke="#000000" stroke-width="1" fill="none"></path></g><g transform="translate(719 458) rotate(0 -7.4953314636368304 0.2329913869729694)"><path d="M-6.12 2.18 C-9.27 2.1, -12.08 2.01, -13.89 0.95 M-6.35 2.89 C-8.69 2.6, -10.27 1.56, -13.87 1" stroke="#000000" stroke-width="1" fill="none"></path></g></g><g transform="translate(705 424) rotate(0 5.5 12.5)"><text x="0" y="18" font-family="Virgil, Segoe UI Emoji" font-size="20px" fill="#c92a2a" text-anchor="start" style="white-space: pre;" direction="ltr">c</text></g><g stroke-linecap="round" transform="translate(620 368) rotate(0 47 17.5)"><path d="M32.24 0.43 C40.21 -0.92, 51.18 -0.56, 59.84 0.57 C68.5 1.7, 78.68 4.48, 84.21 7.2 C89.74 9.93, 92.77 13.57, 93.01 16.94 C93.26 20.3, 90.89 24.51, 85.69 27.41 C80.48 30.31, 70.46 33.3, 61.79 34.35 C53.12 35.4, 42.3 34.73, 33.67 33.71 C25.05 32.68, 15.73 30.82, 10.06 28.19 C4.4 25.56, -0.09 21.43, -0.31 17.9 C-0.54 14.38, 2.81 9.94, 8.73 7.05 C14.65 4.17, 30.24 1.7, 35.22 0.6 C40.2 -0.5, 38.29 0.1, 38.59 0.44 M31.98 0.52 C39.9 -1.01, 50.87 -0.37, 59.45 0.66 C68.02 1.68, 77.56 4.02, 83.44 6.65 C89.33 9.29, 94.28 12.93, 94.78 16.47 C95.28 20, 91.65 24.98, 86.44 27.87 C81.24 30.76, 72.28 32.74, 63.52 33.8 C54.77 34.86, 42.77 35.2, 33.92 34.23 C25.07 33.26, 15.85 30.83, 10.44 28.01 C5.03 25.19, 2.07 20.88, 1.46 17.3 C0.85 13.73, 1.68 9.05, 6.77 6.57 C11.85 4.09, 28.04 3.39, 31.97 2.45 C35.9 1.5, 30.35 0.68, 30.34 0.88" stroke="#000000" stroke-width="1" fill="none"></path></g><g transform="translate(625 373) rotate(0 42 12.5)"><text x="42" y="18" font-family="Virgil, Segoe UI Emoji" font-size="20px" fill="#000000" text-anchor="middle" style="white-space: pre;" direction="ltr">next</text></g><g stroke-linecap="round"><g transform="translate(726 385) rotate(0 43.595850020628404 -27.727569034323096)"><path d="M1.15 -0.47 C15.6 -9.77, 72.64 -45.9, 86.9 -54.99 M0.29 -1.76 C14.56 -10.93, 71.65 -44.8, 85.91 -53.44" stroke="#000000" stroke-width="1" fill="none"></path></g><g transform="translate(726 385) rotate(0 43.595850020628404 -27.727569034323096)"><path d="M66.22 -30.3 C72.79 -38.08, 78.74 -43.83, 85.54 -53.1 M66.66 -30.23 C73.71 -38.48, 81.07 -46.95, 85.21 -54.29" stroke="#000000" stroke-width="1" fill="none"></path></g><g transform="translate(726 385) rotate(0 43.595850020628404 -27.727569034323096)"><path d="M55.67 -47.9 C65.66 -50.26, 74.93 -50.5, 85.54 -53.1 M56.11 -47.83 C66.83 -49.96, 77.85 -52.32, 85.21 -54.29" stroke="#000000" stroke-width="1" fill="none"></path></g></g><g stroke-linecap="round"><g transform="translate(668 436) rotate(0 0.3121767837333209 -14.393158033862676)"><path d="M-0.75 0.53 C-0.83 -4.54, -1.01 -24.3, -0.82 -29.32 M1.05 -0.23 C1.39 -4.62, 1.67 -23.23, 1.46 -27.95" stroke="#000000" stroke-width="1" fill="none"></path></g><g transform="translate(668 436) rotate(0 0.3121767837333209 -14.393158033862676)"><path d="M7.19 -15.37 C4.66 -17.61, 2.99 -22.05, 0.43 -28.5 M6.21 -13.78 C4.65 -19.05, 3.5 -22.01, 0.85 -27.4" stroke="#000000" stroke-width="1" fill="none"></path></g><g transform="translate(668 436) rotate(0 0.3121767837333209 -14.393158033862676)"><path d="M-2.73 -15.27 C-2.59 -17.48, -1.61 -21.95, 0.43 -28.5 M-3.71 -13.69 C-2.36 -18.91, -0.61 -21.9, 0.85 -27.4" stroke="#000000" stroke-width="1" fill="none"></path></g></g><g transform="translate(632 341) rotate(0 22 12.5)"><text x="0" y="18" font-family="Virgil, Segoe UI Emoji" font-size="20px" fill="#c92a2a" text-anchor="start" style="white-space: pre;" direction="ltr">next</text></g><g transform="translate(623 486) rotate(0 32.5 12.5)"><text x="0" y="18" font-family="Virgil, Segoe UI Emoji" font-size="20px" fill="#c92a2a" text-anchor="start" style="white-space: pre;" direction="ltr">vendeu</text></g><g transform="translate(596 509) rotate(0 53.5 12.5)"><text x="0" y="18" font-family="Virgil, Segoe UI Emoji" font-size="20px" fill="#c92a2a" text-anchor="start" style="white-space: pre;" direction="ltr"> ACCrst=0</text></g><g transform="translate(128 92) rotate(0 39 12.5)"><text x="0" y="18" font-family="Virgil, Segoe UI Emoji" font-size="20px" fill="#000000" text-anchor="start" style="white-space: pre;" direction="ltr">address</text></g><g stroke-linecap="round" transform="translate(102 74) rotate(0 55.5 25.5)"><path d="M0.65 1.63 C31.16 -0.15, 60.72 -0.93, 110.12 -0.53 M-0.55 0.7 C29.02 -0.8, 57.79 -1.97, 111.04 0.11 M112.22 0.61 C109.56 12.44, 112.4 25.82, 109.72 49.84 M111.24 0.27 C111.45 16.03, 110.39 31.32, 111.09 51.4 M112.14 49.18 C78.46 50.84, 48.37 52.56, -0.84 52.52 M111.13 50.14 C79.77 51.72, 50.79 49.8, 0.07 50.7 M-1.51 52.81 C0.83 41.53, 0.28 27.79, -1.96 0.54 M0.9 50.83 C0.34 33.8, -0.05 18.39, 0.77 -0.75" stroke="#000000" stroke-width="1" fill="none"></path></g><g stroke-linecap="round"><g transform="translate(108 115) rotate(0 6.191816743835801 -6.013958301767701)"><path d="M-0.77 1.14 C1.39 -0.88, 11.01 -10.92, 13.16 -13.17 M1.02 0.69 C3.12 -1.14, 11.09 -10.25, 12.81 -12.24" stroke="#000000" stroke-width="1" fill="none"></path></g></g><g stroke-linecap="round"><g transform="translate(115 102) rotate(0 -5.3205960188061 -5.390423789247876)"><path d="M0.98 0.39 C-1.14 -1.59, -9.67 -9.49, -11.62 -11.17 M0.03 -0.44 C-1.78 -2.39, -7.35 -8.96, -9.23 -10.25" stroke="#000000" stroke-width="1" fill="none"></path></g></g><g stroke-linecap="round"><g transform="translate(99 107) rotate(0 -18.191412109400403 28.367988416981945)"><path d="M1.12 0.29 C-3.87 0.37, -23.42 -8.82, -29.6 0.61 C-35.79 10.05, -39.88 47.07, -35.98 56.9 C-32.08 66.73, -11.18 59.13, -6.23 59.58 M0.25 -0.6 C-4.38 -0.88, -21.56 -10.46, -27.21 -1.19 C-32.85 8.08, -37.21 44.75, -33.6 55.03 C-30 65.3, -9.95 59.67, -5.57 60.46" stroke="#000000" stroke-width="1" fill="none"></path></g><g transform="translate(99 107) rotate(0 -18.191412109400403 28.367988416981945)"><path d="M-18.22 65.34 C-13.54 62.92, -8.89 63.13, -6.07 61.33 M-18.61 66.04 C-14.75 64.54, -11.58 62.82, -5.76 61.05" stroke="#000000" stroke-width="1" fill="none"></path></g><g transform="translate(99 107) rotate(0 -18.191412109400403 28.367988416981945)"><path d="M-18.78 55.69 C-13.9 56.46, -9.07 59.88, -6.07 61.33 M-19.16 56.38 C-15.2 57.44, -11.89 58.29, -5.76 61.05" stroke="#000000" stroke-width="1" fill="none"></path></g></g><g transform="translate(120.5 326.5) rotate(0 35.5 12.5)"><text x="0" y="18" font-family="Virgil, Segoe UI Emoji" font-size="20px" fill="#000000" text-anchor="start" style="white-space: pre;" direction="ltr">moedas</text></g><g stroke-linecap="round" transform="translate(94.5 308.5) rotate(0 55.5 25.5)"><path d="M-1.47 -1.66 C23.29 1.4, 49.09 -0.1, 110.19 0.24 M-0.9 0.91 C35.17 -1.44, 71.65 -0.6, 111.64 -0.45 M110.48 -1.07 C111.65 12.44, 111.24 30.2, 110.34 52.12 M111.73 -0.6 C110.1 10.02, 109.83 20.97, 111.91 50.91 M109.35 52.52 C80.59 53.01, 49.61 50.27, 0.34 49.77 M111.66 50.86 C75.05 51.37, 37.3 50.74, 0.94 50.65 M-1.17 52.18 C1.07 33.47, -0.65 14.68, -1.48 0.99 M-0.21 50.29 C0.28 38.98, -0.05 27.02, 0.33 0.13" stroke="#000000" stroke-width="1" fill="none"></path></g><g stroke-linecap="round"><g transform="translate(100.5 349.5) rotate(0 6.063904870133854 -5.641560979820781)"><path d="M-0.88 -0.99 C1.1 -2.89, 8.86 -9.07, 10.88 -10.86 M0.86 1.1 C3.29 -1.15, 10.86 -10.48, 13.01 -12.38" stroke="#000000" stroke-width="1" fill="none"></path></g></g><g stroke-linecap="round"><g transform="translate(107.5 336.5) rotate(0 -4.7610637292452225 -4.912868037847801)"><path d="M-0.99 -1.12 C-2.73 -2.76, -8.23 -9.17, -9.86 -10.74 M0.69 0.91 C-1.15 -0.52, -8.19 -7.86, -10.21 -9.58" stroke="#000000" stroke-width="1" fill="none"></path></g></g><g transform="translate(232 89) rotate(0 39 25)"><text x="0" y="18" font-family="Virgil, Segoe UI Emoji" font-size="20px" fill="#000000" text-anchor="start" style="white-space: pre;" direction="ltr">enable</text><text x="0" y="43" font-family="Virgil, Segoe UI Emoji" font-size="20px" fill="#000000" text-anchor="start" style="white-space: pre;" direction="ltr">Address</text></g><g transform="translate(220 316) rotate(0 37 25)"><text x="0" y="18" font-family="Virgil, Segoe UI Emoji" font-size="20px" fill="#000000" text-anchor="start" style="white-space: pre;" direction="ltr">enable</text><text x="0" y="43" font-family="Virgil, Segoe UI Emoji" font-size="20px" fill="#000000" text-anchor="start" style="white-space: pre;" direction="ltr">Moedas</text></g><g stroke-linecap="round"><g transform="translate(80 105) rotate(0 18.756270137651626 -43.4998949986837)"><path d="M-0.17 -0.09 C-4.76 -4.09, -25.78 -11.55, -27.85 -23.41 C-29.93 -35.26, -24.14 -61.03, -12.61 -71.2 C-1.08 -81.37, 28.19 -86.16, 41.31 -84.44 C54.44 -82.72, 62.18 -64.67, 66.14 -60.9 M-1.71 -1.18 C-6.34 -5.07, -26.2 -10.62, -28.2 -22.08 C-30.2 -33.55, -25.26 -59.22, -13.69 -69.99 C-2.13 -80.76, 28.12 -88.29, 41.2 -86.7 C54.27 -85.11, 60.61 -64.97, 64.75 -60.45" stroke="#000000" stroke-width="1" fill="none"></path></g><g transform="translate(80 105) rotate(0 18.756270137651626 -43.4998949986837)"><path d="M51.42 -69.48 C54.67 -69.01, 58.61 -66.18, 65.54 -60.25 M52.16 -71.49 C55.17 -67.44, 59.47 -64.22, 64.35 -60.22" stroke="#000000" stroke-width="1" fill="none"></path></g><g transform="translate(80 105) rotate(0 18.756270137651626 -43.4998949986837)"><path d="M61.36 -75.48 C61.9 -73.36, 63.09 -68.88, 65.54 -60.25 M62.09 -77.49 C61.99 -71.65, 63.23 -66.58, 64.35 -60.22" stroke="#000000" stroke-width="1" fill="none"></path></g></g><g transform="translate(140 31) rotate(0 16.5 22.5)"><text x="0" y="32" font-family="Virgil, Segoe UI Emoji" font-size="36px" fill="#000000" text-anchor="start" style="white-space: pre;" direction="ltr">+1</text></g><g stroke-linecap="round" transform="translate(89.5 397.5) rotate(0 31.5 18.5)"><path d="M33.51 -0.21 C40 0, 48.77 2.62, 53.8 5.6 C58.82 8.58, 62.97 13.91, 63.65 17.68 C64.32 21.44, 61.81 25.05, 57.84 28.18 C53.86 31.31, 46.27 35.38, 39.81 36.43 C33.35 37.48, 25.22 36.11, 19.07 34.48 C12.93 32.85, 6.04 30.04, 2.93 26.66 C-0.17 23.27, -1.17 18.09, 0.42 14.19 C2.01 10.28, 6.31 5.39, 12.47 3.23 C18.63 1.06, 32.86 1.57, 37.36 1.2 C41.85 0.83, 39.45 0.85, 39.44 1 M46.54 1.95 C52.82 3.21, 58.47 6.14, 60.92 9.76 C63.37 13.38, 63.07 19.43, 61.26 23.65 C59.46 27.88, 55.38 32.65, 50.09 35.1 C44.8 37.54, 36.65 39.09, 29.54 38.33 C22.43 37.57, 12.35 33.45, 7.42 30.53 C2.5 27.61, 0.14 24.41, 0.01 20.81 C-0.13 17.22, 2.6 12.39, 6.64 8.95 C10.67 5.52, 17.76 1.61, 24.19 0.22 C30.63 -1.17, 41.76 0.16, 45.25 0.6 C48.74 1.04, 45.22 2.53, 45.14 2.87" stroke="#000000" stroke-width="1" fill="none"></path></g><g transform="translate(94.5 403.5) rotate(0 26.5 12.5)"><text x="26.5" y="18" font-family="Virgil, Segoe UI Emoji" font-size="20px" fill="#000000" text-anchor="middle" style="white-space: pre;" direction="ltr">init</text></g><g stroke-linecap="round"><g transform="translate(155 415) rotate(0 11.500964078679687 -0.1553232953301915)"><path d="M-0.66 -0.39 C3.44 -0.55, 19.71 -0.29, 23.66 -0.14 M1.2 -1.64 C5.28 -1.68, 19.54 1.31, 23.06 1.33" stroke="#000000" stroke-width="1" fill="none"></path></g><g transform="translate(155 415) rotate(0 11.500964078679687 -0.1553232953301915)"><path d="M11.49 4.59 C14.19 3.48, 17.29 3.17, 23.06 1.7 M11.99 3.8 C15.24 3.63, 17.63 2.56, 23.11 1.02" stroke="#000000" stroke-width="1" fill="none"></path></g><g transform="translate(155 415) rotate(0 11.500964078679687 -0.1553232953301915)"><path d="M12.42 -3.22 C14.97 -2.6, 17.86 -1.18, 23.06 1.7 M12.92 -4.01 C16.01 -2.2, 18.16 -1.28, 23.11 1.02" stroke="#000000" stroke-width="1" fill="none"></path></g></g><g stroke-linecap="round" transform="translate(180 401) rotate(0 38.5 20)"><path d="M43.35 0.3 C51.22 0.36, 60.74 3.21, 66.24 6.32 C71.75 9.42, 75.86 14.69, 76.4 18.93 C76.94 23.18, 74.22 28.24, 69.47 31.79 C64.72 35.34, 55.84 39.34, 47.9 40.22 C39.96 41.09, 29.16 39.05, 21.83 37.02 C14.51 34.99, 7.2 31.76, 3.95 28.05 C0.7 24.34, -0.02 18.78, 2.33 14.76 C4.67 10.75, 10.25 6.39, 18.03 3.98 C25.8 1.57, 42.99 0.52, 48.99 0.32 C55 0.12, 54.18 2.29, 54.05 2.77 M47.13 1.91 C55.1 2.42, 64.15 4.88, 68.93 7.82 C73.72 10.75, 76.19 15.26, 75.85 19.5 C75.52 23.75, 72.37 30, 66.94 33.27 C61.51 36.54, 51.49 38.6, 43.28 39.12 C35.06 39.64, 24.57 38.66, 17.65 36.41 C10.74 34.16, 4.14 29.76, 1.79 25.62 C-0.56 21.49, 0.22 15.29, 3.57 11.62 C6.93 7.95, 14.7 5.37, 21.91 3.62 C29.12 1.88, 42.92 1.38, 46.86 1.13 C50.79 0.89, 45.75 1.99, 45.52 2.14" stroke="#000000" stroke-width="1" fill="none"></path></g><g transform="translate(185 408.5) rotate(0 33.5 12.5)"><text x="33.5" y="18" font-family="Virgil, Segoe UI Emoji" font-size="20px" fill="#000000" text-anchor="middle" style="white-space: pre;" direction="ltr">send</text></g><g transform="translate(147 380) rotate(0 23.5 12.5)"><text x="0" y="18" font-family="Virgil, Segoe UI Emoji" font-size="20px" fill="#c92a2a" text-anchor="start" style="white-space: pre;" direction="ltr">Next</text></g><g stroke-linecap="round"><g transform="translate(133 436) rotate(0 -18.606991041999947 19.58914190058431)"><path d="M-0.09 0.27 C0.16 3.92, 6.92 15.17, 0.59 21.88 C-5.73 28.58, -32.43 44.15, -38.04 40.52 C-43.65 36.89, -34.15 6.88, -33.08 0.1 M-1.6 -0.64 C-1.38 3.21, 6.16 16.84, -0.05 23.35 C-6.25 29.86, -33.27 42.65, -38.83 38.45 C-44.39 34.24, -34.39 4.42, -33.4 -1.88" stroke="#000000" stroke-width="1" fill="none"></path></g><g transform="translate(133 436) rotate(0 -18.606991041999947 19.58914190058431)"><path d="M-30.77 19.71 C-31.92 14.02, -31.34 7.65, -31.57 -1.26 M-31.85 18.16 C-32.63 10.88, -33.83 3.77, -32.89 -2.33" stroke="#000000" stroke-width="1" fill="none"></path></g><g transform="translate(133 436) rotate(0 -18.606991041999947 19.58914190058431)"><path d="M-44.53 16.29 C-42.58 11.38, -38.9 5.78, -31.57 -1.26 M-45.6 14.74 C-41.28 8.59, -37.39 2.75, -32.89 -2.33" stroke="#000000" stroke-width="1" fill="none"></path></g></g><g stroke-linecap="round" transform="translate(298 403) rotate(0 46 30)"><path d="M33.41 0.74 C41.35 -1.06, 52.69 -0.25, 61.15 1.83 C69.62 3.91, 79.07 8.31, 84.21 13.23 C89.34 18.16, 92.12 25.55, 91.95 31.37 C91.78 37.2, 88.81 43.53, 83.2 48.19 C77.59 52.85, 66.9 57.82, 58.3 59.35 C49.71 60.88, 40.16 59.46, 31.64 57.36 C23.11 55.27, 12.4 51.56, 7.14 46.76 C1.87 41.95, -0.18 34.3, 0.04 28.55 C0.26 22.8, 1.72 16.88, 8.48 12.24 C15.25 7.59, 33.78 2.46, 40.61 0.69 C47.43 -1.08, 49.25 1.22, 49.43 1.6 M43.66 -1.32 C52.16 -1.77, 62.95 2.38, 70.21 5.52 C77.47 8.65, 83.81 12.36, 87.21 17.52 C90.62 22.67, 92.56 30.33, 90.62 36.44 C88.68 42.55, 82.66 50.03, 75.58 54.17 C68.5 58.31, 57.26 60.86, 48.15 61.27 C39.04 61.68, 28.51 59.79, 20.92 56.64 C13.33 53.49, 5.95 48.24, 2.63 42.38 C-0.7 36.52, -1.33 27.28, 0.95 21.49 C3.23 15.7, 9.39 11.25, 16.3 7.64 C23.21 4.04, 37.89 1.11, 42.41 -0.14 C46.93 -1.4, 43.03 -0.35, 43.42 0.11" stroke="#000000" stroke-width="1" fill="none"></path></g><g transform="translate(303 408) rotate(0 41 25)"><text x="41" y="18" font-family="Virgil, Segoe UI Emoji" font-size="20px" fill="#000000" text-anchor="middle" style="white-space: pre;" direction="ltr">add</text><text x="41" y="43" font-family="Virgil, Segoe UI Emoji" font-size="20px" fill="#000000" text-anchor="middle" style="white-space: pre;" direction="ltr">address</text></g><g transform="translate(260.5 381.5) rotate(0 32 12.5)"><text x="0" y="18" font-family="Virgil, Segoe UI Emoji" font-size="20px" fill="#c92a2a" text-anchor="start" style="white-space: pre;" direction="ltr">~Next</text></g><g stroke-linecap="round"><g transform="translate(254 421) rotate(0 19.648049530759465 0.3292320695705939)"><path d="M-0.26 -0.05 C6.53 0.12, 32.68 0.42, 39.56 0.85 M1.8 -1.13 C8.49 -0.83, 31.89 1.52, 38.38 1.79" stroke="#000000" stroke-width="1" fill="none"></path></g><g transform="translate(254 421) rotate(0 19.648049530759465 0.3292320695705939)"><path d="M19.02 6.51 C21.13 7.81, 27.88 4.97, 39.63 1.66 M19.01 8.18 C24.32 6.64, 28.08 3.52, 38.48 1.75" stroke="#000000" stroke-width="1" fill="none"></path></g><g transform="translate(254 421) rotate(0 19.648049530759465 0.3292320695705939)"><path d="M20.02 -7.15 C21.9 -3.07, 28.45 -3.14, 39.63 1.66 M20.01 -5.49 C25.17 -3.47, 28.68 -3.05, 38.48 1.75" stroke="#000000" stroke-width="1" fill="none"></path></g></g><g stroke-linecap="round"><g transform="translate(342 465) rotate(0 0.4652913544326793 12.561339629907195)"><path d="M-0.7 -0.08 C-0.46 4.17, 1.34 20.7, 1.63 24.83 M1.13 -1.16 C1.17 3.33, 0.1 21.77, 0.49 26.28" stroke="#000000" stroke-width="1" fill="none"></path></g><g transform="translate(342 465) rotate(0 0.4652913544326793 12.561339629907195)"><path d="M-3.92 14.13 C-2.71 17.28, -1.46 22.71, 1.44 25.83 M-3.34 14.62 C-3.21 18.54, -1.32 21.16, 0.59 26.53" stroke="#000000" stroke-width="1" fill="none"></path></g><g transform="translate(342 465) rotate(0 0.4652913544326793 12.561339629907195)"><path d="M4.65 14.1 C3.16 17.21, 1.71 22.64, 1.44 25.83 M5.23 14.58 C2.73 18.5, 1.98 21.13, 0.59 26.53" stroke="#000000" stroke-width="1" fill="none"></path></g></g><g stroke-linecap="round" transform="translate(297 504) rotate(0 54.5 21)"><path d="M52.03 -0.56 C61.21 -1.12, 72.11 1.34, 80.56 3.32 C89 5.3, 97.91 8.15, 102.7 11.32 C107.49 14.49, 110.09 18.68, 109.28 22.33 C108.47 25.98, 103.91 30.29, 97.86 33.21 C91.8 36.13, 82.34 38.52, 72.95 39.84 C63.56 41.17, 51 41.84, 41.5 41.15 C32 40.47, 22.58 38.46, 15.96 35.73 C9.34 32.99, 3.72 28.48, 1.78 24.77 C-0.16 21.06, 0.95 16.79, 4.33 13.44 C7.71 10.1, 12.87 6.93, 22.05 4.7 C31.22 2.46, 52.08 0.57, 59.38 0.02 C66.67 -0.53, 65.92 1.16, 65.82 1.39 M65.71 -0.79 C74.87 -0.22, 83.37 2.92, 90.49 5.53 C97.61 8.14, 105.7 11.03, 108.42 14.86 C111.15 18.7, 110.21 24.78, 106.84 28.55 C103.47 32.32, 96.11 35.46, 88.19 37.5 C80.26 39.53, 69.09 40.61, 59.29 40.76 C49.5 40.91, 37.85 39.97, 29.44 38.4 C21.03 36.83, 13.84 34.56, 8.86 31.33 C3.88 28.11, -0.53 22.58, -0.43 19.03 C-0.34 15.48, 3.81 13.09, 9.43 10.05 C15.05 7.02, 24.14 2.35, 33.29 0.82 C42.43 -0.72, 58.92 0.81, 64.3 0.84 C69.68 0.87, 65.84 0.83, 65.58 0.99" stroke="#000000" stroke-width="1" fill="none"></path></g><g transform="translate(320 521) rotate(0 27 12.5)"><text x="0" y="18" font-family="Virgil, Segoe UI Emoji" font-size="20px" fill="#000000" text-anchor="start" style="white-space: pre;" direction="ltr">verify</text></g><g stroke-linecap="round"><g transform="translate(410 528) rotate(0 10.075321826469121 -0.3508498351089884)"><path d="M-0.9 -0.45 C2.24 -0.16, 15.47 1.02, 18.91 1.03 M0.83 -1.73 C4.31 -1.69, 18.05 -0.96, 21.05 -0.55" stroke="#000000" stroke-width="1" fill="none"></path></g><g transform="translate(410 528) rotate(0 10.075321826469121 -0.3508498351089884)"><path d="M11.02 1.15 C15.25 1.1, 17.04 -0.26, 20.8 0.16 M11.56 2.55 C14.09 1.16, 16.41 0.38, 20.88 -0.75" stroke="#000000" stroke-width="1" fill="none"></path></g><g transform="translate(410 528) rotate(0 10.075321826469121 -0.3508498351089884)"><path d="M11.6 -5.66 C15.61 -3.62, 17.23 -2.88, 20.8 0.16 M12.14 -4.26 C14.48 -3.82, 16.65 -2.76, 20.88 -0.75" stroke="#000000" stroke-width="1" fill="none"></path></g></g><g stroke-linecap="round" transform="translate(438 505) rotate(0 50 21)"><path d="M50.37 -0.39 C59.55 -0.91, 71.35 1.09, 79.17 3.52 C86.99 5.95, 94.36 10.1, 97.28 14.2 C100.2 18.29, 99.77 24.29, 96.7 28.11 C93.64 31.92, 86.61 34.75, 78.88 37.1 C71.15 39.44, 60.05 42.04, 50.31 42.19 C40.57 42.35, 28.33 40.51, 20.44 38.04 C12.56 35.57, 6.02 31.16, 2.99 27.37 C-0.04 23.59, -0.59 19.26, 2.25 15.35 C5.09 11.43, 11.44 6.31, 20.04 3.89 C28.64 1.46, 47.69 1.38, 53.86 0.78 C60.02 0.19, 57.19 -0.03, 57.04 0.33 M70.8 2.01 C79.84 3.19, 90.76 7.27, 95.31 10.83 C99.85 14.4, 99.53 19.18, 98.06 23.42 C96.6 27.67, 92.81 33.11, 86.52 36.29 C80.24 39.47, 70.22 41.84, 60.36 42.49 C50.51 43.14, 36.3 42.28, 27.4 40.2 C18.5 38.13, 11.32 33.63, 6.98 30.04 C2.64 26.45, 0.06 22.35, 1.37 18.66 C2.69 14.97, 8.29 11.06, 14.87 7.9 C21.45 4.74, 31.48 0.55, 40.84 -0.27 C50.21 -1.09, 66.07 2.32, 71.03 3 C76 3.68, 70.64 3.77, 70.62 3.82" stroke="#000000" stroke-width="1" fill="none"></path></g><g transform="translate(443 513.5) rotate(0 45 12.5)"><text x="45" y="18" font-family="Virgil, Segoe UI Emoji" font-size="20px" fill="#000000" text-anchor="middle" style="white-space: pre;" direction="ltr">done</text></g><g transform="translate(391 488) rotate(0 32.5 12.5)"><text x="0" y="18" font-family="Virgil, Segoe UI Emoji" font-size="20px" fill="#c92a2a" text-anchor="start" style="white-space: pre;" direction="ltr">vendeu</text></g><g stroke-linecap="round"><g transform="translate(301 519) rotate(0 -31.833287147106603 -39.43387798282316)"><path d="M0.7 -0.24 C-10.02 -13.08, -53 -63.88, -63.62 -77.02 M-0.39 -1.41 C-11.3 -14.57, -53.88 -65.81, -64.37 -78.63" stroke="#000000" stroke-width="1" fill="none"></path></g><g transform="translate(301 519) rotate(0 -31.833287147106603 -39.43387798282316)"><path d="M-38.91 -62.79 C-46.23 -67.18, -59.03 -75.67, -63.74 -78.03 M-38.52 -63.94 C-44.85 -66.48, -49.91 -70.07, -64.03 -79.06" stroke="#000000" stroke-width="1" fill="none"></path></g><g transform="translate(301 519) rotate(0 -31.833287147106603 -39.43387798282316)"><path d="M-54.74 -49.72 C-56.33 -58.93, -63.41 -72.15, -63.74 -78.03 M-54.34 -50.88 C-56.81 -56.38, -58.09 -63.09, -64.03 -79.06" stroke="#000000" stroke-width="1" fill="none"></path></g></g><g transform="translate(208 463) rotate(0 48 25)"><text x="0" y="18" font-family="Virgil, Segoe UI Emoji" font-size="20px" fill="#c92a2a" text-anchor="start" style="white-space: pre;" direction="ltr">~vendeu&amp;</text><text x="0" y="43" font-family="Virgil, Segoe UI Emoji" font-size="20px" fill="#c92a2a" text-anchor="start" style="white-space: pre;" direction="ltr">Next</text></g><g stroke-linecap="round" transform="translate(311 576) rotate(0 46.5 18)"><path d="M31.34 0.45 C39.2 -0.79, 49.81 -0.37, 58.34 0.6 C66.87 1.58, 76.75 3.36, 82.51 6.3 C88.27 9.25, 92.51 14.55, 92.89 18.25 C93.27 21.96, 89.91 25.62, 84.77 28.54 C79.64 31.46, 70.52 34.65, 62.05 35.76 C53.58 36.86, 42.52 36.25, 33.96 35.17 C25.4 34.09, 16.49 32.06, 10.69 29.29 C4.89 26.52, -0.46 22.11, -0.87 18.56 C-1.27 15.01, 2.24 11.15, 8.27 8.01 C14.31 4.87, 29.66 1.08, 35.34 -0.3 C41.03 -1.68, 41.96 -0.63, 42.36 -0.25 M49.52 -1.16 C58.32 -1.12, 69.87 1.97, 76.82 4.54 C83.77 7.11, 88.95 10.96, 91.21 14.24 C93.47 17.53, 93.91 21.21, 90.4 24.25 C86.9 27.3, 78.34 30.37, 70.19 32.51 C62.04 34.65, 50.44 37.04, 41.51 37.09 C32.57 37.13, 23.29 35.07, 16.58 32.78 C9.87 30.48, 3.34 27.09, 1.23 23.31 C-0.87 19.54, 0.65 13.54, 3.94 10.12 C7.23 6.7, 13.35 4.34, 20.99 2.78 C28.62 1.22, 45.05 1.21, 49.76 0.77 C54.46 0.33, 49 -0.09, 49.22 0.16" stroke="#000000" stroke-width="1" fill="none"></path></g><g transform="translate(316 581.5) rotate(0 41.5 12.5)"><text x="41.5" y="18" font-family="Virgil, Segoe UI Emoji" font-size="20px" fill="#000000" text-anchor="middle" style="white-space: pre;" direction="ltr">next</text></g><g stroke-linecap="round"><g transform="translate(467 551) rotate(0 -35.739286574544394 16.56491168918086)"><path d="M0.31 0.8 C-11.47 6.14, -58.72 26.58, -70.55 31.62 M-0.98 0.17 C-12.99 5.72, -59.98 27.67, -71.79 32.96" stroke="#000000" stroke-width="1" fill="none"></path></g><g transform="translate(467 551) rotate(0 -35.739286574544394 16.56491168918086)"><path d="M-49.11 10.96 C-57.82 17.36, -65.45 26.64, -71.27 34.46 M-51.07 10.98 C-56.55 17.87, -62.57 23.86, -71.96 33.71" stroke="#000000" stroke-width="1" fill="none"></path></g><g transform="translate(467 551) rotate(0 -35.739286574544394 16.56491168918086)"><path d="M-40.55 29.61 C-51.88 30.21, -62.18 33.65, -71.27 34.46 M-42.51 29.64 C-50.7 30.96, -59.28 31.38, -71.96 33.71" stroke="#000000" stroke-width="1" fill="none"></path></g></g><g transform="translate(445 574) rotate(0 41 12.5)"><text x="0" y="18" font-family="Virgil, Segoe UI Emoji" font-size="20px" fill="#c92a2a" text-anchor="start" style="white-space: pre;" direction="ltr">~vendeu</text></g><g stroke-linecap="round"><g transform="translate(312 591) rotate(0 -82.41317124415241 -74.4705793295056)"><path d="M-0.96 0.61 C-22.71 -2.04, -102.35 -3.42, -129.67 -16.37 C-156.99 -29.31, -165.28 -54.86, -164.87 -77.06 C-164.46 -99.25, -133.2 -137.24, -127.19 -149.55 M0.74 -0.12 C-20.7 -2.54, -99.59 -2.33, -127.3 -15.02 C-155.02 -27.72, -165.7 -54.1, -165.57 -76.29 C-165.44 -98.49, -132.94 -135.76, -126.52 -148.21" stroke="#000000" stroke-width="1" fill="none"></path></g><g transform="translate(312 591) rotate(0 -82.41317124415241 -74.4705793295056)"><path d="M-132.63 -120.18 C-131.49 -129.64, -129.98 -139.36, -125.77 -149.55 M-133.88 -118.49 C-131.31 -124.62, -129.54 -131.14, -126.86 -148.83" stroke="#000000" stroke-width="1" fill="none"></path></g><g transform="translate(312 591) rotate(0 -82.41317124415241 -74.4705793295056)"><path d="M-149.7 -131.58 C-142.25 -136.66, -134.39 -142.14, -125.77 -149.55 M-150.94 -129.89 C-144.55 -133.34, -138.94 -137.3, -126.86 -148.83" stroke="#000000" stroke-width="1" fill="none"></path></g></g><g transform="translate(235.5 554.5) rotate(0 23.5 12.5)"><text x="0" y="18" font-family="Virgil, Segoe UI Emoji" font-size="20px" fill="#c92a2a" text-anchor="start" style="white-space: pre;" direction="ltr">Next</text></g><g stroke-linecap="round"><g transform="translate(580 418) rotate(0 -65.90843271728608 0.48583162762224674)"><path d="M-0.3 -1.1 C-22.61 -0.58, -110.62 1.66, -132.75 2.07 M1.75 0.94 C-20.79 1.24, -110.96 0.79, -133.57 0.51" stroke="#000000" stroke-width="1" fill="none"></path></g><g transform="translate(580 418) rotate(0 -65.90843271728608 0.48583162762224674)"><path d="M-107.13 -9.11 C-114.7 -5.81, -126.96 -2.77, -133.53 0.48 M-105.64 -9.93 C-112.11 -6.85, -118.79 -5.23, -134.46 0.58" stroke="#000000" stroke-width="1" fill="none"></path></g><g transform="translate(580 418) rotate(0 -65.90843271728608 0.48583162762224674)"><path d="M-107.29 11.41 C-114.62 6.65, -126.81 1.64, -133.53 0.48 M-105.8 10.59 C-112.18 8.65, -118.81 5.26, -134.46 0.58" stroke="#000000" stroke-width="1" fill="none"></path></g></g><g transform="translate(447 391) rotate(0 56.5 12.5)"><text x="0" y="18" font-family="Virgil, Segoe UI Emoji" font-size="20px" fill="#000000" text-anchor="start" style="white-space: pre;" direction="ltr">next,vendeu</text></g><g stroke-linecap="round"><g transform="translate(225 302) rotate(0 158.1960531618446 -104.13237063172171)"><path d="M-0.83 1 C7.31 0.15, 32.21 19.73, 49.88 -4.94 C67.54 -29.61, 74.8 -113.77, 105.16 -147.03 C135.51 -180.29, 196.68 -193.02, 232.03 -204.48 C267.37 -215.95, 303.08 -214.01, 317.22 -215.83 M0.94 0.48 C9.34 -0.7, 34.74 17.86, 52 -6.5 C69.25 -30.87, 74.51 -112.35, 104.47 -145.73 C134.43 -179.1, 196.53 -195.16, 231.76 -206.77 C266.99 -218.37, 301.45 -213.79, 315.87 -215.36" stroke="#000000" stroke-width="1" fill="none"></path></g><g transform="translate(225 302) rotate(0 158.1960531618446 -104.13237063172171)"><path d="M289.55 -206.41 C300.42 -208.25, 309.39 -214.31, 316.73 -214.99 M288.53 -205.41 C296.32 -207.88, 305.31 -210.64, 315.32 -216" stroke="#000000" stroke-width="1" fill="none"></path></g><g transform="translate(225 302) rotate(0 158.1960531618446 -104.13237063172171)"><path d="M289.14 -226.93 C300.2 -220.86, 309.32 -219.01, 316.73 -214.99 M288.12 -225.92 C296.02 -221.96, 305.14 -218.28, 315.32 -216" stroke="#000000" stroke-width="1" fill="none"></path></g></g><g stroke-opacity="0.3" fill-opacity="0.3" transform="translate(241 70) rotate(0 35.5 239.5)" stroke="none"><path fill="#000000" d="M 0,2.11 Q 0,2.11 -1.43,2.14 -2.87,2.17 -4.06,2.23 -5.24,2.28 -6.61,2.31 -7.97,2.33 -9.42,2.34 -10.86,2.36 -12.63,2.31 -14.39,2.26 -16.20,1.95 -18.01,1.63 -19.65,1.19 -21.30,0.76 -23.87,-0.76 -26.44,-2.30 -28.01,-3.15 -29.58,-4.01 -31.75,-5.65 -33.92,-7.30 -35.43,-8.57 -36.94,-9.83 -38.20,-10.92 -39.47,-12.01 -40.50,-12.63 -41.53,-13.24 -42.85,-14.11 -44.18,-14.98 -45.43,-15.98 -46.67,-16.97 -47.86,-18.37 -49.05,-19.77 -50.53,-21.48 -52.01,-23.19 -53.26,-24.48 -54.50,-25.76 -55.86,-27.20 -57.22,-28.63 -58.41,-29.78 -59.60,-30.93 -60.70,-31.97 -61.80,-33.01 -63.47,-34.08 -65.15,-35.15 -66.32,-36.00 -67.50,-36.84 -68.77,-38.26 -70.04,-39.68 -71.06,-40.74 -72.08,-41.81 -73.44,-42.74 -74.80,-43.68 -76.15,-44.76 -77.49,-45.83 -78.66,-46.86 -79.83,-47.89 -81.14,-48.57 -82.45,-49.25 -83.51,-49.67 -84.58,-50.08 -85.98,-50.52 -87.38,-50.97 -89.24,-51.26 -91.10,-51.56 -93.85,-52.35 -96.60,-53.15 -99.10,-53.79 -101.61,-54.43 -104.11,-55.02 -106.60,-55.60 -108.74,-55.86 -110.87,-56.12 -113.64,-56.84 -116.41,-57.56 -118.88,-57.85 -121.35,-58.14 -123.27,-58.24 -125.20,-58.34 -127.15,-58.38 -129.11,-58.41 -131.95,-58.46 -134.79,-58.51 -137.72,-58.54 -140.66,-58.57 -143.34,-58.58 -146.03,-58.60 -148.32,-58.61 -150.61,-58.63 -153.02,-58.63 -155.43,-58.64 -157.32,-58.60 -159.21,-58.55 -161.16,-58.53 -163.11,-58.50 -164.80,-58.44 -166.49,-58.38 -168.36,-58.36 -170.23,-58.34 -172.46,-58.39 -174.70,-58.43 -177.37,-58.47 -180.04,-58.50 -182.04,-58.50 -184.04,-58.49 -185.18,-58.38 -186.31,-58.26 -187.18,-57.39 -188.04,-56.52 -188.24,-55.24 -188.45,-53.95 -188.98,-51.33 -189.51,-48.70 -190.06,-46.64 -190.61,-44.57 -190.76,-42.95 -190.92,-41.33 -190.95,-39.79 -190.99,-38.25 -191.10,-35.60 -191.21,-32.95 -191.29,-29.80 -191.36,-26.65 -192.00,-23.72 -192.63,-20.79 -192.90,-18.54 -193.16,-16.29 -193.29,-14.19 -193.41,-12.09 -193.46,-10.02 -193.52,-7.95 -194.08,-6.46 -194.64,-4.98 -194.74,-3.82 -194.83,-2.65 -195.55,-0.98 -196.26,0.68 -196.81,2.33 -197.36,3.98 -197.91,5.83 -198.47,7.68 -199.33,9.49 -200.19,11.31 -201.15,13.39 -202.11,15.48 -202.80,17.46 -203.50,19.44 -204.41,21.77 -205.31,24.10 -206.27,26.78 -207.23,29.47 -207.91,32.82 -208.59,36.17 -209.76,41.39 -210.94,46.60 -212.01,51.96 -213.08,57.32 -213.53,62.40 -213.98,67.49 -214.47,71.99 -214.95,76.50 -215.45,79.87 -215.95,83.24 -216.16,86.05 -216.36,88.86 -217.04,92.73 -217.71,96.60 -217.99,100.17 -218.26,103.73 -218.96,107.92 -219.67,112.11 -219.96,116.10 -220.24,120.10 -220.37,122.95 -220.49,125.81 -220.79,127.71 -221.08,129.61 -221.52,132.36 -221.97,135.11 -222.16,137.67 -222.35,140.22 -222.43,143.03 -222.52,145.84 -222.85,149.67 -223.18,153.50 -223.90,158.32 -224.62,163.13 -224.92,166.84 -225.22,170.55 -225.35,173.56 -225.48,176.57 -225.54,179.57 -225.59,182.56 -225.62,185.28 -225.64,187.99 -225.65,190.86 -225.66,193.74 -225.67,196.69 -225.67,199.64 -225.67,202.33 -225.68,205.02 -225.68,208.75 -225.68,212.48 -225.68,215.22 -225.68,217.95 -225.68,220.56 -225.68,223.16 -226.28,225.57 -226.87,227.98 -227.10,230.29 -227.33,232.59 -227.43,235.29 -227.53,237.99 -227.57,241.73 -227.62,245.46 -227.63,248.49 -227.65,251.52 -227.66,254.53 -227.67,257.54 -227.67,260.84 -227.68,264.13 -227.68,267.25 -227.68,270.38 -228.26,274.11 -228.85,277.84 -229.08,281.90 -229.32,285.97 -229.43,289.43 -229.53,292.89 -229.57,295.80 -229.62,298.70 -229.64,301.66 -229.65,304.62 -229.66,307.60 -229.67,310.59 -229.39,314.39 -229.11,318.20 -228.70,321.53 -228.29,324.86 -228.04,326.58 -227.79,328.30 -226.66,330.96 -225.53,333.63 -224.16,336.06 -222.80,338.49 -220.81,341.23 -218.83,343.98 -217.05,347.59 -215.27,351.19 -213.42,354.37 -211.57,357.54 -209.08,361.17 -206.59,364.79 -204.37,368.09 -202.15,371.38 -200.08,374.19 -198.01,377.01 -195.98,379.64 -193.95,382.27 -191.90,385.45 -189.86,388.64 -187.92,390.75 -185.98,392.85 -183.66,395.84 -181.34,398.83 -178.67,401.77 -176.01,404.71 -173.13,407.99 -170.25,411.28 -167.59,414.41 -164.92,417.53 -162.62,420.61 -160.31,423.70 -158.20,426.42 -156.09,429.15 -153.74,432.34 -151.39,435.52 -149.50,438.65 -147.61,441.77 -145.98,444.20 -144.35,446.63 -142.79,448.81 -141.24,450.99 -139.99,452.79 -138.74,454.60 -137.86,456.62 -136.98,458.64 -135.56,460.46 -134.15,462.29 -132.87,464.97 -131.59,467.64 -129.95,470.40 -128.32,473.16 -126.77,475.48 -125.22,477.79 -123.70,479.93 -122.18,482.06 -120.68,484.11 -119.17,486.16 -117.97,487.18 -116.77,488.20 -115.61,489.21 -114.45,490.23 -112.44,491.27 -110.43,492.31 -108.75,492.84 -107.06,493.37 -104.14,493.94 -101.22,494.51 -99.12,494.78 -97.02,495.05 -94.80,495.79 -92.58,496.54 -90.94,496.75 -89.31,496.96 -88.04,496.98 -86.77,497.01 -85.12,497.03 -83.47,497.05 -81.89,497.04 -80.32,497.02 -78.79,496.99 -77.26,496.96 -75.46,496.98 -73.66,497.01 -71.74,497.04 -69.83,497.08 -67.29,497.16 -64.75,497.24 -61.94,497.30 -59.14,497.36 -56.51,497.41 -53.88,497.45 -51.33,497.48 -48.77,497.51 -46.44,497.83 -44.12,498.15 -42.23,498.53 -40.34,498.91 -38.79,499.00 -37.23,499.09 -35.31,499.45 -33.40,499.81 -31.09,500.62 -28.78,501.42 -26.32,502.66 -23.85,503.91 -21.77,504.69 -19.69,505.47 -17.33,506.40 -14.97,507.33 -12.60,508.00 -10.23,508.66 -7.98,509.56 -5.73,510.45 -3.69,511.09 -1.66,511.74 0.34,512.30 2.35,512.86 4.44,513.70 6.52,514.55 9.07,515.46 11.63,516.38 13.91,517.36 16.20,518.35 18.32,519.34 20.44,520.34 23.34,521.62 26.23,522.89 28.31,523.72 30.38,524.54 32.77,525.78 35.16,527.03 37.82,528.09 40.47,529.16 43.33,530.19 46.19,531.22 48.27,531.95 50.35,532.68 52.12,533.22 53.89,533.77 54.86,534.30 55.84,534.83 57.32,534.82 58.79,534.81 60.28,534.73 61.76,534.64 63.26,534.65 64.76,534.65 66.84,534.78 68.93,534.90 72.00,535.60 75.08,536.30 79.34,536.60 83.60,536.91 87.16,537.07 90.73,537.23 93.97,537.31 97.21,537.40 99.45,537.44 101.69,537.49 103.50,537.46 105.32,537.42 106.66,537.33 108.01,537.23 109.73,537.21 111.45,537.18 114.77,537.25 118.09,537.32 120.36,537.37 122.63,537.41 125.04,537.45 127.44,537.49 129.33,537.46 131.21,537.43 132.59,537.34 133.96,537.24 135.78,537.06 137.60,536.89 139.44,536.92 141.28,536.96 143.21,537.00 145.14,537.05 146.82,537.04 148.51,537.02 150.37,537.05 152.24,537.07 154.18,537.11 156.12,537.14 158.10,537.18 160.07,537.21 162.06,537.24 164.05,537.27 166.62,537.33 169.19,537.38 172.01,537.42 174.83,537.46 177.68,537.21 180.53,536.96 183.17,536.57 185.82,536.19 187.86,536.00 189.91,535.81 191.06,535.61 192.20,535.42 195.08,535.33 197.95,535.25 200.84,535.30 203.73,535.36 206.68,535.40 209.63,535.44 211.75,535.47 213.87,535.50 215.63,535.45 217.39,535.40 219.15,535.20 220.92,535.01 222.38,534.96 223.84,534.92 225.03,534.86 226.23,534.80 227.31,534.74 228.39,534.68 230.71,534.41 233.03,534.13 236.03,533.58 239.03,533.02 243.54,532.24 248.05,531.46 251.09,530.88 254.13,530.29 255.74,529.96 257.34,529.62 258.44,529.17 259.54,528.73 261.49,528.07 263.45,527.42 266.05,526.58 268.66,525.74 270.54,524.87 272.42,523.99 273.41,523.25 274.41,522.52 275.83,521.09 277.25,519.66 278.45,518.30 279.65,516.93 281.24,515.81 282.83,514.69 284.17,513.41 285.51,512.12 286.48,511.03 287.46,509.95 288.20,509.18 288.94,508.42 289.94,506.84 290.93,505.27 291.78,502.68 292.64,500.10 292.98,498.41 293.32,496.71 294.19,494.52 295.06,492.33 295.71,490.39 296.36,488.45 296.95,486.48 297.54,484.50 298.38,482.86 299.22,481.22 299.50,478.74 299.78,476.26 299.93,474.18 300.08,472.11 300.18,468.63 300.27,465.15 300.33,461.94 300.39,458.74 300.44,456.22 300.48,453.71 300.51,450.92 300.54,448.12 300.56,445.79 300.58,443.45 300.59,441.31 300.61,439.16 300.60,437.11 300.60,435.05 300.05,432.59 299.50,430.14 299.17,428.42 298.85,426.71 298.20,424.99 297.55,423.27 297.22,421.19 296.89,419.10 296.25,417.26 295.61,415.42 294.96,414.07 294.31,412.72 293.52,410.34 292.73,407.96 291.84,406.55 290.95,405.14 290.18,403.92 289.42,402.70 288.55,401.37 287.68,400.04 286.76,399.00 285.85,397.96 284.89,396.98 283.93,395.99 282.87,395.46 281.81,394.94 280.54,393.99 279.28,393.03 277.81,392.12 276.34,391.21 274.02,389.87 271.69,388.54 270.43,388.09 269.18,387.64 267.65,386.80 266.13,385.97 264.67,385.72 263.21,385.47 261.43,385.30 259.65,385.14 258.30,385.13 256.94,385.13 255.80,385.17 254.66,385.21 252.01,385.25 249.36,385.28 247.24,385.16 245.13,385.03 242.21,384.93 239.30,384.84 236.34,384.76 233.38,384.69 230.97,384.64 228.56,384.59 226.96,384.65 225.36,384.72 223.82,384.78 222.27,384.84 219.49,384.90 216.71,384.97 214.49,384.88 212.27,384.79 209.60,384.73 206.93,384.66 203.92,384.02 200.91,383.39 198.35,383.12 195.78,382.85 193.71,382.45 191.65,382.04 189.88,381.63 188.11,381.21 186.08,381.00 184.05,380.79 181.57,380.09 179.09,379.38 175.47,378.21 171.86,377.04 169.35,375.62 166.84,374.20 165.45,373.39 164.05,372.58 162.39,371.68 160.73,370.77 159.01,369.07 157.28,367.37 156.19,366.11 155.10,364.85 153.84,363.33 152.59,361.81 151.43,359.23 150.27,356.66 149.72,354.68 149.16,352.70 148.78,351.47 148.39,350.25 147.81,348.05 147.22,345.85 146.96,343.59 146.71,341.34 146.55,339.53 146.39,337.72 146.35,335.78 146.30,333.85 146.24,332.17 146.18,330.49 145.84,329.42 145.50,328.34 145.09,326.66 144.68,324.97 144.42,323.58 144.17,322.19 144.19,319.81 144.21,317.42 144.14,315.87 144.06,314.32 144.06,312.50 144.06,310.68 144.14,307.61 144.22,304.53 144.28,302.08 144.34,299.62 144.39,296.57 144.43,293.51 144.47,290.20 144.50,286.89 144.53,283.76 144.55,280.63 144.57,276.71 144.59,272.79 144.60,268.53 144.61,264.28 144.62,260.46 144.63,256.64 144.07,252.82 143.51,248.99 143.26,245.55 143.02,242.11 142.36,239.03 141.70,235.96 141.12,233.47 140.55,230.98 140.02,228.47 139.49,225.96 138.69,222.62 137.89,219.27 136.99,216.45 136.09,213.63 135.15,211.31 134.20,208.99 133.23,206.86 132.25,204.73 131.49,202.94 130.73,201.15 129.85,199.62 128.96,198.10 128.02,195.92 127.07,193.73 126.10,192.39 125.14,191.04 123.63,189.00 122.12,186.95 119.77,184.07 117.41,181.19 113.55,176.80 109.69,172.42 106.29,167.92 102.89,163.41 99.72,158.91 96.55,154.40 94.88,151.27 93.21,148.15 92.22,145.94 91.22,143.74 89.96,141.11 88.69,138.48 86.41,133.01 84.12,127.54 82.59,124.09 81.06,120.65 79.81,117.12 78.57,113.58 77.20,110.42 75.83,107.26 74.40,104.50 72.97,101.74 71.76,99.08 70.56,96.42 69.47,93.85 68.38,91.28 67.62,89.00 66.85,86.72 66.20,84.92 65.55,83.12 65.19,81.40 64.84,79.68 64.15,78.68 63.46,77.67 63.06,75.74 62.65,73.81 61.99,72.44 61.34,71.08 60.78,68.82 60.22,66.57 59.73,64.50 59.24,62.43 58.75,60.39 58.26,58.36 57.77,56.35 57.28,54.33 56.96,52.85 56.64,51.36 56.04,49.12 55.45,46.88 55.18,44.02 54.91,41.17 54.26,38.69 53.61,36.20 53.32,33.56 53.02,30.91 52.63,28.43 52.23,25.94 51.79,23.75 51.34,21.56 50.82,19.80 50.30,18.04 49.79,16.14 49.29,14.23 48.53,13.42 47.77,12.61 46.93,11.73 46.08,10.85 44.90,10.68 43.73,10.51 41.60,9.65 39.48,8.78 37.25,8.14 35.01,7.49 32.89,6.90 30.77,6.31 28.82,6.08 26.87,5.84 25.45,5.84 24.02,5.84 22.86,5.89 21.69,5.94 20.06,5.95 18.42,5.96 16.00,5.87 13.58,5.78 11.29,5.42 9.00,5.06 7.13,4.65 5.26,4.25 4.00,4.17 2.73,4.09 1.64,4.11 0.55,4.12 -0.74,4.15 -2.05,4.17 -3.84,4.28 -5.62,4.39 -6.88,4.49 -8.14,4.59 -10.04,4.61 -11.94,4.64 -13.01,4.16 -14.08,3.69 -15.71,3.30 -17.35,2.91 -17.80,2.78 -18.26,2.64 -18.65,2.37 -19.04,2.10 -19.32,1.72 -19.60,1.34 -19.75,0.89 -19.90,0.44 -19.89,-0.03 -19.88,-0.50 -19.73,-0.95 -19.57,-1.40 -19.28,-1.77 -18.99,-2.15 -18.59,-2.41 -18.20,-2.67 -17.74,-2.79 -17.28,-2.91 -16.80,-2.88 -16.33,-2.85 -15.89,-2.67 -15.45,-2.49 -15.10,-2.18 -14.74,-1.87 -14.50,-1.46 -14.26,-1.05 -14.16,-0.58 -14.06,-0.12 -14.12,0.34 -14.18,0.81 -14.38,1.24 -14.59,1.67 -14.92,2.01 -15.25,2.35 -15.67,2.57 -16.09,2.79 -16.56,2.86 -17.03,2.93 -17.50,2.85 -17.96,2.76 -18.38,2.54 -18.80,2.31 -19.12,1.96 -19.44,1.61 -19.64,1.18 -19.83,0.75 -19.88,0.27 -19.92,-0.19 -19.81,-0.65 -19.71,-1.11 -19.46,-1.52 -19.21,-1.92 -18.84,-2.22 -18.48,-2.53 -18.03,-2.70 -17.59,-2.87 -17.12,-2.89 -16.64,-2.91 -16.64,-2.91 -16.64,-2.91 -13.98,-1.77 -11.32,-0.63 -9.72,-0.61 -8.13,-0.59 -6.86,-0.48 -5.59,-0.38 -3.77,-0.23 -1.95,-0.08 -0.56,0.00 0.82,0.09 2.01,0.25 3.21,0.41 4.61,0.69 6.02,0.96 7.73,1.38 9.44,1.79 11.52,2.01 13.59,2.24 16.03,2.16 18.46,2.08 20.14,2.13 21.82,2.17 23.04,2.31 24.25,2.45 25.73,2.64 27.21,2.83 29.37,3.07 31.54,3.30 33.70,3.80 35.85,4.31 38.27,4.89 40.69,5.46 42.75,6.13 44.80,6.79 46.70,7.51 48.60,8.23 49.57,9.43 50.54,10.64 51.35,12.03 52.15,13.42 52.64,15.35 53.13,17.28 53.57,19.14 54.02,21.00 54.50,23.24 54.98,25.49 55.41,28.04 55.84,30.58 56.14,33.02 56.43,35.45 57.18,38.15 57.92,40.85 58.22,43.43 58.51,46.01 59.25,48.43 59.99,50.85 60.10,52.22 60.21,53.60 60.73,55.60 61.25,57.60 61.80,59.61 62.34,61.61 62.92,63.64 63.50,65.66 64.11,67.62 64.72,69.59 65.46,71.38 66.20,73.17 66.37,74.62 66.55,76.07 67.23,77.60 67.91,79.14 68.07,80.68 68.23,82.23 68.79,84.06 69.35,85.88 70.08,88.07 70.81,90.26 71.88,92.80 72.96,95.34 74.13,97.93 75.31,100.53 76.78,103.37 78.25,106.21 79.66,109.46 81.06,112.70 82.27,116.14 83.48,119.57 85.03,123.05 86.57,126.52 88.83,131.92 91.09,137.32 92.38,139.98 93.66,142.63 94.63,144.75 95.60,146.87 97.19,149.85 98.78,152.83 101.94,157.29 105.09,161.74 108.45,166.15 111.80,170.55 115.72,174.95 119.64,179.35 122.07,182.25 124.50,185.15 126.12,187.23 127.74,189.32 128.73,190.93 129.72,192.54 130.67,194.61 131.61,196.67 132.48,198.39 133.35,200.10 134.00,201.87 134.65,203.64 135.64,205.82 136.64,208.00 137.62,210.41 138.60,212.83 139.53,215.74 140.46,218.66 141.27,222.04 142.08,225.41 142.61,227.90 143.14,230.39 143.72,232.89 144.30,235.40 145.00,238.65 145.69,241.91 145.94,245.26 146.18,248.60 146.77,252.62 147.36,256.64 147.37,260.46 147.38,264.28 147.39,268.53 147.40,272.79 147.42,276.71 147.44,280.63 147.47,283.76 147.49,286.89 147.52,290.20 147.56,293.51 147.61,296.57 147.65,299.62 147.72,302.07 147.79,304.53 147.88,307.59 147.97,310.65 147.99,312.44 148.02,314.23 148.01,315.77 148.00,317.30 148.17,319.46 148.34,321.63 148.44,322.83 148.54,324.03 148.96,325.74 149.37,327.44 149.62,328.94 149.87,330.43 149.86,332.09 149.85,333.75 149.91,335.60 149.97,337.46 150.07,339.15 150.17,340.85 150.50,342.78 150.84,344.71 151.66,346.96 152.48,349.20 152.69,350.32 152.90,351.44 153.75,353.62 154.60,355.80 154.68,356.88 154.77,357.97 155.61,359.48 156.46,360.99 157.10,361.89 157.74,362.79 158.57,364.00 159.40,365.20 160.85,366.60 162.29,368.00 164.04,368.98 165.79,369.95 167.00,370.86 168.21,371.77 170.47,373.05 172.74,374.33 176.31,375.44 179.87,376.56 182.10,377.16 184.33,377.77 186.63,377.94 188.93,378.12 190.58,378.61 192.23,379.10 194.14,379.48 196.05,379.86 198.79,380.08 201.53,380.30 204.24,380.82 206.95,381.33 209.61,381.26 212.27,381.20 214.49,381.11 216.71,381.02 219.49,381.09 222.27,381.15 223.82,381.21 225.36,381.27 226.96,381.34 228.56,381.40 230.97,381.35 233.38,381.30 236.34,381.23 239.30,381.16 242.22,381.06 245.13,380.97 247.25,380.84 249.37,380.72 250.99,380.72 252.60,380.71 253.68,380.78 254.76,380.85 255.94,380.95 257.13,381.04 258.54,381.16 259.94,381.28 261.96,381.41 263.97,381.53 266.02,381.97 268.07,382.40 269.38,383.17 270.70,383.94 272.07,384.57 273.44,385.20 275.95,386.40 278.45,387.60 280.24,388.60 282.02,389.59 282.99,390.42 283.96,391.25 285.45,392.21 286.94,393.16 287.94,394.32 288.93,395.47 289.90,396.76 290.87,398.05 291.73,399.51 292.58,400.96 293.18,402.21 293.77,403.47 294.73,405.19 295.69,406.90 296.55,409.18 297.40,411.45 297.92,412.93 298.44,414.41 299.20,416.52 299.96,418.63 300.20,420.43 300.44,422.23 301.16,424.24 301.87,426.25 302.03,427.90 302.19,429.54 302.79,432.29 303.39,435.03 303.39,437.10 303.38,439.16 303.40,441.31 303.41,443.45 303.43,445.79 303.45,448.13 303.47,450.92 303.50,453.72 303.53,456.23 303.56,458.75 303.60,461.96 303.64,465.18 303.68,468.69 303.73,472.21 303.75,474.41 303.78,476.61 303.59,478.45 303.39,480.28 302.90,481.63 302.40,482.99 301.63,484.20 300.86,485.42 300.38,487.45 299.90,489.48 299.38,491.57 298.86,493.65 298.32,495.51 297.79,497.38 297.53,499.81 297.27,502.24 296.70,503.47 296.14,504.69 295.02,507.03 293.91,509.38 293.30,510.64 292.69,511.91 291.24,513.23 289.80,514.54 288.41,515.62 287.01,516.70 286.03,517.37 285.05,518.03 283.86,518.76 282.66,519.49 281.37,521.13 280.09,522.76 278.18,524.14 276.28,525.52 275.04,526.17 273.80,526.82 271.78,527.86 269.76,528.89 267.24,529.84 264.73,530.79 262.74,531.63 260.76,532.47 259.37,532.83 257.98,533.20 256.42,533.42 254.86,533.64 251.81,534.37 248.76,535.11 244.36,536.07 239.95,537.03 236.86,537.87 233.78,538.71 231.08,539.01 228.39,539.31 227.31,539.25 226.23,539.19 225.03,539.13 223.84,539.07 222.38,539.03 220.92,538.98 219.15,538.79 217.39,538.59 215.63,538.54 213.87,538.49 211.75,538.52 209.63,538.55 206.68,538.60 203.73,538.65 200.85,538.71 197.97,538.78 195.20,538.78 192.42,538.79 191.29,538.74 190.16,538.70 188.21,538.86 186.25,539.01 183.53,539.45 180.82,539.88 177.82,540.21 174.83,540.53 172.01,540.57 169.19,540.61 166.62,540.66 164.05,540.72 162.06,540.75 160.07,540.78 158.10,540.81 156.12,540.85 154.18,540.88 152.24,540.92 150.37,540.94 148.51,540.97 146.82,540.95 145.14,540.94 143.21,540.99 141.28,541.03 139.44,541.07 137.60,541.10 135.78,540.93 133.96,540.75 132.59,540.65 131.21,540.56 129.33,540.53 127.44,540.50 125.04,540.54 122.63,540.57 120.36,540.62 118.09,540.67 114.77,540.74 111.45,540.81 109.72,540.78 108.00,540.75 106.65,540.65 105.30,540.55 103.48,540.49 101.66,540.44 99.42,540.45 97.17,540.46 93.90,540.46 90.64,540.46 87.02,540.41 83.40,540.36 78.87,540.17 74.35,539.99 71.63,539.53 68.90,539.08 66.82,539.20 64.74,539.32 63.20,539.31 61.66,539.30 60.02,539.09 58.38,538.89 57.29,538.68 56.21,538.47 54.57,537.46 52.93,536.46 51.20,535.81 49.48,535.16 47.39,534.43 45.29,533.70 42.39,532.65 39.49,531.60 36.72,530.48 33.94,529.36 31.67,528.18 29.41,526.99 27.29,526.15 25.16,525.31 22.24,524.02 19.32,522.74 17.24,521.76 15.15,520.78 12.94,519.84 10.73,518.89 8.12,517.96 5.52,517.03 3.57,516.24 1.63,515.46 -0.42,514.89 -2.47,514.32 -4.60,513.66 -6.73,512.99 -8.85,512.16 -10.97,511.34 -13.48,510.65 -15.99,509.97 -18.34,509.09 -20.69,508.20 -22.93,507.41 -25.18,506.61 -27.48,505.52 -29.77,504.42 -31.91,503.76 -34.05,503.11 -35.82,502.75 -37.59,502.38 -39.30,502.13 -41.01,501.87 -42.75,501.43 -44.48,500.99 -46.63,500.74 -48.77,500.48 -51.33,500.51 -53.88,500.54 -56.51,500.58 -59.14,500.63 -61.95,500.68 -64.75,500.74 -67.29,500.82 -69.83,500.90 -71.75,500.94 -73.67,500.97 -75.47,500.99 -77.28,501.00 -78.83,500.95 -80.37,500.90 -81.97,500.84 -83.58,500.78 -85.34,500.71 -87.11,500.63 -88.47,500.41 -89.83,500.19 -91.68,499.83 -93.52,499.47 -95.44,498.88 -97.36,498.29 -99.58,498.12 -101.80,497.95 -104.99,497.48 -108.17,497.01 -110.04,496.46 -111.90,495.90 -113.64,495.08 -115.37,494.25 -116.07,493.43 -116.77,492.60 -117.80,491.47 -118.82,490.35 -120.06,489.04 -121.29,487.73 -122.81,485.66 -124.33,483.59 -125.87,481.42 -127.41,479.26 -129.00,476.89 -130.59,474.51 -132.29,471.64 -133.98,468.78 -135.12,466.34 -136.27,463.89 -137.85,461.80 -139.42,459.70 -140.17,457.89 -140.91,456.08 -142.14,454.30 -143.38,452.51 -144.95,450.31 -146.53,448.10 -148.20,445.61 -149.86,443.13 -151.69,440.11 -153.51,437.08 -155.84,433.92 -158.17,430.76 -160.29,428.02 -162.42,425.27 -164.67,422.26 -166.93,419.24 -169.58,416.13 -172.23,413.02 -175.10,409.75 -177.96,406.48 -180.69,403.47 -183.43,400.45 -185.68,397.55 -187.94,394.65 -190.02,392.37 -192.10,390.08 -194.08,387.00 -196.07,383.91 -198.12,381.26 -200.18,378.61 -202.29,375.76 -204.41,372.91 -206.64,369.64 -208.87,366.37 -211.44,362.67 -214.00,358.97 -215.93,355.73 -217.86,352.48 -219.55,349.11 -221.24,345.75 -223.38,342.90 -225.51,340.06 -227.06,337.45 -228.62,334.84 -229.38,332.95 -230.14,331.06 -230.43,329.84 -230.71,328.61 -230.81,326.90 -230.90,325.18 -231.31,321.79 -231.72,318.39 -232.01,314.49 -232.30,310.58 -232.29,307.59 -232.28,304.60 -232.26,301.63 -232.24,298.66 -232.20,295.74 -232.15,292.81 -232.05,289.31 -231.94,285.81 -231.69,281.62 -231.44,277.43 -230.87,273.90 -230.31,270.37 -230.30,267.25 -230.30,264.13 -230.30,260.83 -230.30,257.54 -230.29,254.52 -230.28,251.50 -230.26,248.47 -230.24,245.43 -230.20,241.66 -230.15,237.89 -230.05,235.11 -229.94,232.32 -229.68,229.83 -229.42,227.34 -228.86,225.24 -228.31,223.14 -228.31,220.55 -228.31,217.95 -228.31,215.21 -228.31,212.48 -228.31,208.75 -228.31,205.02 -228.31,202.32 -228.31,199.63 -228.30,196.68 -228.30,193.73 -228.29,190.85 -228.28,187.97 -228.26,185.24 -228.24,182.52 -228.18,179.49 -228.13,176.46 -228.00,173.40 -227.88,170.34 -227.57,166.54 -227.27,162.74 -226.57,158.01 -225.86,153.27 -225.55,149.52 -225.24,145.76 -225.17,142.90 -225.10,140.03 -224.92,137.35 -224.74,134.68 -224.33,131.87 -223.91,129.07 -223.52,127.38 -223.12,125.69 -223.00,122.80 -222.87,119.90 -222.57,115.79 -222.27,111.67 -221.58,107.60 -220.89,103.53 -220.61,99.84 -220.32,96.15 -219.66,92.41 -219.01,88.67 -218.80,85.76 -218.59,82.85 -218.10,79.53 -217.62,76.21 -217.15,71.73 -216.67,67.25 -216.22,62.02 -215.76,56.79 -214.70,51.39 -213.64,46.00 -212.50,40.81 -211.36,35.62 -210.67,32.07 -209.97,28.52 -209.05,25.78 -208.13,23.05 -207.31,20.75 -206.49,18.46 -205.83,16.31 -205.18,14.17 -204.31,11.96 -203.43,9.75 -202.69,8.22 -201.94,6.70 -201.43,4.75 -200.93,2.81 -200.32,0.93 -199.71,-0.94 -199.06,-2.14 -198.41,-3.35 -197.38,-5.74 -196.34,-8.13 -196.30,-10.18 -196.27,-12.23 -196.18,-14.41 -196.09,-16.60 -195.86,-19.01 -195.64,-21.42 -195.11,-24.04 -194.59,-26.67 -194.63,-29.83 -194.67,-32.99 -194.71,-35.72 -194.74,-38.45 -194.61,-40.10 -194.47,-41.75 -194.22,-43.56 -193.97,-45.37 -193.56,-47.34 -193.14,-49.30 -192.78,-52.09 -192.41,-54.88 -191.85,-56.87 -191.28,-58.87 -188.80,-60.30 -186.31,-61.73 -185.18,-61.61 -184.04,-61.50 -182.04,-61.49 -180.04,-61.49 -177.37,-61.52 -174.70,-61.56 -172.46,-61.60 -170.23,-61.65 -168.36,-61.63 -166.49,-61.61 -164.80,-61.55 -163.11,-61.48 -161.16,-61.46 -159.20,-61.44 -157.32,-61.39 -155.43,-61.35 -153.02,-61.35 -150.61,-61.36 -148.31,-61.37 -146.02,-61.38 -143.33,-61.39 -140.65,-61.40 -137.71,-61.41 -134.76,-61.41 -131.90,-61.42 -129.03,-61.42 -127.02,-61.36 -125.01,-61.30 -123.02,-61.15 -121.03,-61.01 -118.36,-60.73 -115.69,-60.45 -113.12,-59.83 -110.55,-59.21 -108.24,-59.02 -105.93,-58.82 -103.39,-58.35 -100.84,-57.88 -98.25,-57.39 -95.65,-56.90 -93.17,-56.37 -90.69,-55.85 -88.35,-55.75 -86.01,-55.65 -83.45,-54.74 -80.89,-53.84 -79.63,-53.25 -78.37,-52.66 -77.63,-51.89 -76.89,-51.12 -75.84,-50.13 -74.80,-49.14 -73.64,-48.18 -72.48,-47.22 -70.65,-46.07 -68.83,-44.92 -67.76,-43.77 -66.70,-42.63 -65.76,-41.56 -64.82,-40.48 -62.80,-38.81 -60.78,-37.14 -59.90,-36.47 -59.03,-35.81 -57.98,-34.69 -56.94,-33.58 -55.79,-32.38 -54.64,-31.18 -53.21,-29.79 -51.78,-28.40 -50.51,-27.10 -49.25,-25.81 -47.53,-24.14 -45.81,-22.47 -44.88,-21.34 -43.95,-20.20 -42.92,-19.28 -41.89,-18.36 -40.57,-17.44 -39.25,-16.52 -38.11,-15.64 -36.97,-14.75 -35.83,-13.66 -34.69,-12.56 -33.26,-11.39 -31.83,-10.22 -29.77,-8.84 -27.72,-7.47 -26.11,-6.63 -24.50,-5.78 -22.31,-4.66 -20.12,-3.54 -18.67,-3.16 -17.22,-2.78 -15.80,-2.52 -14.38,-2.26 -12.62,-2.31 -10.86,-2.36 -9.42,-2.34 -7.97,-2.33 -6.61,-2.31 -5.24,-2.28 -4.06,-2.23 -2.87,-2.17 -1.43,-2.14 0,-2.11 0.25,-2.08 0.50,-2.05 0.74,-1.96 0.98,-1.87 1.19,-1.72 1.40,-1.58 1.56,-1.39 1.73,-1.19 1.85,-0.97 1.97,-0.74 2.03,-0.50 2.09,-0.25 2.09,0.00 2.09,0.25 2.03,0.50 1.97,0.74 1.85,0.97 1.73,1.20 1.56,1.39 1.40,1.58 1.19,1.72 0.98,1.87 0.74,1.96 0.50,2.05 0.25,2.08 -0.00,2.11 -0.00,2.11 L 0,2.11 Z"></path></g><g transform="translate(10 264) rotate(0 0.00004999999998744897 0.00004999999998744897)" stroke="none"><path fill="#000000" d="M 1.57,-1.57 Q 1.57,-1.57 1.77,-1.27 1.98,-0.98 2.09,-0.64 2.20,-0.29 2.19,0.05 2.18,0.41 2.05,0.75 1.93,1.09 1.70,1.37 1.48,1.65 1.18,1.84 0.87,2.04 0.52,2.12 0.18,2.21 -0.17,2.18 -0.53,2.15 -0.86,2.01 -1.19,1.87 -1.46,1.63 -1.73,1.39 -1.90,1.07 -2.08,0.76 -2.15,0.41 -2.21,0.05 -2.17,-0.29 -2.12,-0.65 -1.96,-0.97 -1.80,-1.29 -1.54,-1.54 -1.29,-1.80 -0.97,-1.96 -0.65,-2.12 -0.29,-2.17 0.06,-2.21 0.41,-2.15 0.76,-2.08 1.07,-1.90 1.39,-1.73 1.63,-1.46 1.87,-1.19 2.01,-0.86 2.15,-0.53 2.18,-0.17 2.21,0.18 2.12,0.52 2.03,0.87 1.84,1.18 1.65,1.48 1.37,1.70 1.09,1.93 0.75,2.05 0.41,2.18 0.05,2.19 -0.30,2.20 -0.64,2.09 -0.98,1.98 -1.27,1.77 -1.57,1.56 -1.57,1.57 -1.57,1.57 -1.73,1.35 -1.90,1.14 -2.01,0.90 -2.12,0.66 -2.16,0.39 -2.21,0.13 -2.20,-0.13 -2.18,-0.40 -2.10,-0.65 -2.02,-0.91 -1.88,-1.14 -1.74,-1.36 -1.55,-1.55 -1.36,-1.74 -1.14,-1.88 -0.91,-2.02 -0.65,-2.10 -0.40,-2.18 -0.13,-2.20 0.13,-2.21 0.39,-2.16 0.66,-2.12 0.90,-2.01 1.14,-1.90 1.35,-1.73 1.57,-1.57 1.57,-1.57 L 1.57,-1.57 Z"></path></g><g stroke-opacity="0.3" fill-opacity="0.3" transform="translate(201 152) rotate(0 42 25)"><text x="0" y="18" font-family="Virgil, Segoe UI Emoji" font-size="20px" fill="#000000" text-anchor="start" style="white-space: pre;" direction="ltr">Maq</text><text x="0" y="43" font-family="Virgil, Segoe UI Emoji" font-size="20px" fill="#000000" text-anchor="start" style="white-space: pre;" direction="ltr">COMPRA</text></g><g stroke-linecap="round"><g transform="translate(755 432) rotate(0 31.24450633573349 -44.218233871636926)"><path d="M-1.07 0.21 C-0.69 -5.22, -9.53 -17.38, 1.75 -31.9 C13.03 -46.42, 55.92 -77.44, 66.61 -86.89 M0.56 -0.72 C0.81 -6.09, -10.18 -16.18, 0.67 -30.84 C11.52 -45.49, 54.83 -79.15, 65.64 -88.65" stroke="#000000" stroke-width="1" fill="none"></path></g><g transform="translate(755 432) rotate(0 31.24450633573349 -44.218233871636926)"><path d="M50.86 -63.17 C52.73 -69.9, 59.96 -77.76, 64.64 -87.81 M50.63 -62.25 C53.11 -67.39, 55.94 -72.73, 65.96 -87.73" stroke="#000000" stroke-width="1" fill="none"></path></g><g transform="translate(755 432) rotate(0 31.24450633573349 -44.218233871636926)"><path d="M37.75 -78.95 C43.07 -81.52, 53.66 -85.34, 64.64 -87.81 M37.53 -78.04 C42.53 -80.12, 48 -82.27, 65.96 -87.73" stroke="#000000" stroke-width="1" fill="none"></path></g></g><g transform="translate(719 405) rotate(0 14 12.5)"><text x="0" y="18" font-family="Virgil, Segoe UI Emoji" font-size="20px" fill="#c92a2a" text-anchor="start" style="white-space: pre;" direction="ltr">~c</text></g></svg>