<svg version="1.1" xmlns="http://www.w3.org/2000/svg" viewBox="0 0 602.3572064827941 145" width="602.3572064827941" height="145">
  <!-- svg-source:excalidraw -->
  
  <defs>
    <style>
      @font-face {
        font-family: "Virgil";
        src: url("https://excalidraw.com/Virgil.woff2");
      }
      @font-face {
        font-family: "Cascadia";
        src: url("https://excalidraw.com/Cascadia.woff2");
      }
    </style>
  </defs>
  <rect x="0" y="0" width="602.3572064827941" height="145" fill="#ffffff"></rect><g transform="translate(48.35720648279414 10) rotate(0 272 62.5)"><text x="0" y="18" font-family="Virgil, Segoe UI Emoji" font-size="20px" fill="#000000" text-anchor="start" style="white-space: pre;" direction="ltr">100:    Add  x5,x6,x7   #  x5 = x6+x7</text><text x="0" y="43" font-family="Virgil, Segoe UI Emoji" font-size="20px" fill="#000000" text-anchor="start" style="white-space: pre;" direction="ltr">104:    beq  x5,x8, FIM  #  if x5==x8 pula para FIM</text><text x="0" y="68" font-family="Virgil, Segoe UI Emoji" font-size="20px" fill="#000000" text-anchor="start" style="white-space: pre;" direction="ltr">108:    addi x5,x5,4</text><text x="0" y="93" font-family="Virgil, Segoe UI Emoji" font-size="20px" fill="#000000" text-anchor="start" style="white-space: pre;" direction="ltr">112 :    sub  x8,x9,x4</text><text x="0" y="118" font-family="Virgil, Segoe UI Emoji" font-size="20px" fill="#000000" text-anchor="start" style="white-space: pre;" direction="ltr">FIM: (116)  addi x5,x5,4</text></g><g stroke-linecap="round"><g transform="translate(46.35720648279414 48) rotate(0 -15.977407737877229 -0.12891507128253465)"><path d="M-0.69 -1 C-5.89 -0.73, -26.9 0.36, -32.1 0.51 M1.15 1.09 C-4.14 1.1, -27.48 -1.35, -33.1 -1.35" stroke="#000000" stroke-width="1" fill="none"></path></g></g><g stroke-linecap="round" transform="translate(110.35720648279414 36) rotate(0 89.5 14)"><path d="M0.58 -1.03 C38.92 -1.44, 81.55 -0.65, 179.24 -0.07 M-0.27 0.39 C57.58 0.01, 113.8 0.16, 178.6 0.74 M179.12 -1.98 C180.64 11.44, 177.37 19.67, 177.26 27.13 M178.49 -0.09 C179.33 8.17, 178.54 16.45, 178.07 28.4 M179.11 29.46 C138.63 28.29, 101.77 27.34, 1.02 28.34 M178.49 27.72 C122.78 29.07, 64.23 29.41, -0.96 28.87 M0.86 27.57 C-1.27 18.86, 1.72 8.49, -1.93 -1.69 M-0.62 28.3 C-0.62 18.28, 0.68 7.93, -0.23 0.47" stroke="#000000" stroke-width="1" fill="none"></path></g><g stroke-linecap="round"><g transform="translate(11.35720648279414 49) rotate(0 0.8137147460319056 34.44450570633636)"><path d="M0.07 0.87 C0.27 11.96, 0.57 56.4, 0.87 67.39 M-1.36 0.29 C-0.77 11.45, 2.59 57.4, 2.98 68.6" stroke="#000000" stroke-width="1" fill="none"></path></g></g><g stroke-linecap="round"><g transform="translate(18.35720648279414 119) rotate(0 13.724010821059352 -0.03938771656191875)"><path d="M-1.16 -1.01 C3.46 -1.13, 23.74 -1.18, 28.61 -1.14 M0.44 1.07 C4.87 1.1, 23.5 -0.05, 27.97 -0.2" stroke="#000000" stroke-width="1" fill="none"></path></g><g transform="translate(18.35720648279414 119) rotate(0 13.724010821059352 -0.03938771656191875)"><path d="M13.89 5.93 C18.59 3.37, 23.86 1.72, 26.74 -0.06 M15.4 5.43 C19.18 4.01, 24.42 1.84, 28.29 -0.82" stroke="#000000" stroke-width="1" fill="none"></path></g><g transform="translate(18.35720648279414 119) rotate(0 13.724010821059352 -0.03938771656191875)"><path d="M13.42 -3.63 C18.26 -2.62, 23.71 -0.69, 26.74 -0.06 M14.93 -4.14 C18.83 -2.29, 24.23 -1.19, 28.29 -0.82" stroke="#000000" stroke-width="1" fill="none"></path></g></g><g stroke-linecap="round"><g transform="translate(107.35720648279414 56.33861124151764) rotate(0 -7.8369622138794455 6.645217668966367)"><path d="M0.53 -1.07 C-2.14 1.24, -12.63 12.08, -15.17 14.36 M-0.65 0.98 C-3.57 2.91, -13.76 10.53, -16.21 12.61" stroke="#000000" stroke-width="1" fill="none"></path></g><g transform="translate(107.35720648279414 56.33861124151764) rotate(0 -7.8369622138794455 6.645217668966367)"><path d="M-11.77 3.84 C-12.23 7.47, -15.69 9.58, -16.2 12.38 M-10.96 4.25 C-13.19 7.15, -14.69 9.79, -16.49 12.36" stroke="#000000" stroke-width="1" fill="none"></path></g><g transform="translate(107.35720648279414 56.33861124151764) rotate(0 -7.8369622138794455 6.645217668966367)"><path d="M-7.48 9.29 C-9.57 10.9, -14.63 10.98, -16.2 12.38 M-6.66 9.7 C-10.35 10.72, -13.35 11.45, -16.49 12.36" stroke="#000000" stroke-width="1" fill="none"></path></g></g></svg>