<svg version="1.1" xmlns="http://www.w3.org/2000/svg" viewBox="0 0 821 464" width="821" height="464">
  <!-- svg-source:excalidraw -->
  
  <defs>
    <style>
      @font-face {
        font-family: "Virgil";
        src: url("https://excalidraw.com/Virgil.woff2");
      }
      @font-face {
        font-family: "Cascadia";
        src: url("https://excalidraw.com/Cascadia.woff2");
      }
    </style>
  </defs>
  <rect x="0" y="0" width="821" height="464" fill="#ffffff"></rect><g transform="translate(168 41) rotate(0 321.5 37.5)"><text x="0" y="18" font-family="Virgil, Segoe UI Emoji" font-size="20px" fill="#000000" text-anchor="start" style="white-space: pre;" direction="ltr">Registradores       add x5,x6,x7  #    x5 = x6 + x7</text><text x="0" y="43" font-family="Virgil, Segoe UI Emoji" font-size="20px" fill="#000000" text-anchor="start" style="white-space: pre;" direction="ltr"></text><text x="0" y="68" font-family="Virgil, Segoe UI Emoji" font-size="20px" fill="#000000" text-anchor="start" style="white-space: pre;" direction="ltr">Load                lw  x5, 16(x22)  #   x5 = memoria[x22+16]</text></g><g stroke-linecap="round" transform="translate(78 184) rotate(0 95.5 135)"><path d="M-0.98 0.05 C65.86 -1.37, 136.28 -0.34, 191.56 0.58 M0.43 -0.52 C52.55 0.46, 106.83 -1.24, 191.51 -0.87 M190.59 -0.07 C192.46 71.87, 192.89 145.43, 190.73 270.04 M190.55 0.42 C190.48 73.82, 191.29 149.24, 190.94 270.67 M190.49 269.02 C117.2 267.26, 43.01 268.59, -1.46 271.81 M190.5 270.06 C135.7 269.75, 79.47 270, -0.78 270.21 M-1.54 270.39 C3.09 188.93, 0.51 104.89, -1.13 0.96 M0.38 269.23 C0.11 180.97, 0.61 91.44, 0.39 -0.32" stroke="#000000" stroke-width="1" fill="none"></path></g><g stroke-linecap="round" transform="translate(537 207) rotate(0 104 108)"><path d="M-0.43 0.12 C52.27 -1.07, 104.19 -1.54, 206.42 0.35 M0.74 -0.1 C67.02 -1.82, 135.07 -1.86, 207.49 -0.72 M207.9 0.23 C205.79 65.88, 206.73 135.01, 209.16 217.39 M208.05 -0.71 C206.37 83.65, 206.75 169.77, 208.83 215.32 M208.53 215.43 C143.64 217.99, 80.99 215.85, 0.08 215.86 M207.98 215.16 C157.39 215.42, 104.9 215.66, -0.77 215.79 M-0.95 215.49 C0.93 139.97, 0.02 61.4, 1.19 -1.63 M0.41 216.72 C-0.2 140.05, -0.35 62.96, 0.43 -0.69" stroke="#000000" stroke-width="1" fill="none"></path></g><g transform="translate(560 182) rotate(0 68 12.5)"><text x="0" y="18" font-family="Virgil, Segoe UI Emoji" font-size="20px" fill="#000000" text-anchor="start" style="white-space: pre;" direction="ltr">Registradores</text></g><g transform="translate(478 335) rotate(0 20 12.5)"><text x="0" y="18" font-family="Virgil, Segoe UI Emoji" font-size="20px" fill="#000000" text-anchor="start" style="white-space: pre;" direction="ltr">x22</text></g><g transform="translate(554 336) rotate(0 21 12.5)"><text x="0" y="18" font-family="Virgil, Segoe UI Emoji" font-size="20px" fill="#000000" text-anchor="start" style="white-space: pre;" direction="ltr">200</text></g><g stroke-linecap="round"><g transform="translate(15 244) rotate(0 27.55851514923063 3.1120211099189987)"><path d="M0.56 0.99 C9.75 1.77, 46.56 5.18, 55.72 5.76 M-0.6 0.47 C8.46 1.38, 46.03 2.98, 55.33 3.77" stroke="#000000" stroke-width="1" fill="none"></path></g><g transform="translate(15 244) rotate(0 27.55851514923063 3.1120211099189987)"><path d="M30.64 13.33 C38.59 10.12, 45.67 6.94, 53.75 1.77 M29.23 11.49 C33.9 9.17, 39.2 8.18, 55.99 3.73" stroke="#000000" stroke-width="1" fill="none"></path></g><g transform="translate(15 244) rotate(0 27.55851514923063 3.1120211099189987)"><path d="M31.8 -5.42 C39.51 -2.03, 46.18 1.38, 53.75 1.77 M30.38 -7.26 C34.78 -5.59, 39.84 -2.59, 55.99 3.73" stroke="#000000" stroke-width="1" fill="none"></path></g></g><g transform="translate(137 155) rotate(0 37 12.5)"><text x="0" y="18" font-family="Virgil, Segoe UI Emoji" font-size="20px" fill="#000000" text-anchor="start" style="white-space: pre;" direction="ltr">memoria</text></g><g transform="translate(10 219) rotate(0 21 12.5)"><text x="0" y="18" font-family="Virgil, Segoe UI Emoji" font-size="20px" fill="#000000" text-anchor="start" style="white-space: pre;" direction="ltr">200</text></g><g stroke-linecap="round" transform="translate(89 226) rotate(0 65.5 18)"><path d="M0.62 0.02 C51.03 0.28, 99.13 -1.22, 131.86 1.48 M0.79 -0.1 C27.32 -1.1, 54.49 -1.2, 130.27 -0.59 M131.14 -0.96 C132.39 8.5, 132.78 14.55, 131 36.35 M130.36 0.71 C130.85 11.94, 130.01 23.99, 131.13 35.21 M132.65 36.35 C99.23 35.99, 64.48 35.85, 0.21 36.73 M131.27 35.95 C104.85 34.22, 77.59 34.42, -0.04 35.56 M1.82 36.25 C2 24.28, 2.01 9.61, 0.43 0.02 M-0.8 35.1 C-1.18 22.69, -0.87 9.4, 0.85 0.85" stroke="#000000" stroke-width="1" fill="none"></path></g><g stroke-linecap="round" transform="translate(87.5 258) rotate(0 65.5 18)"><path d="M-1.88 -0.34 C48.84 -1.41, 96.12 -1.2, 130.9 1.65 M-0.66 -0.04 C41.71 0.33, 82.26 0.95, 130.02 0.27 M131.71 -0.6 C131.17 9.73, 132.38 20.58, 132.52 37.82 M131.95 -0.39 C131.56 11.25, 132.09 23.37, 130.93 35.2 M129.9 36.89 C105.17 37.97, 74.73 38.14, -0.31 34.66 M131.84 35.6 C104.79 34.45, 78.12 34.71, 0.02 36.25 M1.34 37.2 C-0.81 24.38, -1.55 13.3, 1.68 1.25 M0.94 35.99 C0.28 27.88, 0.64 19.92, -0.67 -1" stroke="#000000" stroke-width="1" fill="none"></path></g><g stroke-linecap="round" transform="translate(84.25 296) rotate(0 65.5 18)"><path d="M-1.48 0.56 C40.86 1.09, 77.97 -0.65, 129.18 -0.55 M-0.93 -0.76 C51.27 1.03, 100.6 0.85, 131.31 -0.24 M131.28 -0.18 C131.86 6.87, 130.76 16.87, 130.43 37.05 M131.33 0.81 C131.77 9.29, 131.64 19.97, 131.7 36.6 M132.66 36.17 C96.89 38.28, 65.11 35.86, -0.99 36.91 M130.41 36.49 C90.36 36.61, 47.89 37.01, 0.93 36.18 M-0.93 34.94 C-1.87 23.82, -1.52 9.36, -0.07 0.39 M0.38 36.19 C-0.21 25.05, -0.83 13.53, -0.8 -0.01" stroke="#000000" stroke-width="1" fill="none"></path></g><g stroke-linecap="round" transform="translate(82.75 328) rotate(0 65.5 18)"><path d="M0.56 1.34 C43.72 -0.11, 84.5 -0.85, 130.45 1.68 M-0.76 0.94 C47.51 1.16, 94.84 1.52, 130.76 -0.67 M130.82 1.22 C129.5 7.33, 131.1 13.86, 132.05 35.53 M131.81 0.85 C130.6 10.7, 131.33 20.64, 131.6 35.49 M131.17 34.53 C97.05 36.48, 58.96 36.1, 0.91 36.31 M131.49 36.71 C104.48 34.81, 78.48 36.16, 0.18 36.52 M-1.06 34.29 C0.65 22.32, -1.14 11.3, 0.39 0.41 M0.19 36.07 C0.68 21.81, 0.68 7.93, -0.01 -0.26" stroke="#000000" stroke-width="1" fill="none"></path></g><g stroke-linecap="round" transform="translate(84.5 365) rotate(0 65.5 18)"><path d="M0 0 C0 0, 0 0, 0 0 M0 0 C0 0, 0 0, 0 0 M0.49 5.91 C0.18 4.33, 1.42 3.58, 5.41 -0.08 M0.09 6.1 C1.4 4.38, 2.4 3.43, 4.78 0.48 M0.23 12.85 C3.63 8.31, 7.86 1.53, 10.6 0.03 M0.26 12.21 C2.62 9.05, 5.8 5.44, 10.04 -0.15 M0.93 16.55 C3.14 12.86, 8.1 11.39, 16.49 0.77 M-1.12 18.62 C5.42 11.13, 11.94 5.32, 16.56 1.18 M1.6 24.99 C7.72 17.38, 14.62 7.45, 21.8 1.27 M1.27 24.78 C6.38 16.53, 13.48 10.53, 20.74 -0.93 M-0.38 30.3 C11.37 18.11, 19.36 8.71, 28.23 -0.25 M0.62 31.04 C5.71 23.74, 10.42 18.02, 26.88 0.25 M-0.73 34.74 C11.59 22.11, 24.41 6.93, 32.66 0.48 M0.54 37.12 C9.36 25.23, 17.73 15.08, 31.68 -1.03 M5.99 36.61 C15.16 28.25, 21.95 17.02, 36.14 1.6 M5.88 37.21 C17.1 25.56, 26.37 12.57, 37.8 0.14 M10.13 36.13 C21.85 24.95, 30.63 15.85, 43.37 -1.21 M11.2 35.21 C21.79 23.46, 34.33 10.37, 41.91 0.42 M15.73 37.07 C27.55 23.16, 37.53 8.64, 47.72 1.09 M16.1 35.78 C26.01 26.5, 33.81 15.44, 48.36 -0.6 M22.7 36.52 C30.26 27.18, 35.15 19.16, 54.74 -1.36 M22.06 35.45 C29.99 26.51, 37.96 16.61, 53.31 0.66 M27.9 36.68 C34.44 26.56, 39.49 20.68, 59.11 -1.61 M26.16 35.77 C37.95 24.2, 46.3 13.58, 58.31 0.92 M32.58 36.57 C43.94 23.1, 54.16 8.03, 64.21 -0.11 M33.11 36.45 C43.21 23, 55 10.01, 64.46 -0.8 M35.44 35.79 C46.72 26.03, 51.6 16.89, 67.05 -0.98 M36.91 36.46 C44.49 27.12, 50.74 19.41, 68.05 -0.12 M44.05 34.3 C51.5 25.21, 58.3 18.3, 73.84 -0.25 M43 35.15 C51.1 27.68, 58.05 18.79, 74.63 -0.11 M47.92 36.12 C56.55 23.68, 70.17 10.8, 80.92 1.89 M47.85 35.43 C56.87 25.68, 67.28 15.7, 78.7 -0.21 M53.97 37.11 C59.95 25.79, 67.98 18.14, 86.33 0.81 M53.1 36.81 C64.46 24.07, 77.03 9.8, 85.77 -1.11 M59.53 36.74 C64.44 29.38, 71.72 20.48, 90.73 -0.73 M59.18 36.6 C65.96 28.4, 71.75 21.9, 90.05 0.45 M63.84 37.79 C73.29 24.81, 86.16 11.37, 96.98 -0.95 M63.45 34.98 C75.07 23.72, 86.61 11.81, 96.52 0.68 M69.08 38.14 C79.03 25.98, 89.96 12.72, 99.09 0.81 M69.8 36.19 C79.1 25.85, 88.37 14.69, 100.59 -0.01 M75.8 34.49 C82.7 25.48, 88.58 17.11, 105.74 -0.21 M74.79 35.56 C85.42 23.44, 95.78 13.16, 106.2 0.03 M80.01 38.15 C89.34 26.68, 99.96 15.17, 113.27 1.56 M79.28 36.72 C90.72 24.71, 100.54 13.39, 111.48 0.85 M83.94 35.5 C95.17 21.35, 107.8 8.55, 116.52 -1.48 M83.88 37.46 C90.51 29.1, 96.7 21.42, 116.18 0.79 M92.39 36 C100.78 22.15, 111.92 11.95, 121.14 1.91 M89.88 37.06 C99.87 26.85, 107.53 16.21, 122.59 -0.21 M96.95 36.21 C107.69 25.26, 115.41 12.65, 127.82 1.82 M96.15 35.7 C106 24.25, 117.8 12.21, 126.47 0.86 M102.9 36.26 C111.53 26.3, 118.22 14.65, 130.54 0.4 M100.57 36.34 C107.45 30, 113.34 22.18, 131.81 0.62 M106.17 35.65 C112.64 31.35, 115.85 26.17, 130.89 6.69 M105.72 35.83 C114.53 27.62, 122.31 16.4, 131.9 7.5 M112.86 36.91 C117.89 26.17, 128.47 19.19, 133.41 14.74 M110.97 36.04 C118.34 28.56, 124.23 22.11, 131.18 13.27 M116.23 37.47 C121.69 32.72, 124.41 28.72, 133.48 18.48 M116.1 36.99 C121.72 28.99, 127.76 23.38, 131.85 19.25 M123.74 37 C124.74 33.89, 125.74 31.74, 133.06 25.81 M121.64 35.99 C126.23 31.84, 128.14 28.78, 132.39 24.29 M127.68 35.85 C129.09 34.84, 131.01 32.92, 131.67 31.5 M127.35 36.51 C128.58 34.91, 130.67 32.69, 131.82 31.17" stroke="#fa5252" stroke-width="0.5" fill="none"></path><path d="M-0.01 1.82 C42.86 0.27, 87.57 1.43, 130.66 1.99 M-0.41 0.41 C41.3 0.86, 82.62 1.41, 130.37 -0.48 M131.45 1.26 C131.16 14.2, 131.82 29.17, 131.95 37.44 M130.51 -0.12 C130.72 10.15, 130.32 19.25, 130.31 35.47 M131.26 37.94 C102.59 37.72, 73.43 38.07, 0.15 34.06 M131.34 36.29 C88.88 37.21, 47.09 35.62, -0.32 35.17 M-0.39 34.99 C0.75 25.89, -0.81 16.83, 0.3 -1.22 M0.18 35.72 C-0.48 28.36, -1.08 22.23, 0.61 0.39" stroke="#000000" stroke-width="1" fill="none"></path></g><g transform="translate(40 372) rotate(0 16 12.5)"><text x="0" y="18" font-family="Virgil, Segoe UI Emoji" font-size="20px" fill="#000000" text-anchor="start" style="white-space: pre;" direction="ltr">216</text></g><g transform="translate(494 242) rotate(0 12 12.5)"><text x="0" y="18" font-family="Virgil, Segoe UI Emoji" font-size="20px" fill="#000000" text-anchor="start" style="white-space: pre;" direction="ltr">x5</text></g><g stroke-linecap="round"><g transform="translate(174 388) rotate(0 203.52256652391048 -60.55139939934017)"><path d="M-0.95 0.54 C66.55 -19.88, 337.93 -101.33, 405.88 -121.64 M0.75 -0.22 C68.54 -20.57, 340.49 -100.45, 408 -120.44" stroke="#000000" stroke-width="1" fill="none"></path></g><g transform="translate(174 388) rotate(0 203.52256652391048 -60.55139939934017)"><path d="M384.76 -104.5 C391.57 -109.48, 401.04 -114.49, 409.4 -118.45 M384.62 -102.04 C393.23 -109.27, 401.85 -114.76, 407.36 -120.12" stroke="#000000" stroke-width="1" fill="none"></path></g><g transform="translate(174 388) rotate(0 203.52256652391048 -60.55139939934017)"><path d="M378.96 -124.18 C388.06 -121.85, 399.67 -119.59, 409.4 -118.45 M378.81 -121.72 C389.45 -121.87, 400.15 -120.3, 407.36 -120.12" stroke="#000000" stroke-width="1" fill="none"></path></g></g><g stroke-linecap="round" transform="translate(548 241) rotate(0 77.5 17)"><path d="M0 0 C0 0, 0 0, 0 0 M0 0 C0 0, 0 0, 0 0 M-0.29 6.57 C1.86 4.24, 2.84 3.42, 4.92 0.77 M0 6.6 C1.33 4.25, 3.27 1.71, 5.11 0.56 M1.11 12.71 C3.5 7.59, 7.94 3.92, 10.41 -0.88 M0.13 12.27 C2.36 9.48, 4.07 7.37, 11.35 -0.81 M-1.71 19.69 C3.79 12.9, 11.85 7.03, 14.46 0.14 M-0.47 18.16 C4.18 14.57, 6.71 9.65, 15.92 -0.23 M-1.3 23.78 C8 17.81, 13.27 9.96, 19.66 -1.25 M0.47 23.49 C7.39 15.88, 13.26 9.44, 20.78 -0.83 M1.54 31.76 C8.73 19.97, 18.95 9.09, 26.91 -1.34 M0.6 30.85 C6.98 23.36, 14.14 14.37, 26.29 0.51 M0.12 35.72 C9.84 22.85, 19.11 15.36, 30.65 -1.65 M0.35 36.29 C8.66 26.68, 16.19 18.88, 30.92 -0.77 M5.89 33.81 C13.37 26.99, 21.25 16.86, 35.26 -0.93 M6.14 34.54 C16.78 23.11, 26.73 11.42, 37.3 -0.16 M12.38 35.76 C22.88 23.31, 32.24 9.48, 42.1 1.14 M11.61 35.15 C19.14 26.44, 25.37 17.64, 42.55 0.74 M15.99 35.8 C29.75 22.82, 40.7 8.99, 45.98 0.13 M17.86 34.08 C24.33 25.2, 33.81 16.04, 48.18 1.17 M20.6 33.47 C30 28.77, 36.01 18.83, 54.17 -0.81 M21.38 35.07 C30.65 25.64, 40.61 15.42, 52.51 -0.02 M28.55 33.83 C37.59 22.9, 49.93 10.21, 58.9 1.22 M28.43 34.52 C35.51 25.13, 42.69 16.54, 58.47 0.61 M33.13 35.73 C42.97 20.71, 59.13 6.85, 64.38 1.18 M32.93 34.4 C39.74 27.72, 47.15 19.24, 64.02 -0.11 M37.61 36.07 C45.99 25.89, 54.6 15.1, 67.25 -1.67 M38.8 35.06 C46.64 25.8, 54.05 17.37, 68 0.95 M43.69 34.04 C52.83 22.58, 67.69 9.32, 75.63 0.44 M43.87 36.18 C52.88 22.44, 64.63 11.82, 74.56 0.1 M50.56 35.35 C61.46 20.71, 70.71 7.42, 77.61 0.1 M48.22 35.58 C55.63 26.04, 64.24 18.46, 78.94 -0.31 M55.37 36.52 C62.47 29.49, 67.14 19.31, 84.22 -1.1 M54.1 36.15 C65.91 20.26, 79.69 7.4, 85.95 -1.04 M60.2 33.1 C69.18 23.41, 81.83 10.86, 89.95 -0.23 M60.25 34.67 C66.06 26.94, 73.37 17.67, 89.75 0.99 M64.63 35.94 C72.49 26.11, 83.74 15.22, 95.78 -0.87 M63.84 34.74 C71.45 26.31, 79.86 18.46, 96.31 -0.53 M68.67 35.4 C79.16 24.75, 87.31 15.78, 101.62 -0.77 M70.77 35.6 C81.76 20.72, 93.88 7.56, 101.22 -0.3 M77.31 33.66 C80.2 28.92, 88.76 18.55, 105.36 0.31 M75.62 35.05 C86.37 21.23, 97.51 9.28, 106.1 -0.66 M78.84 33.68 C92.43 21.65, 104.74 10.4, 111.33 0.96 M81.31 35.05 C88.92 24.63, 98.69 13.97, 110.44 -0.62 M84.64 35.69 C94.87 25.69, 106.85 12.82, 116.69 -0.98 M86.29 34.87 C96.19 21.88, 106.78 11.65, 115.39 -0.29 M92.94 33.74 C99.14 26.58, 106.89 15.15, 123.18 0.12 M91.69 36.18 C102.37 21.77, 115.11 7.01, 122.82 0.26 M95.2 36.65 C107.17 23.2, 113 15.12, 128.88 2.18 M97.01 34.69 C104.45 26.88, 110.99 19.62, 126.56 0.15 M100.59 36.29 C110.71 21.97, 123.79 13.42, 130.62 0.43 M102.05 35.05 C108.54 28.63, 114.19 20.2, 132.08 -0.74 M106.97 35.8 C113.55 26.23, 120.67 21.9, 136.41 -0.38 M107.24 35.68 C116.9 22.93, 127.01 10.88, 138.35 1.17 M113.43 33.89 C121.22 24.87, 126.39 15.61, 144.5 -1.72 M111.53 35.68 C123.53 23.8, 133.34 11.54, 142.24 -0.02 M119.27 33.02 C128.82 25.08, 136.8 11.01, 147.83 1.02 M118.77 35.7 C124.29 27.5, 130.85 19.06, 148.42 1.23 M124.51 35.72 C131.15 27.72, 137.36 20.22, 153.04 -1.32 M123.57 34.78 C130.05 26.47, 139.73 17.78, 153.67 0.73 M128.84 36.8 C134.66 27.19, 139.71 20.39, 155.71 2.2 M127.69 35.29 C138.77 22.36, 149.7 10.43, 157.48 0.99 M132.21 35.61 C137.65 28.97, 141.33 23.44, 158.62 7.55 M133.91 35.74 C139.77 27.83, 146.16 19.21, 157.78 8.79 M137.76 36.27 C144.38 32.49, 146.92 25.37, 158.81 15.93 M138.41 35.69 C143.98 30.16, 148.89 23.89, 157.3 14.06 M144.33 35.98 C147.72 31.17, 151.1 26.9, 156.13 18.61 M144.63 34.63 C147.34 31.95, 150.17 27.18, 157.5 19.3 M149.67 33.95 C153.23 31.56, 153.7 30.14, 156.65 26.09 M149.75 34.85 C151.68 32.51, 154.55 29.82, 157.05 26.76" stroke="#fa5252" stroke-width="0.5" fill="none"></path><path d="M-1.28 0.11 C47.35 1.28, 95.34 -0.21, 153.6 0.81 M0.76 -0.19 C57.79 -1.34, 114.86 -0.76, 154.57 0.2 M155.07 -1.7 C156.2 13.49, 156.23 25.18, 155.73 35.39 M154.94 -0.84 C154.9 8.01, 155.79 13.76, 154.5 34.69 M156.51 35.11 C100.86 32.29, 43.57 34.34, -0.84 33.81 M154.15 34.75 C99.86 34.2, 45.51 33.88, -0.28 33.36 M1.52 35.14 C1.6 21.02, -1.6 9.86, -0.09 0.52 M-0.14 34.23 C-0.15 26.74, 0.87 19.23, -0.52 -0.62" stroke="#000000" stroke-width="1" fill="none"></path></g><g transform="translate(164 10) rotate(0 295 12.5)"><text x="0" y="18" font-family="Virgil, Segoe UI Emoji" font-size="20px" fill="#000000" text-anchor="start" style="white-space: pre;" direction="ltr">imediato             addi x22,x22,8   #  x22 = x22 + 8</text></g></svg>