<svg version="1.1" xmlns="http://www.w3.org/2000/svg" viewBox="0 0 884 551" width="884" height="551">
  <!-- svg-source:excalidraw -->
  
  <defs>
    <style>
      @font-face {
        font-family: "Virgil";
        src: url("https://excalidraw.com/Virgil.woff2");
      }
      @font-face {
        font-family: "Cascadia";
        src: url("https://excalidraw.com/Cascadia.woff2");
      }
    </style>
  </defs>
  <rect x="0" y="0" width="884" height="551" fill="#ffffff"></rect><g transform="translate(192 104) rotate(0 237.5 37.5)"><text x="0" y="18" font-family="Virgil, Segoe UI Emoji" font-size="20px" fill="#000000" text-anchor="start" style="white-space: pre;" direction="ltr">Programação Assembler (linguagem de montagem)</text><text x="0" y="43" font-family="Virgil, Segoe UI Emoji" font-size="20px" fill="#000000" text-anchor="start" style="white-space: pre;" direction="ltr"></text><text x="0" y="68" font-family="Virgil, Segoe UI Emoji" font-size="20px" fill="#000000" text-anchor="start" style="white-space: pre;" direction="ltr">add x1,x2,x3   #  x1 = x2 + x3 </text></g><g stroke-linecap="round" transform="translate(580 155) rotate(0 125.5 20)"><path d="M-1.17 -0.08 C56.78 -1.8, 109.82 -1.41, 251.4 1.32 M0.4 0.07 C88.7 1.73, 178.57 2.13, 251.31 -0.6 M251.41 0.66 C252.63 8.69, 252.4 18.18, 250.94 39.07 M251.04 -0.28 C250.68 10.58, 249.96 19.34, 251.35 40.62 M251.08 40.59 C180.73 42.39, 112.48 42.08, -0.82 38.56 M251.45 39.81 C154.55 42.24, 58.69 41.61, -0.1 40.5 M-0.22 41.76 C0.04 27.11, 0.85 17.26, -1.18 1.15 M-0.22 39.21 C0.51 29.14, -1.03 19.35, 0.78 -0.53" stroke="#000000" stroke-width="1" fill="none"></path></g><g transform="translate(586 165) rotate(0 113.5 12.5)"><text x="0" y="18" font-family="Virgil, Segoe UI Emoji" font-size="20px" fill="#000000" text-anchor="start" style="white-space: pre;" direction="ltr">100101 101010 101010 101</text></g><g transform="translate(600 210) rotate(0 109.5 12.5)"><text x="0" y="18" font-family="Virgil, Segoe UI Emoji" font-size="20px" fill="#000000" text-anchor="start" style="white-space: pre;" direction="ltr">Formato de Instrução</text></g><g stroke-linecap="round" transform="translate(145 244) rotate(0 77.5 74)"><path d="M0.08 1.55 C58.5 0.27, 117.3 1.28, 153.81 0.65 M-0.93 0.57 C50.43 -1.54, 101.65 -1.73, 154.59 0.79 M154.13 0.59 C154.49 60.12, 152.52 118.45, 153.36 148.22 M155.7 0.95 C155.96 52.27, 154.13 104, 154.93 147.35 M156.48 149.6 C123.74 148.13, 86.8 146.38, 0.64 146.81 M155.54 147.11 C96.02 147.11, 38.57 148.07, 0.58 148.95 M1.19 147.85 C1.28 118.4, 0.41 84, -1.43 -0.5 M0.77 148.07 C0.54 110.47, 1.55 70.54, -0.29 0.29" stroke="#000000" stroke-width="1" fill="none"></path></g><g transform="translate(164 224) rotate(0 62.5 75)"><text x="0" y="18" font-family="Virgil, Segoe UI Emoji" font-size="20px" fill="#000000" text-anchor="start" style="white-space: pre;" direction="ltr">Memória</text><text x="0" y="43" font-family="Virgil, Segoe UI Emoji" font-size="20px" fill="#000000" text-anchor="start" style="white-space: pre;" direction="ltr">101001 100101</text><text x="0" y="68" font-family="Virgil, Segoe UI Emoji" font-size="20px" fill="#000000" text-anchor="start" style="white-space: pre;" direction="ltr">1010010101 10</text><text x="0" y="93" font-family="Virgil, Segoe UI Emoji" font-size="20px" fill="#000000" text-anchor="start" style="white-space: pre;" direction="ltr">1010001 0101</text><text x="0" y="118" font-family="Virgil, Segoe UI Emoji" font-size="20px" fill="#000000" text-anchor="start" style="white-space: pre;" direction="ltr">0101001 1010</text><text x="0" y="143" font-family="Virgil, Segoe UI Emoji" font-size="20px" fill="#000000" text-anchor="start" style="white-space: pre;" direction="ltr">101001 1010 1</text></g><g stroke-linecap="round" transform="translate(144.5 393) rotate(0 77.5 74)"><path d="M0.02 1.48 C59.62 2.23, 123.29 -0.06, 153.34 -1.6 M-0.21 -0.08 C59 1.2, 118.85 1.24, 155.93 -0.62 M154.41 0.16 C153.21 40.79, 153.53 81.86, 153.91 146.88 M155.94 0.86 C155.4 47.42, 155.53 95.24, 154.89 148.92 M154.09 148.48 C108.55 148.57, 61.52 149.38, -1.17 149.58 M154.95 147.35 C111.67 148.57, 68.08 148.46, -0.84 148.31 M1.43 147.55 C0.86 96.86, 0.28 47.59, 0.58 -1.91 M-0.5 147.79 C-0.85 105.73, -1.09 65.46, 0.8 0.3" stroke="#000000" stroke-width="1" fill="none"></path></g><g transform="translate(160 417) rotate(0 55 50)"><text x="0" y="18" font-family="Virgil, Segoe UI Emoji" font-size="20px" fill="#000000" text-anchor="start" style="white-space: pre;" direction="ltr">0010101001</text><text x="0" y="43" font-family="Virgil, Segoe UI Emoji" font-size="20px" fill="#000000" text-anchor="start" style="white-space: pre;" direction="ltr">0101001010</text><text x="0" y="68" font-family="Virgil, Segoe UI Emoji" font-size="20px" fill="#000000" text-anchor="start" style="white-space: pre;" direction="ltr">1010100100</text><text x="0" y="93" font-family="Virgil, Segoe UI Emoji" font-size="20px" fill="#000000" text-anchor="start" style="white-space: pre;" direction="ltr">10101001001</text></g><g transform="translate(23 279) rotate(0 52.5 12.5)"><text x="0" y="18" font-family="Virgil, Segoe UI Emoji" font-size="20px" fill="#000000" text-anchor="start" style="white-space: pre;" direction="ltr">Instruções</text></g><g transform="translate(49 457) rotate(0 31 12.5)"><text x="0" y="18" font-family="Virgil, Segoe UI Emoji" font-size="20px" fill="#000000" text-anchor="start" style="white-space: pre;" direction="ltr">Dados</text></g><g stroke-linecap="round" transform="translate(401 282) rotate(0 236.5 116)"><path d="M0.77 -0.21 C157.71 2.17, 317.55 1.9, 472.83 0.51 M-0.4 0.23 C157.75 -0.59, 315.9 -0.66, 472.86 -0.01 M472.8 -0.5 C473.09 87.2, 472.69 174.33, 471.54 233.16 M473.8 -0.06 C473.37 82.09, 473.83 165.51, 472.19 231.8 M472.92 231.94 C337.34 230.98, 201.73 230.9, 0.73 231.21 M472.95 231.56 C354.36 231.25, 234.85 231.54, 0.15 232.27 M0.52 231.85 C-0.44 144.52, 0.51 54.69, 1.5 -0.08 M-0.7 231.65 C-1.77 183.68, -1.14 136.78, -0.4 -0.63" stroke="#000000" stroke-width="1" fill="none"></path></g><g transform="translate(475 317) rotate(0 40 12.5)"><text x="0" y="18" font-family="Virgil, Segoe UI Emoji" font-size="20px" fill="#000000" text-anchor="start" style="white-space: pre;" direction="ltr">Controle</text></g><g stroke-linecap="round" transform="translate(462 292) rotate(0 68 34)"><path d="M1.19 -0.24 C34.76 2.42, 73.2 2.55, 137.61 0.78 M0.2 0.49 C51.58 -0.29, 102.52 0.07, 135.05 0.54 M134.32 -1.6 C135.24 25.34, 134.5 48.85, 135.1 67.13 M136.37 0.31 C135.45 16.3, 135.5 32.35, 135.16 67.65 M134.07 67.55 C98.67 66.97, 58 67.54, -0.27 68.77 M135.95 67.31 C101.73 69.27, 68.16 69.05, -0.92 68.8 M1.04 66.56 C-1.52 55.35, -0.04 38.55, 0.38 0.15 M-0.84 68.96 C0.53 44.59, 0.28 21.03, 0.46 -0.68" stroke="#000000" stroke-width="1" fill="none"></path></g><g stroke-linecap="round" transform="translate(560 378) rotate(0 58 55.5)"><path d="M0.73 0.62 C28.35 0.44, 56.63 -0.5, 114.32 -0.69 M-0.97 -0.22 C33.81 -1.24, 65.95 -0.95, 115.86 0.38 M115.89 -1.37 C114.5 28.34, 114.48 55.28, 114.16 112.6 M116.52 -0.72 C116.53 23.49, 117.28 44.91, 116.19 111.08 M114.32 112.91 C76.81 111.33, 36.59 110.78, 0.93 109.64 M115.6 110.91 C81.42 110.96, 45.08 111.61, 0.51 111.51 M-0.76 111.22 C-1.46 77.76, -0.45 45.33, 0.95 -0.31 M0.77 110.51 C1.34 85.08, 0.86 59.47, -0.77 -0.66" stroke="#000000" stroke-width="1" fill="none"></path></g><g transform="translate(568 383) rotate(0 46 50)"><text x="0" y="18" font-family="Virgil, Segoe UI Emoji" font-size="20px" fill="#000000" text-anchor="start" style="white-space: pre;" direction="ltr">Registros</text><text x="0" y="43" font-family="Virgil, Segoe UI Emoji" font-size="20px" fill="#000000" text-anchor="start" style="white-space: pre;" direction="ltr">x1</text><text x="0" y="68" font-family="Virgil, Segoe UI Emoji" font-size="20px" fill="#000000" text-anchor="start" style="white-space: pre;" direction="ltr">x2</text><text x="0" y="93" font-family="Virgil, Segoe UI Emoji" font-size="20px" fill="#000000" text-anchor="start" style="white-space: pre;" direction="ltr">x3</text></g><g stroke-linecap="round" transform="translate(615 407) rotate(0 26 12.5)"><path d="M1.3 1.07 C18.37 1.73, 35.27 -0.25, 50.86 1.83 M-0.08 0.48 C12.02 0.44, 26.25 -0.75, 51.13 0.36 M51.2 0.49 C53.46 8.28, 52.68 16.13, 50.77 25.08 M51.8 -0.25 C51.44 6.76, 51.17 15.29, 52.66 24.57 M51.55 25.12 C30.82 24.86, 10.41 24.97, -0.03 27 M51.84 24.43 C33.11 25.51, 15.28 25.89, -0.89 24.19 M0.77 23.49 C-1.61 17.15, 1.25 12.09, -0.85 -0.76 M0.87 24.89 C-0.36 18.27, -1.11 11.23, -0.29 0.47" stroke="#000000" stroke-width="1" fill="none"></path></g><g stroke-linecap="round" transform="translate(616 430.5) rotate(0 26 12.5)"><path d="M-1.23 0.08 C14.67 1.44, 28.53 -0.14, 51.5 -1.42 M0.66 -0.43 C13.62 -1.15, 24.42 -0.56, 52.06 -0.36 M51.97 2 C53.04 9.13, 51.63 15.55, 50.86 24.26 M51.11 -0.81 C51.46 8.47, 52.19 18.3, 51.24 24.14 M51.15 24.24 C40.99 26.67, 31.25 26.47, -0.23 24.76 M51.71 25.47 C34.96 25.21, 17.1 24.44, 0.59 25.16 M-1.92 23.75 C-1.62 17.74, 1.6 6.77, -0.22 -1.4 M0.23 25.96 C-1.07 18.66, -0.93 11.46, -0.46 -0.11" stroke="#000000" stroke-width="1" fill="none"></path></g><g stroke-linecap="round" transform="translate(615 455.5) rotate(0 26 12.5)"><path d="M1.32 -0.86 C14.56 -1.97, 23.48 -0.78, 52.12 -0.71 M-0.01 1 C17.07 0.48, 32.86 -0.28, 51.43 -0.37 M50.21 -1.62 C50.83 7.98, 52.3 18.69, 50.49 23.27 M51.57 -0.38 C51.95 6.08, 52.39 11.09, 51.89 24.88 M51.42 25.95 C35.01 25.28, 16.37 23.75, 1.19 25.32 M51.04 24.37 C32.16 25.48, 14.63 24.59, -0.11 24.3 M0.47 26.92 C-1.92 19.07, -1.63 11.43, -0.91 -0.21 M0.7 25.49 C0.84 19.2, 0.89 13.57, -0.49 0.06" stroke="#000000" stroke-width="1" fill="none"></path></g><g transform="translate(718 416) rotate(0 19.5 12.5)"><text x="0" y="18" font-family="Virgil, Segoe UI Emoji" font-size="20px" fill="#000000" text-anchor="start" style="white-space: pre;" direction="ltr">ALU</text></g><g stroke-linecap="round"><g transform="translate(712 391) rotate(0 0.059688152046874166 46.21280293510759)"><path d="M-0.51 -0.45 C-0.66 15.34, -0.37 78.41, -0.23 94.16 M1.42 -1.74 C1.03 13.81, -1.01 76.99, -1.3 92.65" stroke="#000000" stroke-width="1" fill="none"></path></g></g><g stroke-linecap="round"><g transform="translate(719 481) rotate(0 21.677570993215795 -17.01058648122938)"><path d="M-0.04 -0.55 C7.36 -6.37, 37.43 -30.07, 44.87 -35.8 M-1.52 1.78 C5.67 -3.84, 36.33 -28.79, 43.86 -34.68" stroke="#000000" stroke-width="1" fill="none"></path></g></g><g stroke-linecap="round"><g transform="translate(766 446) rotate(0 0.5279305472970464 -16.96455142647028)"><path d="M-0.78 -0.13 C-0.47 -5.78, 1.33 -28.18, 1.83 -33.8 M1.02 -1.24 C1.15 -6.77, 0.7 -27.39, 0.8 -32.68" stroke="#000000" stroke-width="1" fill="none"></path></g></g><g stroke-linecap="round"><g transform="translate(762 409) rotate(0 -24.638999270177464 -13.358395914533162)"><path d="M-0.51 -0.33 C-9.03 -4.57, -42.38 -20.49, -50.7 -24.52 M1.42 -1.55 C-6.74 -6.23, -39.54 -22.22, -48.35 -26.39" stroke="#000000" stroke-width="1" fill="none"></path></g></g><g stroke-linecap="round"><g transform="translate(692 414) rotate(0 9.315817977488052 -0.5275035223803286)"><path d="M-0.72 -0.46 C2.6 -0.43, 15.95 0.62, 19.35 0.76 M1.1 -1.74 C4.35 -2.11, 15.56 -0.96, 18.59 -0.97" stroke="#000000" stroke-width="1" fill="none"></path></g><g transform="translate(692 414) rotate(0 9.315817977488052 -0.5275035223803286)"><path d="M9.14 2.09 C12.36 1.72, 14.33 0.46, 17.89 -0.73 M9.44 1.82 C11.69 1.46, 13.94 0.15, 18.6 -0.87" stroke="#000000" stroke-width="1" fill="none"></path></g><g transform="translate(692 414) rotate(0 9.315817977488052 -0.5275035223803286)"><path d="M9.48 -4.4 C12.65 -3.15, 14.54 -2.78, 17.89 -0.73 M9.78 -4.67 C11.93 -3.54, 14.11 -3.37, 18.6 -0.87" stroke="#000000" stroke-width="1" fill="none"></path></g></g><g stroke-linecap="round"><g transform="translate(694 463) rotate(0 7.232714997553273 0.5151433553832305)"><path d="M0.02 0.24 C2.52 0.55, 13.53 1.57, 15.89 1.7 M-1.43 -0.67 C0.91 -0.69, 12.4 -0.55, 15.42 -0.05" stroke="#000000" stroke-width="1" fill="none"></path></g><g transform="translate(694 463) rotate(0 7.232714997553273 0.5151433553832305)"><path d="M8.32 2.51 C11.33 0.69, 13.63 0.6, 14.84 -0.56 M7.96 1.93 C9.84 1.5, 11.7 0.81, 15.69 0.1" stroke="#000000" stroke-width="1" fill="none"></path></g><g transform="translate(694 463) rotate(0 7.232714997553273 0.5151433553832305)"><path d="M8.73 -2.61 C11.58 -2.51, 13.72 -0.67, 14.84 -0.56 M8.37 -3.19 C10.13 -2.44, 11.89 -1.94, 15.69 0.1" stroke="#000000" stroke-width="1" fill="none"></path></g></g><g stroke-linecap="round"><g transform="translate(770 427) rotate(0 13.558219257020369 0.17979473652596312)"><path d="M0.44 1.12 C5.18 1.26, 23.35 1.22, 27.9 0.85 M-0.78 0.66 C3.83 0.48, 22.3 -0.66, 26.9 -0.83" stroke="#000000" stroke-width="1" fill="none"></path></g></g><g stroke-linecap="round"><g transform="translate(801 426) rotate(0 -1.477170263654557 -34.75604138225316)"><path d="M-0.11 0.71 C-0.65 -11.09, -1.85 -58.63, -2.27 -70.22 M-1.63 0.04 C-2.34 -11.63, -2.57 -57.03, -2.84 -68.8" stroke="#000000" stroke-width="1" fill="none"></path></g></g><g stroke-linecap="round"><g transform="translate(797 351) rotate(0 -73.40169976751321 -0.07237889538055242)"><path d="M-0.88 0.63 C-25.53 0.59, -122.77 0.74, -147.16 0.78 M0.87 -0.09 C-23.94 0.05, -122.93 -0.78, -147.67 -0.93" stroke="#000000" stroke-width="1" fill="none"></path></g></g><g stroke-linecap="round"><g transform="translate(650 350) rotate(0 -0.5346223128121323 15.996338245449579)"><path d="M-0.37 1.11 C-0.73 6.02, -1.73 25.08, -1.84 29.87 M1.63 0.65 C1.1 5.71, -2.22 26.26, -2.7 31.34" stroke="#000000" stroke-width="1" fill="none"></path></g><g transform="translate(650 350) rotate(0 -0.5346223128121323 15.996338245449579)"><path d="M-4.55 16.86 C-4.99 22.7, -3.92 26.17, -3.02 30.24 M-6.24 15.94 C-4.97 20.31, -3.85 25.63, -3.12 31.22" stroke="#000000" stroke-width="1" fill="none"></path></g><g transform="translate(650 350) rotate(0 -0.5346223128121323 15.996338245449579)"><path d="M5.65 18.21 C1.86 23.58, -0.4 26.61, -3.02 30.24 M3.95 17.29 C2.18 21.24, 0.28 26.16, -3.12 31.22" stroke="#000000" stroke-width="1" fill="none"></path></g></g><g stroke-linecap="round" transform="translate(10 10) rotate(0 74.5 65)"><path d="M-1.53 0.15 C45.12 1.66, 89.91 -0.09, 149.85 -0.75 M-0.08 0.65 C42.47 1.96, 85.42 0.36, 148.57 -0.99 M147.88 -1.88 C148.65 42.63, 147.21 87.9, 148.7 130.84 M149.24 0.81 C148.75 34.01, 150.15 66.18, 149.93 129.13 M149.63 130.41 C116.58 129.63, 84.89 130.54, 1.98 131.86 M149.93 130.46 C98.68 129.17, 46.86 128.52, 0.62 129.1 M1.71 131.87 C1.14 89.67, -1.72 46.95, -1.32 -0.49 M-0.65 130.47 C1.35 102.1, 0.68 72.38, -0.98 0.08" stroke="#000000" stroke-width="1" fill="none"></path></g><g stroke-linecap="round" transform="translate(36 56) rotate(0 45.5 25)"><path d="M1.71 1.87 C30.56 2.06, 57.28 1.6, 89.68 -0.49 M-0.65 0.47 C20.91 0.54, 40.32 -0.52, 90.02 0.08 M89.18 -0.34 C90.87 13.16, 91.49 30.04, 89.64 51.56 M91.86 0.53 C91.07 16.08, 91.74 31, 91.68 49.88 M92.93 49.48 C60.57 51.06, 31.7 50.79, -1.72 50.53 M90.99 49.99 C63.22 49.81, 34.51 51.11, -0.58 49.86 M-1.54 51.8 C2.13 37.29, 1.6 24.24, -0.63 0.03 M-0.5 50.73 C0.02 29.5, 0.25 10.26, -0.56 -0.2" stroke="#000000" stroke-width="1" fill="none"></path></g><g transform="translate(54 18) rotate(0 24.5 12.5)"><text x="0" y="18" font-family="Virgil, Segoe UI Emoji" font-size="20px" fill="#000000" text-anchor="start" style="white-space: pre;" direction="ltr">CISC</text></g><g transform="translate(57 66) rotate(0 19.5 12.5)"><text x="0" y="18" font-family="Virgil, Segoe UI Emoji" font-size="20px" fill="#000000" text-anchor="start" style="white-space: pre;" direction="ltr">Risc</text></g><g transform="translate(27 192) rotate(0 87 12.5)"><text x="0" y="18" font-family="Virgil, Segoe UI Emoji" font-size="20px" fill="#000000" text-anchor="start" style="white-space: pre;" direction="ltr">John von Neumann</text></g><g transform="translate(410 253) rotate(0 99 12.5)"><text x="0" y="18" font-family="Virgil, Segoe UI Emoji" font-size="20px" fill="#000000" text-anchor="start" style="white-space: pre;" direction="ltr">Processador RISC-V</text></g></svg>