<svg version="1.1" xmlns="http://www.w3.org/2000/svg" viewBox="0 0 788 266" width="788" height="266">
  <!-- svg-source:excalidraw -->
  
  <defs>
    <style>
      @font-face {
        font-family: "Virgil";
        src: url("https://excalidraw.com/Virgil.woff2");
      }
      @font-face {
        font-family: "Cascadia";
        src: url("https://excalidraw.com/Cascadia.woff2");
      }
    </style>
  </defs>
  <rect x="0" y="0" width="788" height="266" fill="#ffffff"></rect><g stroke-linecap="round" transform="translate(15 51) rotate(0 30 28.5)"><path d="M-0.28 0.21 C12.74 0.55, 30.19 1.59, 59.31 -0.74 M0.49 0.46 C19.39 1.24, 38.43 0.13, 60.17 0.87 M61.92 -1.89 C60.71 12.59, 58.57 25.77, 61.13 58.3 M60.93 0.45 C60.52 22.4, 60.57 44.04, 60.05 56.51 M61.06 55.93 C35.68 56.22, 14.87 56.08, -1.98 55.69 M59.63 57.85 C36.66 56.57, 13.95 56.83, -0.27 56.26 M-0.87 57.76 C0.44 39.74, -1.54 22.16, -1.41 0.9 M0.44 56.27 C-0.9 35.87, -0.5 13.1, 0.74 -0.96" stroke="#000000" stroke-width="1" fill="none"></path></g><g stroke-linecap="round" transform="translate(85 49.5) rotate(0 30 28.5)"><path d="M1.27 -0.25 C24.33 -2.26, 46.02 -1.24, 61.76 1.83 M-0.51 -0.54 C21.79 -0.29, 41.14 -0.33, 60.9 0.6 M60.13 -1.8 C61.31 20.28, 59.25 41.64, 60.38 57.49 M60.29 0.47 C59.05 20.99, 59.04 40.88, 60.77 56.83 M58 57.74 C40.47 54.77, 24.81 54.64, -1.43 56.12 M60.93 57.73 C38.63 57.03, 18.56 57.31, 0.11 57.96 M0.09 58.11 C-0.08 35.34, 1.96 16.74, 0.9 -1.93 M0.47 57.22 C-0.86 43.77, 0.62 31.43, -0.71 -0.34" stroke="#000000" stroke-width="1" fill="none"></path></g><g stroke-linecap="round" transform="translate(159 48.5) rotate(0 30 28.5)"><path d="M1.69 0.13 C19.82 1.74, 41.96 -0.32, 58.52 0.38 M0.38 0.29 C19.93 -0.44, 39.7 -0.44, 60.45 0.77 M58.55 -2 C60.78 14.95, 58.24 33.76, 58.08 55.57 M59.03 0.93 C61.01 14.19, 60.89 29.69, 60.89 57.11 M60.31 57.09 C37.34 56.24, 11.51 58.29, 1.16 57.9 M60.84 57.47 C48.01 56.16, 35.02 57.64, -0.24 56.29 M1.44 56.99 C-0.97 40.38, 1.88 26.38, 0.88 0.35 M-0.58 57.76 C-0.76 42.06, 0.11 27.04, 0.36 -0.53" stroke="#000000" stroke-width="1" fill="none"></path></g><g stroke-linecap="round" transform="translate(237 47.5) rotate(0 30 28.5)"><path d="M-1.15 0.31 C18.78 0.73, 36.96 -1.32, 61.63 1.16 M0.02 0.84 C21.17 0.69, 40.55 -0.1, 60.63 -0.24 M61.59 1.44 C59.8 11.67, 58.38 27.56, 59.75 57.88 M59.47 -0.58 C60.56 17.21, 60.02 36.17, 60.34 57.36 M61.97 55.04 C44.87 55.13, 29.26 56.18, 0.07 56.94 M60.46 57.56 C47.71 56.37, 34.38 55.78, -0.78 57.18 M1.19 56.84 C1.78 34.99, 0.21 15.68, -0.85 -1.3 M0.02 57.24 C-1.1 39.66, -0.03 21, -0.4 0.89" stroke="#000000" stroke-width="1" fill="none"></path></g><g stroke-linecap="round" transform="translate(321 46.5) rotate(0 30 28.5)"><path d="M1.19 -0.16 C23.25 -1.44, 43.49 -0.03, 59.15 -1.3 M0.02 0.24 C18.11 1.05, 38.18 0.45, 59.6 0.89 M60.84 -1.83 C60.46 14.87, 61.91 30.47, 61.98 56.13 M60.03 0.63 C61.21 19.71, 59.99 38.12, 60.69 57.33 M58.89 55.03 C40.84 56.94, 24.46 57.07, 1.89 57.83 M59.15 57.09 C35.9 57.38, 13.7 57.34, 0.45 57.57 M1.67 58.99 C0.3 37.78, -0.41 20.11, 0.6 1.02 M0.87 56.17 C-0.12 44.18, 0.08 31.4, -0.31 -0.18" stroke="#000000" stroke-width="1" fill="none"></path></g><g stroke-linecap="round" transform="translate(395 45.5) rotate(0 30 28.5)"><path d="M-0.16 1.44 C13.12 -0.48, 28.94 -1.2, 58.7 0.33 M0.24 -0.89 C20.85 0.16, 40.38 -0.41, 60.89 -0.4 M58.17 0.05 C60.16 22.67, 60.98 44.33, 59.13 57.67 M60.63 0.95 C60.44 19.49, 59.84 40.21, 60.33 56.96 M58.03 55.58 C41.32 56.61, 22.54 58.56, 0.83 58.74 M60.09 56.11 C43.86 56.62, 27.06 56.94, 0.57 57.14 M1.99 57.49 C-0.78 37.82, -0.53 19.67, 1.02 -1.63 M-0.83 56.53 C-0.05 43.11, -0.38 29.44, -0.18 -0.61" stroke="#000000" stroke-width="1" fill="none"></path></g><g stroke-linecap="round" transform="translate(473 44.5) rotate(0 30 28.5)"><path d="M1.44 -1.29 C19.33 0.17, 38.06 -1.25, 60.33 0.71 M-0.89 0.71 C14.7 -0.04, 28.65 0.75, 59.6 0.71 M60.05 0.08 C61.74 18.84, 62.22 35.04, 60.67 57.93 M60.95 0.69 C59.75 14.69, 60.7 29.54, 59.96 57.15 M58.58 57.25 C45.06 56.79, 32.13 57.24, 1.74 56.59 M59.11 57.63 C44.67 57.65, 29.54 57.62, 0.14 57.33 M0.49 55.7 C-0.7 44.01, 0.12 34.14, -1.63 -1.22 M-0.47 56.63 C-0.76 42.36, -0.81 28.95, -0.61 0.03" stroke="#000000" stroke-width="1" fill="none"></path></g><g stroke-linecap="round" transform="translate(566 42.5) rotate(0 30 28.5)"><path d="M0.9 -1.21 C17.67 -0.61, 38.62 0.43, 61.14 -0.32 M0.35 -0.32 C21.61 -0.82, 41.54 0.03, 60.83 0.06 M59.79 0.37 C61.67 9.9, 59.83 22.44, 60.02 55.47 M59.09 0.57 C60.79 16.15, 59.88 32.36, 60.23 57.17 M60.16 57.29 C38.91 55.55, 16.73 54.99, -0.12 57.65 M60.98 56.51 C36.75 56.02, 11.93 57.52, 0.63 56.71 M-1.66 57.25 C0.87 38.03, -0.52 16.81, -0.31 -0.68 M-0.31 56.31 C-0.55 41.07, 0.67 25.78, -0.62 0.79" stroke="#000000" stroke-width="1" fill="none"></path></g><g stroke-linecap="round" transform="translate(640 41.5) rotate(0 30 28.5)"><path d="M-1.21 -1.16 C19.92 0.68, 41.64 0.87, 59.68 0.9 M-0.32 0.9 C22.51 -0.1, 46.29 0.62, 60.06 -0.93 M60.37 1.64 C58.12 17.25, 58.84 34.94, 58.47 56.71 M60.57 0.98 C59.85 15.35, 59.8 30.83, 60.17 57.59 M60.29 57.45 C38.16 56.86, 16.85 56.92, 0.65 58.91 M59.51 57.46 C46.62 56.94, 35.35 58.22, -0.29 57.42 M0.25 57.51 C0.5 42.62, -1.2 29.7, -0.68 -0.65 M-0.69 56.59 C-0.36 39.24, -0.41 19.23, 0.79 0.49" stroke="#000000" stroke-width="1" fill="none"></path></g><g stroke-linecap="round" transform="translate(718 40.5) rotate(0 30 28.5)"><path d="M-1.16 -0.76 C17.4 0.63, 34.03 0.04, 60.9 1.64 M0.9 -0.41 C22.28 0.64, 45.17 0.26, 59.07 0.06 M61.64 -1.91 C59.73 16.24, 59.96 33.34, 59.71 56.37 M60.98 -0.11 C59.54 16.56, 59.71 33.61, 60.59 57.46 M60.45 55.91 C45.37 55.43, 30.99 57.74, 1.91 55.26 M60.46 56.38 C45 57.59, 31.92 56.42, 0.42 56.37 M0.51 57.55 C-0.41 38.28, 0.16 21.18, -0.65 0.52 M-0.41 56.32 C0.99 42.4, -0.44 30.06, 0.49 -0.66" stroke="#000000" stroke-width="1" fill="none"></path></g><g transform="translate(175.5 63.5) rotate(0 284.5 12.5)"><text x="284.5" y="18" font-family="Virgil, Segoe UI Emoji" font-size="20px" fill="#000000" text-anchor="middle" style="white-space: pre;" direction="ltr">3      4       6       6       9       7        9     9</text></g><g transform="translate(25 10) rotate(0 10 12.5)"><text x="0" y="18" font-family="Virgil, Segoe UI Emoji" font-size="20px" fill="#000000" text-anchor="start" style="white-space: pre;" direction="ltr">gp</text></g><g transform="translate(103 17) rotate(0 22.5 12.5)"><text x="0" y="18" font-family="Virgil, Segoe UI Emoji" font-size="20px" fill="#000000" text-anchor="start" style="white-space: pre;" direction="ltr">gp+4</text></g><g transform="translate(169 22) rotate(0 24 12.5)"><text x="0" y="18" font-family="Virgil, Segoe UI Emoji" font-size="20px" fill="#000000" text-anchor="start" style="white-space: pre;" direction="ltr">gp+8</text></g><g transform="translate(108.5 65.5) rotate(0 6.5 12.5)"><text x="6.5" y="18" font-family="Virgil, Segoe UI Emoji" font-size="20px" fill="#000000" text-anchor="middle" style="white-space: pre;" direction="ltr">4</text></g><g stroke-linecap="round" transform="translate(164 58) rotate(0 141.5 18)"><path d="M0.63 -1.37 C66.5 0.95, 137.07 -0.23, 281.83 0.37 M0.35 -0.15 C60.73 0.53, 121.51 1.08, 283.48 0.16 M282.52 1.01 C281.95 12.04, 285.06 24.55, 282.51 36.22 M282.85 0.26 C282.64 13.97, 283.65 28.74, 282.35 35.68 M283.87 36.22 C213.59 35.35, 146.58 34.94, 0.45 37.41 M282.82 35.32 C170.6 33.71, 56.59 33.33, 0.47 35.81 M-1.36 35.1 C-0.26 26.46, -0.17 15.04, 1.32 -0.18 M0.55 35.48 C-0.79 27.3, -0.34 19.12, 0.5 0.82" stroke="#000000" stroke-width="1" fill="none"></path></g><g transform="translate(39 67) rotate(0 6 12.5)"><text x="6" y="18" font-family="Virgil, Segoe UI Emoji" font-size="20px" fill="#000000" text-anchor="middle" style="white-space: pre;" direction="ltr">5</text></g><g stroke-linecap="round"><g transform="translate(192 154) rotate(0 -1.3374964361544812 -19.981613421780054)"><path d="M-0.72 -0.82 C-1.17 -7.54, -2.5 -34.59, -2.54 -41.33 M1.1 1.37 C0.43 -5.09, -3.39 -33.06, -3.78 -39.97" stroke="#000000" stroke-width="1" fill="none"></path></g><g transform="translate(192 154) rotate(0 -1.3374964361544812 -19.981613421780054)"><path d="M3.81 -22.4 C1.97 -25.63, -0.72 -31.58, -2.46 -40.15 M5.72 -22.02 C2.27 -25.93, 0.58 -29.93, -3.28 -39.15" stroke="#000000" stroke-width="1" fill="none"></path></g><g transform="translate(192 154) rotate(0 -1.3374964361544812 -19.981613421780054)"><path d="M-10.16 -20.98 C-7.63 -24.56, -5.96 -30.96, -2.46 -40.15 M-8.25 -20.59 C-8.36 -24.96, -6.71 -29.29, -3.28 -39.15" stroke="#000000" stroke-width="1" fill="none"></path></g></g><g transform="translate(175 156) rotate(0 26 12.5)"><text x="0" y="18" font-family="Virgil, Segoe UI Emoji" font-size="20px" fill="#000000" text-anchor="start" style="white-space: pre;" direction="ltr">I  T1</text></g><g transform="translate(31 124) rotate(0 6 12.5)"><text x="0" y="18" font-family="Virgil, Segoe UI Emoji" font-size="20px" fill="#000000" text-anchor="start" style="white-space: pre;" direction="ltr">S</text></g><g transform="translate(98 130) rotate(0 18.5 25)"><text x="0" y="18" font-family="Virgil, Segoe UI Emoji" font-size="20px" fill="#000000" text-anchor="start" style="white-space: pre;" direction="ltr">t3</text><text x="0" y="43" font-family="Virgil, Segoe UI Emoji" font-size="20px" fill="#000000" text-anchor="start" style="white-space: pre;" direction="ltr">tam</text></g><g stroke-linecap="round" transform="translate(258 185) rotate(0 27.5 24.5)"><path d="M-1.88 -0.82 C17.86 1.14, 33.89 1.43, 55.01 0.55 M0.55 -0.7 C13.04 0.1, 27.86 -0.19, 55.45 0.94 M56.65 0.46 C53.28 14.91, 55.58 28.23, 56.46 49.61 M55.17 0.56 C54.66 16.33, 54.91 31.56, 55.17 48 M54.48 50.29 C45.64 49.95, 31.33 48.3, 1.27 49.6 M54.1 49.22 C42.5 48.41, 28.92 48.08, -0.91 48.87 M0.32 48.89 C-1.3 33.27, -0.62 18.4, -0.47 1.37 M0.66 49.01 C-0.67 35.11, 0.68 21.9, -0.18 0.96" stroke="#000000" stroke-width="1" fill="none"></path></g><g transform="translate(271 165) rotate(0 13 12.5)"><text x="0" y="18" font-family="Virgil, Segoe UI Emoji" font-size="20px" fill="#000000" text-anchor="start" style="white-space: pre;" direction="ltr">t2</text></g><g stroke-linecap="round" transform="translate(10 208) rotate(0 22.5 24)"><path d="M0.7 0.19 C10.55 0.01, 19.63 -0.22, 43.57 0.69 M0.65 0.53 C16.15 0.31, 32.32 0.36, 45.44 -0.2 M46.63 -0.83 C44.15 16.61, 46.03 33.33, 44.66 48.89 M45.24 0.55 C44.71 10.69, 45.82 23.3, 44.15 49 M45.49 48.72 C32.71 47.94, 19.79 49.17, -0.95 49.85 M45.04 47.72 C34.71 47.68, 24.91 49.16, 0.47 47.16 M-0.51 46.68 C-1.61 37.3, -0.96 24.45, 1.6 0.77 M-0.21 47.78 C-0.69 37.82, 0.08 26.52, -0.17 -0.66" stroke="#000000" stroke-width="1" fill="none"></path></g><g transform="translate(19 181) rotate(0 8.5 12.5)"><text x="0" y="18" font-family="Virgil, Segoe UI Emoji" font-size="20px" fill="#000000" text-anchor="start" style="white-space: pre;" direction="ltr">t1</text></g><g transform="translate(25.5 219.5) rotate(0 7 12.5)"><text x="7" y="18" font-family="Virgil, Segoe UI Emoji" font-size="20px" fill="#000000" text-anchor="middle" style="white-space: pre;" direction="ltr">0</text></g></svg>