<svg version="1.1" xmlns="http://www.w3.org/2000/svg" viewBox="0 0 797 380.6544542890042" width="797" height="380.6544542890042">
  <!-- svg-source:excalidraw -->
  
  <defs>
    <style>
      @font-face {
        font-family: "Virgil";
        src: url("https://excalidraw.com/Virgil.woff2");
      }
      @font-face {
        font-family: "Cascadia";
        src: url("https://excalidraw.com/Cascadia.woff2");
      }
    </style>
  </defs>
  <rect x="0" y="0" width="797" height="380.6544542890042" fill="#ffffff"></rect><g stroke-linecap="round" transform="translate(147 30.654454289004207) rotate(0 34 23.5)"><path d="M1.05 0.81 C14.55 -2.41, 29.3 -0.87, 66.81 -1.2 M0.66 0.5 C24.2 0.41, 46.34 0.82, 68.12 -0.56 M68.52 -0.61 C65.88 13.22, 65.98 23.65, 68.15 48.21 M67.9 0.73 C68.42 16.82, 69.17 33.35, 68.98 47.26 M68.4 48.17 C46.32 47.26, 26.16 47.17, -1.73 46.01 M67.11 47.1 C45.92 47.14, 25.68 46.19, -0.11 46.36 M0.05 48.8 C0.92 30.15, -0.15 12.45, 0.84 -1.75 M-0.12 47.69 C-0.13 34.28, -1.15 20.83, -0.98 0.16" stroke="#000000" stroke-width="1" fill="none"></path></g><g stroke-linecap="round" transform="translate(240 29.154454289004207) rotate(0 61 23.5)"><path d="M-0.71 0.23 C42 -1.18, 87.78 0.21, 120.31 -1.79 M0.51 -0.24 C37.73 -1.51, 76.35 -0.63, 121.12 0.02 M121.96 -0.12 C123.09 16.58, 121.98 38.46, 121.3 46.76 M121.28 0.8 C121.16 17.49, 122.17 35.58, 121.34 46.11 M123.53 46.83 C88.18 48.82, 53.28 48.84, 1.68 48.44 M121.17 47.07 C85.41 47.21, 50.25 47.39, -0.64 46.13 M-0.9 48.74 C2.05 32.42, 1.69 13.42, -1.64 1.8 M-0.44 46.04 C0.87 36.65, 0.49 25.04, 0.32 -0.37" stroke="#000000" stroke-width="1" fill="none"></path></g><g transform="translate(164.5 41.65445428900421) rotate(0 16.5 12.5)"><text x="16.5" y="18" font-family="Virgil, Segoe UI Emoji" font-size="20px" fill="#000000" text-anchor="middle" style="white-space: pre;" direction="ltr">100</text></g><g transform="translate(253 45.65445428900421) rotate(0 23.5 12.5)"><text x="0" y="18" font-family="Virgil, Segoe UI Emoji" font-size="20px" fill="#000000" text-anchor="start" style="white-space: pre;" direction="ltr">1000</text></g><g transform="translate(422 59.65445428900421) rotate(0 156.5 12.5)"><text x="0" y="18" font-family="Virgil, Segoe UI Emoji" font-size="20px" fill="#000000" text-anchor="start" style="white-space: pre;" direction="ltr">2^4-3 * (1+1/2) = 2 * 3/2 = 3</text></g><g stroke-linecap="round" transform="translate(148 126.4044542890042) rotate(0 34 23.5)"><path d="M-0.68 1.3 C25.4 0.29, 56.17 0.41, 69.93 0.23 M-0.76 0.83 C18.98 -0.14, 37.13 -0.46, 67.16 0.75 M68.46 -0.22 C66.55 17.04, 66.64 35.38, 68.18 46.82 M67.66 -0.37 C69.15 11.82, 68.26 23.15, 68.39 46.67 M68.33 46.54 C52.57 46.43, 37.63 45.42, 1.22 47.49 M67.5 46.66 C46.49 46.47, 26.32 47, 0.43 46.13 M1.13 45.94 C0.94 29.69, 1.69 10.81, -1.07 1.72 M0.27 46.1 C-0.1 35.34, 0.61 22.5, -0.51 0.94" stroke="#000000" stroke-width="1" fill="none"></path></g><g stroke-linecap="round" transform="translate(241 124.9044542890042) rotate(0 61 23.5)"><path d="M1.3 -1.76 C38.31 2.27, 75.82 2.34, 122.23 -0.55 M0.83 0.45 C35.65 0.98, 70.75 0.09, 122.75 0.63 M121.78 -1.71 C121.7 15.01, 122.97 33.41, 121.82 46.12 M121.63 0.93 C122.06 16.32, 121.36 32.93, 121.67 46.24 M121.54 46.81 C85.22 47.3, 47.37 48.42, 0.49 47.05 M121.66 46.07 C76.03 45.86, 30.71 46.82, -0.87 47.66 M-1.06 48.25 C-0.16 31.82, -1.83 11.57, 1.72 -0.71 M-0.9 47.25 C0.66 30.42, 0.25 11.43, 0.94 0.04" stroke="#000000" stroke-width="1" fill="none"></path></g><g transform="translate(169.5 137.4044542890042) rotate(0 12.5 12.5)"><text x="12.5" y="18" font-family="Virgil, Segoe UI Emoji" font-size="20px" fill="#000000" text-anchor="middle" style="white-space: pre;" direction="ltr">101</text></g><g transform="translate(254 141.4044542890042) rotate(0 23.5 12.5)"><text x="0" y="18" font-family="Virgil, Segoe UI Emoji" font-size="20px" fill="#000000" text-anchor="start" style="white-space: pre;" direction="ltr">1000</text></g><g transform="translate(423 155.4044542890042) rotate(0 155.5 12.5)"><text x="0" y="18" font-family="Virgil, Segoe UI Emoji" font-size="20px" fill="#000000" text-anchor="start" style="white-space: pre;" direction="ltr">2^5-3 * (1+1/2) = 4 * 3/2 = 6</text></g><g transform="translate(145 193.6544542890042) rotate(0 46.5 12.5)"><text x="0" y="18" font-family="Virgil, Segoe UI Emoji" font-size="20px" fill="#000000" text-anchor="start" style="white-space: pre;" direction="ltr">3+ 6 = 9</text></g><g transform="translate(198 255.6544542890042) rotate(0 17.5 12.5)"><text x="0" y="18" font-family="Virgil, Segoe UI Emoji" font-size="20px" fill="#000000" text-anchor="start" style="white-space: pre;" direction="ltr">110 </text></g><g transform="translate(458 229.6544542890042) rotate(0 164.5 12.5)"><text x="0" y="18" font-family="Virgil, Segoe UI Emoji" font-size="20px" fill="#000000" text-anchor="start" style="white-space: pre;" direction="ltr">8 * ( 1 + 1/8 )  = 8 * 9 /8 = 9</text></g><g transform="translate(268 253.6544542890042) rotate(0 23.5 12.5)"><text x="0" y="18" font-family="Virgil, Segoe UI Emoji" font-size="20px" fill="#000000" text-anchor="start" style="white-space: pre;" direction="ltr">0010</text></g><g stroke-linecap="round" transform="translate(188 245.6544542890042) rotate(0 22 20.5)"><path d="M-1.75 0.99 C13.44 -1.77, 24.87 0.01, 42.84 -0.74 M-0.98 -0.44 C15.67 0.41, 30.57 -0.16, 43.44 -0.33 M42.48 0.54 C44.11 7.89, 43.32 16.08, 43.1 41.54 M43.77 0.71 C44.52 12.46, 43.68 26.18, 44.84 41.69 M45.91 39.26 C29.69 41.61, 19.62 42.4, 0.21 42.07 M44.19 40.62 C31.99 40.7, 19.82 40.92, 0.88 40.12 M0.46 40.9 C1.35 24.36, 2 8.42, -0.7 -1.87 M-0.11 40.53 C0.63 30.5, 0.65 21.21, 0.29 -0.01" stroke="#000000" stroke-width="1" fill="none"></path></g><g stroke-linecap="round" transform="translate(265 245.6544542890042) rotate(0 27 20.5)"><path d="M1.7 -0.72 C13.3 1.36, 27.87 -0.85, 52.66 0.98 M1 -0.69 C21.67 -0.79, 40.54 0.54, 54.35 0.85 M53.18 1.12 C54.6 11.96, 53.85 24.37, 52.93 40.34 M53.22 0.04 C53.87 15.87, 54.16 31.25, 54.84 40.2 M54.21 40.17 C39.45 39.7, 26.72 38.93, 1.38 39.98 M54.72 41.71 C35.93 41.52, 17.57 39.66, 0.59 41.5 M0.34 41.53 C-0.8 29.82, -1.11 17.81, -0.83 1.18 M0.58 40.08 C-0.47 25.8, 0.1 9.14, 0.95 -0.85" stroke="#000000" stroke-width="1" fill="none"></path></g><g transform="translate(600 266.6544542890042) rotate(0 66 50)"><text x="0" y="18" font-family="Virgil, Segoe UI Emoji" font-size="20px" fill="#000000" text-anchor="start" style="white-space: pre;" direction="ltr">   1  1 0 0 0</text><text x="0" y="43" font-family="Virgil, Segoe UI Emoji" font-size="20px" fill="#000000" text-anchor="start" style="white-space: pre;" direction="ltr">  0  1 1  0 0</text><text x="0" y="68" font-family="Virgil, Segoe UI Emoji" font-size="20px" fill="#000000" text-anchor="start" style="white-space: pre;" direction="ltr">1  0 0 1 0 0</text><text x="0" y="93" font-family="Virgil, Segoe UI Emoji" font-size="20px" fill="#000000" text-anchor="start" style="white-space: pre;" direction="ltr"> </text></g><g stroke-linecap="round" transform="translate(642 310.6544542890042) rotate(0 46.5 18)"><path d="M1.06 0.96 C21.83 1.7, 47.59 1.43, 91.98 0.3 M-0.42 0.84 C23.56 0.31, 45.79 -1.04, 93.04 0.7 M91.71 0.23 C92.59 13.86, 94.51 25.19, 92.61 36.72 M93.11 0.89 C92.88 8.37, 93.35 16.03, 93.71 35.15 M91.76 35.2 C61.95 37.53, 34.6 34.34, -0.8 34.47 M93.82 35.07 C59.86 36.75, 25.32 36.09, -0.09 36.39 M1.37 36.07 C-1.22 24.61, 1.54 12.16, 1.68 -1.27 M0.68 36.64 C1.2 25.26, -0.44 15.89, 0.29 -0.6" stroke="#000000" stroke-width="1" fill="none"></path></g><g transform="translate(30 46.65445428900421) rotate(0 45 12.5)"><text x="0" y="18" font-family="Virgil, Segoe UI Emoji" font-size="20px" fill="#000000" text-anchor="start" style="white-space: pre;" direction="ltr">72=0x48</text></g><g transform="translate(10 147.6544542890042) rotate(0 26.5 12.5)"><text x="0" y="18" font-family="Virgil, Segoe UI Emoji" font-size="20px" fill="#000000" text-anchor="start" style="white-space: pre;" direction="ltr">0x58</text></g><g transform="translate(65 326.6544542890042) rotate(0 39 12.5)"><text x="0" y="18" font-family="Virgil, Segoe UI Emoji" font-size="20px" fill="#000000" text-anchor="start" style="white-space: pre;" direction="ltr">ma &amp; 15</text></g><g transform="translate(156 89.6544542890042) rotate(0 71.5 12.5)"><text x="0" y="18" font-family="Virgil, Segoe UI Emoji" font-size="20px" fill="#000000" text-anchor="start" style="white-space: pre;" direction="ltr">0 0 0   1 1 1 1</text></g><g transform="translate(251 345.6544542890042) rotate(0 153.5 12.5)"><text x="0" y="18" font-family="Virgil, Segoe UI Emoji" font-size="20px" fill="#000000" text-anchor="start" style="white-space: pre;" direction="ltr">exp  usar AND e deslocamento</text></g><g stroke-linecap="round"><g transform="translate(143 11.654454289004207) rotate(0 71.29184543974696 -0.4854231160134077)"><path d="M0.79 0.68 C24.76 0.49, 119.3 -1.57, 142.84 -1.65 M-0.26 0 C23.72 0, 118.75 -0.2, 142.34 -0.46" stroke="#000000" stroke-width="1" fill="none"></path></g><g transform="translate(143 11.654454289004207) rotate(0 71.29184543974696 -0.4854231160134077)"><path d="M115.35 11.37 C119.2 7.6, 128.29 6.48, 142.72 1.03 M114.09 9.89 C125.48 5.37, 135.63 1.21, 143.03 0.42" stroke="#000000" stroke-width="1" fill="none"></path></g><g transform="translate(143 11.654454289004207) rotate(0 71.29184543974696 -0.4854231160134077)"><path d="M115.23 -9.15 C119.02 -8.51, 128.13 -5.24, 142.72 1.03 M113.97 -10.63 C125.31 -7.51, 135.51 -4.02, 143.03 0.42" stroke="#000000" stroke-width="1" fill="none"></path></g></g><g transform="translate(154 180.6544542890042) rotate(0 90.5 12.5)"><text x="0" y="18" font-family="Virgil, Segoe UI Emoji" font-size="20px" fill="#000000" text-anchor="start" style="white-space: pre;" direction="ltr">1 1 1      0 0 0 0</text></g></svg>