<svg version="1.1" xmlns="http://www.w3.org/2000/svg" viewBox="0 0 908 693" width="908" height="693">
  <!-- svg-source:excalidraw -->
  
  <defs>
    <style>
      @font-face {
        font-family: "Virgil";
        src: url("https://excalidraw.com/Virgil.woff2");
      }
      @font-face {
        font-family: "Cascadia";
        src: url("https://excalidraw.com/Cascadia.woff2");
      }
    </style>
  </defs>
  <rect x="0" y="0" width="908" height="693" fill="#ffffff"></rect><g transform="translate(125 17) rotate(0 208 13)"><text x="0" y="18" font-family="Virgil, Segoe UI Emoji" font-size="20px" fill="#000000" text-anchor="start" style="white-space: pre;" direction="ltr">0 0 1 1 1 0 1 1 1 1 0     para sequencia 111</text></g><g stroke-linecap="round" transform="translate(167 10) rotate(0 23 16.5)"><path d="M0.07 0.42 C10.5 0.82, 18.94 0.05, 45.47 -0.35 M-0.37 0.03 C9.8 -0.44, 20.04 0.26, 46.56 -0.25 M44.96 -1.13 C46.03 11.38, 47.73 21.59, 46.01 34.99 M45.16 -0.99 C45.1 11.96, 45.19 23.01, 46.68 32.11 M45.27 34.01 C31.61 33.89, 16.46 33.81, 0.18 31.85 M45.09 32.24 C33.93 33.96, 24.31 33.22, 0.45 33.33 M1.94 33.44 C-0.94 23.68, 0.21 17.54, -1.07 -1.14 M-0.65 32.54 C-0.43 22.25, -0.35 11.91, -0.89 -0.15" stroke="#000000" stroke-width="1" fill="none"></path></g><g stroke-linecap="round" transform="translate(236 12.5) rotate(0 23 16.5)"><path d="M-0.07 -1.68 C16.38 -1.46, 37.47 -1.28, 45.64 1.36 M-0.6 -0.36 C10.22 0.24, 20 0.5, 46.54 0.09 M47.47 -1.81 C44.29 6.27, 47.05 17.45, 45.77 33.9 M45.24 0.97 C46.02 10.6, 45.11 22.16, 46.21 32.46 M45.45 31.7 C33.89 32.55, 22.83 32.73, -0.77 31.23 M45.55 33.75 C32.72 32.46, 19.64 33.18, -0.25 33.23 M-0.02 32.27 C-1.49 20.35, 1.37 8.08, 0.15 1.78 M0.16 33.39 C0.52 22.33, 0.25 10.75, -0.68 0.44" stroke="#000000" stroke-width="1" fill="none"></path></g><g transform="translate(583 21) rotate(0 83.5 13)"><text x="0" y="18" font-family="Virgil, Segoe UI Emoji" font-size="20px" fill="#000000" text-anchor="start" style="white-space: pre;" direction="ltr">sem sobreposicao</text></g><g transform="translate(125.5 80.5) rotate(0 208 13)"><text x="0" y="18" font-family="Virgil, Segoe UI Emoji" font-size="20px" fill="#000000" text-anchor="start" style="white-space: pre;" direction="ltr">0 0 1 1 1 0 1 1 1 1 0     para sequencia 111</text></g><g stroke-linecap="round" transform="translate(167.5 73.5) rotate(0 23 16.5)"><path d="M0.46 1.13 C15.07 0.55, 29.3 1.16, 47.59 0.08 M0.49 0.51 C14.62 -1.05, 29.54 -1, 45.44 -0.95 M47.26 0.91 C43.98 11.17, 47.01 22.81, 45.53 32.63 M46.73 0.28 C46.93 7.91, 45.6 18.66, 46.33 32.2 M47.99 31.41 C28.39 34.55, 8.87 33.47, -0.29 32.87 M46.64 33.87 C35.19 33.33, 26.68 33.35, 0.2 33.63 M-1.37 31.15 C0.31 24.57, -1.92 13.43, 1.39 1.95 M0.77 33.27 C-0.86 22.75, 0.79 13.91, -0.9 0.34" stroke="#000000" stroke-width="1" fill="none"></path></g><g stroke-linecap="round" transform="translate(236.5 76) rotate(0 23 16.5)"><path d="M1.13 1.31 C12.27 1.68, 25 1.49, 46.08 0.33 M0.51 0.07 C14.9 0.21, 30.53 -0.79, 45.05 0.4 M46.91 -1.73 C45.63 8.28, 46.05 13.48, 45.63 32.38 M46.28 0.7 C45.14 11.61, 47.03 24.82, 45.2 33.95 M44.41 33.57 C33.55 32.68, 18.16 33.16, -0.13 31.39 M46.87 32.3 C36.05 34.19, 25.43 33.49, 0.63 33.07 M-1.85 33.24 C1.57 21.79, 0.56 15.95, 1.95 -0.16 M0.27 32.09 C-0.44 24.32, 0.37 13.26, 0.34 -0.05" stroke="#000000" stroke-width="1" fill="none"></path></g><g transform="translate(583.5 84.5) rotate(0 83.5 13)"><text x="0" y="18" font-family="Virgil, Segoe UI Emoji" font-size="20px" fill="#000000" text-anchor="start" style="white-space: pre;" direction="ltr">sem sobreposicao</text></g><g stroke-linecap="round" transform="translate(256 81.5) rotate(0 23 16.5)"><path d="M1.61 -1.87 C10.58 -0.41, 17.51 -0.01, 47.31 -0.89 M-0.54 -0.57 C18.31 0.16, 34.98 0.2, 46.41 0.79 M47.65 1.4 C45.93 9.24, 46.98 17.07, 44.01 32.86 M45.38 0.82 C45.24 11.26, 45.2 22.98, 45.16 33.23 M44.02 31.04 C30.11 32.8, 11.77 35.38, -1.9 34.86 M46.89 32.45 C29.06 33.13, 13.2 34.14, -0.81 33.63 M0.01 34.46 C-0.3 23.47, 1.46 11.02, -1.96 1.3 M-0.59 32.79 C-0.04 22.48, -0.37 10.21, 0.51 -0.59" stroke="#000000" stroke-width="1" fill="none"></path></g><g transform="translate(133 182) rotate(0 203 13)"><text x="0" y="18" font-family="Virgil, Segoe UI Emoji" font-size="20px" fill="#000000" text-anchor="start" style="white-space: pre;" direction="ltr">zero        um          dois        tres</text></g><g stroke-linecap="round" transform="translate(120 174) rotate(0 36 19.5)"><path d="M34.61 0.63 C41.93 0.18, 52.85 1.99, 58.99 4.52 C65.13 7.05, 69.93 11.76, 71.47 15.81 C73 19.87, 71.85 25.08, 68.19 28.85 C64.54 32.63, 56.87 37.12, 49.52 38.47 C42.18 39.82, 31.4 38.36, 24.11 36.95 C16.82 35.54, 9.62 33.35, 5.77 30.01 C1.92 26.66, 0 21.12, 1.01 16.88 C2.02 12.63, 5.59 7.2, 11.83 4.55 C18.07 1.91, 33.6 1.65, 38.45 1.03 C43.29 0.4, 40.86 0.75, 40.89 0.81 M41.67 1.28 C48.8 1.51, 56.7 3.06, 61.99 6.14 C67.28 9.22, 72.9 15.72, 73.4 19.74 C73.89 23.76, 70.06 27.36, 64.95 30.26 C59.85 33.15, 50.35 35.95, 42.78 37.09 C35.2 38.23, 26 38.69, 19.5 37.08 C13 35.46, 6.85 31.48, 3.77 27.42 C0.69 23.36, -1.01 16.59, 1.02 12.72 C3.05 8.84, 9.38 6.28, 15.94 4.19 C22.5 2.1, 36.22 0.81, 40.37 0.17 C44.52 -0.47, 40.61 0.19, 40.84 0.37" stroke="#000000" stroke-width="1" fill="none"></path></g><g stroke-linecap="round" transform="translate(236 177.5) rotate(0 36 19.5)"><path d="M28.21 0.9 C35.12 -0.52, 44.59 -0.32, 51.23 1.52 C57.86 3.36, 64.77 7.89, 68.02 11.93 C71.27 15.97, 72.71 21.88, 70.75 25.77 C68.79 29.66, 62.83 33.19, 56.28 35.27 C49.72 37.36, 39.01 38.72, 31.42 38.26 C23.82 37.81, 15.93 35.48, 10.71 32.56 C5.48 29.63, 0.69 24.67, 0.06 20.71 C-0.57 16.74, 0.87 12.37, 6.91 8.78 C12.95 5.19, 29.66 0.35, 36.28 -0.83 C42.89 -2.01, 46.54 1.34, 46.61 1.7 M34.18 -0.24 C41.08 -0.8, 51.59 0.25, 57.57 2.93 C63.55 5.6, 68.43 11.29, 70.05 15.81 C71.66 20.34, 70.89 26.47, 67.27 30.08 C63.64 33.68, 55.53 36.29, 48.3 37.44 C41.08 38.59, 30.87 38.32, 23.91 37 C16.95 35.68, 10.69 33.04, 6.55 29.54 C2.41 26.04, -1.77 19.91, -0.91 15.99 C-0.05 12.07, 5.9 8.92, 11.71 6.01 C17.53 3.1, 30.06 -0.58, 33.97 -1.48 C37.88 -2.38, 35.01 0.23, 35.2 0.61" stroke="#000000" stroke-width="1" fill="none"></path></g><g stroke-linecap="round" transform="translate(363 174.5) rotate(0 36 19.5)"><path d="M30.94 -0.71 C38.18 -1.73, 48.04 0.32, 54.72 2.54 C61.4 4.75, 68.75 8.53, 71.03 12.56 C73.31 16.59, 71.39 22.71, 68.4 26.7 C65.41 30.69, 59.85 34.5, 53.08 36.52 C46.31 38.54, 35.45 39.59, 27.78 38.8 C20.11 38.02, 11.53 34.99, 7.03 31.8 C2.53 28.6, 0.48 23.79, 0.75 19.66 C1.02 15.52, 2.91 10.27, 8.63 6.99 C14.35 3.71, 30.02 1.12, 35.08 -0.04 C40.14 -1.21, 39.07 -0.32, 38.98 -0.02 M21.98 2.24 C28.81 0.14, 39.21 -0.27, 46.64 0.56 C54.07 1.39, 62.43 3.71, 66.56 7.23 C70.7 10.75, 72.37 17.23, 71.46 21.69 C70.55 26.15, 66.71 31.27, 61.09 33.98 C55.46 36.7, 45.24 37.74, 37.69 37.98 C30.15 38.21, 21.69 37.82, 15.82 35.4 C9.95 32.98, 4.45 27.62, 2.49 23.47 C0.54 19.33, 1.11 13.94, 4.11 10.55 C7.11 7.15, 17.63 4.41, 20.47 3.1 C23.31 1.79, 20.97 2.83, 21.13 2.67" stroke="#000000" stroke-width="1" fill="none"></path></g><g stroke-linecap="round" transform="translate(485 172.5) rotate(0 36 19.5)"><path d="M21.65 1.59 C28.17 -0.05, 38.55 -0.11, 45.9 1.19 C53.25 2.5, 61.55 6.07, 65.77 9.42 C69.99 12.77, 72.19 17.16, 71.22 21.31 C70.25 25.45, 65.58 31.32, 59.97 34.28 C54.36 37.24, 45.25 39.05, 37.57 39.06 C29.89 39.08, 19.97 36.87, 13.88 34.36 C7.79 31.84, 2.8 28.03, 1.01 23.98 C-0.79 19.94, -0.95 14.06, 3.11 10.09 C7.16 6.13, 21.12 1.69, 25.33 0.19 C29.55 -1.31, 28.09 0.57, 28.39 1.1 M21.81 1.74 C28.69 0.07, 40.53 -0.86, 47.89 0.46 C55.25 1.78, 62.13 6.04, 65.95 9.65 C69.78 13.25, 71.78 17.92, 70.84 22.09 C69.91 26.27, 66.08 32.09, 60.33 34.68 C54.57 37.26, 43.97 37.31, 36.32 37.59 C28.68 37.87, 20.31 38.57, 14.46 36.35 C8.6 34.13, 2.97 28.67, 1.18 24.28 C-0.61 19.89, 0.36 13.82, 3.71 10.03 C7.06 6.23, 18.3 2.8, 21.29 1.5 C24.28 0.2, 21.17 1.86, 21.65 2.22" stroke="#000000" stroke-width="1" fill="none"></path></g><g stroke-linecap="round"><g transform="translate(198 191) rotate(0 19.64026980740485 -0.29335407277281433)"><path d="M-0.44 0.4 C5.68 0.29, 30.92 -0.93, 37.35 -1.07 M1.53 -0.43 C7.99 -0.31, 33.73 0.77, 39.72 0.42" stroke="#000000" stroke-width="1" fill="none"></path></g><g transform="translate(198 191) rotate(0 19.64026980740485 -0.29335407277281433)"><path d="M22.49 5.87 C28.09 4.93, 35.43 1.13, 37.95 1.16 M21.55 6.69 C28.2 4.28, 35.37 1.93, 39.93 0.67" stroke="#000000" stroke-width="1" fill="none"></path></g><g transform="translate(198 191) rotate(0 19.64026980740485 -0.29335407277281433)"><path d="M22.51 -7.13 C28.05 -3.47, 35.39 -2.66, 37.95 1.16 M21.56 -6.31 C28.24 -3.54, 35.4 -0.72, 39.93 0.67" stroke="#000000" stroke-width="1" fill="none"></path></g></g><g transform="translate(212 161) rotate(0 2.5 13)"><text x="0" y="18" font-family="Virgil, Segoe UI Emoji" font-size="20px" fill="#000000" text-anchor="start" style="white-space: pre;" direction="ltr">1</text></g><g stroke-linecap="round"><g transform="translate(240 220) rotate(0 -24.787183932708587 -2.212476346641779)"><path d="M-0.97 0.51 C-9.11 -0.26, -41.75 -3.98, -49.92 -4.93 M0.73 -0.27 C-7.39 -0.8, -41.81 -2.74, -50.3 -3.36" stroke="#000000" stroke-width="1" fill="none"></path></g><g transform="translate(240 220) rotate(0 -24.787183932708587 -2.212476346641779)"><path d="M-24.87 -8.78 C-30.85 -7.52, -36.54 -9.09, -52.26 -3 M-26.04 -11.27 C-33.94 -8.72, -39.56 -5.75, -50.22 -4.03" stroke="#000000" stroke-width="1" fill="none"></path></g><g transform="translate(240 220) rotate(0 -24.787183932708587 -2.212476346641779)"><path d="M-25.99 8.72 C-31.68 6.26, -37.13 0.98, -52.26 -3 M-27.15 6.23 C-34.57 3.57, -39.86 1.33, -50.22 -4.03" stroke="#000000" stroke-width="1" fill="none"></path></g></g><g transform="translate(218 235) rotate(0 7 13)"><text x="0" y="18" font-family="Virgil, Segoe UI Emoji" font-size="20px" fill="#000000" text-anchor="start" style="white-space: pre;" direction="ltr">0</text></g><g stroke-linecap="round"><g transform="translate(152 171) rotate(0 0.6639376063225768 -12.781762304157041)"><path d="M0.1 -0.09 C0.63 -4.4, 2.48 -21.47, 2.64 -25.47 M-1.31 -1.18 C-0.83 -5.36, 1.23 -20.06, 2.02 -24.19" stroke="#000000" stroke-width="1" fill="none"></path></g><g transform="translate(152 171) rotate(0 0.6639376063225768 -12.781762304157041)"><path d="M4.26 -11.2 C3.23 -15.97, 4.07 -17.48, 1.4 -24.49 M4.28 -12.25 C3.89 -17.09, 2.11 -20.86, 1.94 -24.3" stroke="#000000" stroke-width="1" fill="none"></path></g><g transform="translate(152 171) rotate(0 0.6639376063225768 -12.781762304157041)"><path d="M-4.2 -12.58 C-3.08 -17.01, -0.09 -18.17, 1.4 -24.49 M-4.19 -13.64 C-1.34 -17.99, 0.11 -21.23, 1.94 -24.3" stroke="#000000" stroke-width="1" fill="none"></path></g></g><g stroke-linecap="round"><g transform="translate(149 142) rotate(0 -12.55460931286217 3.7916248094523155)"><path d="M0.63 -0.15 C-3.82 1.29, -21.3 7.64, -25.74 8.86 M-0.5 -1.27 C-4.65 -0.18, -19.56 5.64, -23.42 7.19" stroke="#000000" stroke-width="1" fill="none"></path></g></g><g stroke-linecap="round"><g transform="translate(116 155) rotate(0 10.2266088947421 9.35975543548355)"><path d="M1.14 0.67 C4.54 3.61, 17.01 14.69, 20.17 17.48 M0.28 -0.02 C3.65 3.09, 16.56 15.67, 19.84 18.74" stroke="#000000" stroke-width="1" fill="none"></path></g><g transform="translate(116 155) rotate(0 10.2266088947421 9.35975543548355)"><path d="M8.59 14.74 C10.63 16.04, 13.9 15.39, 20.17 18.87 M8.38 12.95 C11.89 15.42, 14.45 16.76, 20.42 18.44" stroke="#000000" stroke-width="1" fill="none"></path></g><g transform="translate(116 155) rotate(0 10.2266088947421 9.35975543548355)"><path d="M14.78 8.28 C15.09 11.44, 16.62 12.6, 20.17 18.87 M14.57 6.49 C16.32 10.83, 17.08 14.06, 20.42 18.44" stroke="#000000" stroke-width="1" fill="none"></path></g></g><g transform="translate(84 149) rotate(0 7 13)"><text x="0" y="18" font-family="Virgil, Segoe UI Emoji" font-size="20px" fill="#000000" text-anchor="start" style="white-space: pre;" direction="ltr">0</text></g><g stroke-linecap="round"><g transform="translate(317 187) rotate(0 18.76798044219612 -0.7160747505724601)"><path d="M-1.05 0.36 C5.22 -0.13, 32.09 -1.43, 38.59 -1.79 M0.6 -0.5 C6.67 -0.34, 31.86 -0.61, 37.95 -0.66" stroke="#000000" stroke-width="1" fill="none"></path></g><g transform="translate(317 187) rotate(0 18.76798044219612 -0.7160747505724601)"><path d="M20.71 6.94 C25.64 3.5, 32.48 -0.61, 39.37 0.02 M20.3 5.2 C24.71 4.63, 30.59 2.76, 38.89 -0.6" stroke="#000000" stroke-width="1" fill="none"></path></g><g transform="translate(317 187) rotate(0 18.76798044219612 -0.7160747505724601)"><path d="M20.59 -6.06 C25.68 -4.54, 32.57 -3.68, 39.37 0.02 M20.18 -7.8 C24.72 -4.57, 30.63 -2.64, 38.89 -0.6" stroke="#000000" stroke-width="1" fill="none"></path></g></g><g transform="translate(331 157) rotate(0 2.5 13)"><text x="0" y="18" font-family="Virgil, Segoe UI Emoji" font-size="20px" fill="#000000" text-anchor="start" style="white-space: pre;" direction="ltr">1</text></g><g stroke-linecap="round"><g transform="translate(384 212) rotate(0 -69.65768334301657 39.694148512380195)"><path d="M-0.4 -0.17 C-23.8 13.12, -117.64 65.84, -140.9 79.11 M1.59 -1.31 C-21.4 12.26, -114.95 67.6, -138.67 80.7" stroke="#000000" stroke-width="1" fill="none"></path></g><g transform="translate(384 212) rotate(0 -69.65768334301657 39.694148512380195)"><path d="M-119.63 56.25 C-124.3 63.7, -128.79 70.89, -137.44 82.23 M-120.03 57.68 C-124.04 64.41, -130.59 68.76, -138.27 80.04" stroke="#000000" stroke-width="1" fill="none"></path></g><g transform="translate(384 212) rotate(0 -69.65768334301657 39.694148512380195)"><path d="M-109.4 74.04 C-116.62 76.85, -123.76 79.44, -137.44 82.23 M-109.8 75.47 C-116.32 77.52, -125.55 77.21, -138.27 80.04" stroke="#000000" stroke-width="1" fill="none"></path></g></g><g stroke-linecap="round"><g transform="translate(238 295) rotate(0 -35.08132046684622 -40.08997842679733)"><path d="M0.48 -0.8 C-11.11 -13.88, -59.03 -66.43, -70.64 -79.64 M-0.73 1.4 C-11.82 -11.96, -56.79 -68.22, -68.27 -81.58" stroke="#000000" stroke-width="1" fill="none"></path></g><g transform="translate(238 295) rotate(0 -35.08132046684622 -40.08997842679733)"><path d="M-43.75 -67.43 C-47.06 -68.13, -53.14 -72.97, -67.23 -80.8 M-42.73 -67.27 C-48.9 -69.09, -55.18 -72.72, -68.6 -81.18" stroke="#000000" stroke-width="1" fill="none"></path></g><g transform="translate(238 295) rotate(0 -35.08132046684622 -40.08997842679733)"><path d="M-59.58 -54.37 C-59.47 -57.86, -62.26 -65.42, -67.23 -80.8 M-58.56 -54.21 C-60.86 -59.18, -63.33 -65.95, -68.6 -81.18" stroke="#000000" stroke-width="1" fill="none"></path></g></g><g transform="translate(340 255) rotate(0 7 13)"><text x="0" y="18" font-family="Virgil, Segoe UI Emoji" font-size="20px" fill="#000000" text-anchor="start" style="white-space: pre;" direction="ltr">0</text></g><g transform="translate(516 269) rotate(0 74 13)"><text x="0" y="18" font-family="Virgil, Segoe UI Emoji" font-size="20px" fill="#000000" text-anchor="start" style="white-space: pre;" direction="ltr">0 1  0  1  0  1</text></g><g stroke-linecap="round" transform="translate(528 258) rotate(0 42 20)"><path d="M0.66 0.95 C29.31 1.22, 59.31 -0.96, 84.49 -1.71 M0.49 -0.57 C29.71 -0.77, 58.89 -0.26, 84.32 -0.76 M85.51 0.21 C85.57 11.25, 84.14 21.21, 84.14 41.58 M84.18 0.54 C84.02 10.84, 84.78 21.4, 83.85 40.39 M85.8 39.61 C65.03 41.21, 50.95 39.42, 1.66 41.92 M84.92 40.71 C66.22 40.31, 47.96 40.11, 0.78 40.44 M-1.85 38.86 C1.01 28.37, -1.51 20.25, -0.17 -0.09 M-0.76 40.73 C-0.85 28.35, -1.07 18.89, -0.1 -0.11" stroke="#000000" stroke-width="1" fill="none"></path></g><g stroke-linecap="round" transform="translate(591 266) rotate(0 42 20)"><path d="M1.2 1.51 C19.01 2.77, 37.28 1.34, 82.06 0.14 M-0.74 0.18 C32.37 -0.18, 63.68 0.58, 83.78 -0.15 M84.49 1.8 C83.23 11.75, 84.62 28.38, 83.21 41.66 M84.27 0.92 C84.39 16.41, 83.76 32.33, 83.88 40.78 M84.24 38.15 C53.93 40.88, 24.22 38.35, -0.32 39.83 M84.99 39.24 C59.91 40.16, 33.39 39.94, 0.24 39.9 M-1.71 39.94 C1.32 27.76, -1.66 17.25, 1.45 1.82 M-0.7 40.9 C-0.62 31.72, 0.33 22.02, 0.84 0.41" stroke="#000000" stroke-width="1" fill="none"></path></g><g stroke-linecap="round"><g transform="translate(601 225) rotate(0 1.9360041373735157 15.39571515763646)"><path d="M0.74 0.53 C1.5 5.51, 3.69 25.93, 4.2 31.03 M-0.33 -0.24 C0.41 4.93, 3.25 24.52, 3.88 29.45" stroke="#000000" stroke-width="1" fill="none"></path></g><g transform="translate(601 225) rotate(0 1.9360041373735157 15.39571515763646)"><path d="M-2.49 17.62 C0.17 20.67, 2.16 24.29, 3.55 28.54 M-3.57 15.8 C-0.47 19.75, 1.47 24.1, 4.34 29.88" stroke="#000000" stroke-width="1" fill="none"></path></g><g transform="translate(601 225) rotate(0 1.9360041373735157 15.39571515763646)"><path d="M7.72 16.22 C7.63 19.71, 6.86 23.71, 3.55 28.54 M6.64 14.4 C6.67 18.82, 5.53 23.6, 4.34 29.88" stroke="#000000" stroke-width="1" fill="none"></path></g></g><g stroke-linecap="round"><g transform="translate(658 228) rotate(0 0.6962027810513973 19.20779594105204)"><path d="M-0.57 0.48 C-0.16 6.81, 1.42 32.31, 1.96 38.73 M1.34 -0.31 C1.63 5.61, 0.83 30.75, 0.99 36.99" stroke="#000000" stroke-width="1" fill="none"></path></g><g transform="translate(658 228) rotate(0 0.6962027810513973 19.20779594105204)"><path d="M-4.64 19 C-2.48 24.82, -0.45 28.47, 1.56 35.26 M-5.38 18.16 C-3.9 24.68, -1.6 31.34, 0.46 36.16" stroke="#000000" stroke-width="1" fill="none"></path></g><g transform="translate(658 228) rotate(0 0.6962027810513973 19.20779594105204)"><path d="M8.37 19.09 C7.17 24.82, 5.84 28.44, 1.56 35.26 M7.64 18.25 C4.96 24.66, 3.11 31.3, 0.46 36.16" stroke="#000000" stroke-width="1" fill="none"></path></g></g><g transform="translate(517 308) rotate(0 61.5 13)"><text x="0" y="18" font-family="Virgil, Segoe UI Emoji" font-size="20px" fill="#000000" text-anchor="start" style="white-space: pre;" direction="ltr">um dois tres</text></g><g transform="translate(113.5 365.5) rotate(0 203 13)"><text x="0" y="18" font-family="Virgil, Segoe UI Emoji" font-size="20px" fill="#000000" text-anchor="start" style="white-space: pre;" direction="ltr">zero        um          dois        tres</text></g><g stroke-linecap="round" transform="translate(100.5 357.5) rotate(0 36 19.5)"><path d="M26.91 1.17 C33.7 -0.11, 43.23 0.78, 50.31 2.53 C57.4 4.28, 66.01 7.89, 69.41 11.67 C72.82 15.45, 72.86 21.34, 70.74 25.22 C68.62 29.09, 62.8 32.54, 56.7 34.92 C50.6 37.3, 41.69 39.66, 34.12 39.5 C26.55 39.34, 16.84 36.99, 11.3 33.98 C5.75 30.97, 1.59 25.65, 0.86 21.44 C0.14 17.23, 2.34 12.21, 6.94 8.73 C11.53 5.24, 24.71 1.73, 28.44 0.54 C32.17 -0.64, 29.18 1.33, 29.32 1.61 M17.99 2.32 C24.12 0.46, 35.37 0.93, 43.24 1.81 C51.11 2.69, 60.39 4.44, 65.23 7.6 C70.07 10.76, 72.54 16.5, 72.29 20.77 C72.04 25.04, 68.96 30.1, 63.71 33.22 C58.46 36.34, 48.37 38.93, 40.8 39.51 C33.23 40.09, 24.59 38.99, 18.27 36.7 C11.95 34.41, 5.66 30.04, 2.87 25.79 C0.08 21.54, -1.23 15.24, 1.54 11.21 C4.31 7.17, 16.46 2.93, 19.49 1.6 C22.52 0.26, 19.67 2.91, 19.72 3.18" stroke="#000000" stroke-width="1" fill="none"></path></g><g stroke-linecap="round" transform="translate(216.5 361) rotate(0 36 19.5)"><path d="M42.34 -0.29 C49.67 0.17, 59.08 4.52, 64.13 7.76 C69.17 11.01, 72.51 15.2, 72.6 19.17 C72.69 23.15, 69.76 28.22, 64.69 31.62 C59.62 35.01, 49.82 38.65, 42.18 39.54 C34.55 40.43, 25.43 39.05, 18.87 36.96 C12.32 34.88, 5.64 30.93, 2.84 27.05 C0.04 23.16, -0.43 17.63, 2.08 13.66 C4.59 9.7, 10.91 5.5, 17.92 3.25 C24.94 1.01, 39.3 0.44, 44.14 0.19 C48.99 -0.05, 47.15 1.58, 46.98 1.79 M41.96 -0.01 C49.48 0.72, 59.71 4.39, 64.73 7.66 C69.76 10.93, 72.15 15.42, 72.09 19.62 C72.03 23.83, 69.18 29.73, 64.37 32.87 C59.57 36.02, 50.81 37.67, 43.25 38.5 C35.69 39.33, 25.71 39.7, 19 37.86 C12.28 36.02, 5.74 31.79, 2.96 27.47 C0.19 23.14, 0.04 15.98, 2.34 11.92 C4.63 7.85, 10.25 4.96, 16.73 3.06 C23.21 1.16, 36.96 1.09, 41.23 0.52 C45.5 -0.05, 42.47 -0.8, 42.36 -0.37" stroke="#000000" stroke-width="1" fill="none"></path></g><g stroke-linecap="round" transform="translate(343.5 358) rotate(0 36 19.5)"><path d="M46.48 1.73 C53.65 2.73, 63.25 6.17, 67.43 9.72 C71.6 13.27, 72.79 19.07, 71.54 23.04 C70.28 27, 65.45 30.77, 59.9 33.53 C54.35 36.28, 45.81 39.22, 38.23 39.54 C30.64 39.86, 20.51 38.09, 14.39 35.44 C8.27 32.79, 3.09 27.77, 1.5 23.64 C-0.1 19.5, 1.24 14.33, 4.82 10.63 C8.39 6.94, 15.22 2.78, 22.96 1.48 C30.71 0.18, 45.76 2.51, 51.27 2.83 C56.78 3.15, 56.42 3.2, 56.05 3.4 M36.13 1.38 C43.79 1.19, 54.33 2.21, 60.29 4.8 C66.24 7.38, 70.56 12.69, 71.83 16.9 C73.11 21.12, 71.97 26.48, 67.96 30.09 C63.94 33.71, 54.97 37.21, 47.76 38.59 C40.55 39.98, 31.69 39.96, 24.69 38.42 C17.68 36.88, 9.94 33.26, 5.75 29.34 C1.55 25.43, -1.77 19.2, -0.47 14.93 C0.82 10.66, 7.34 6.14, 13.52 3.75 C19.71 1.35, 33.01 1.25, 36.66 0.57 C40.3 -0.11, 35.27 -0.76, 35.37 -0.35" stroke="#000000" stroke-width="1" fill="none"></path></g><g stroke-linecap="round"><g transform="translate(178.5 374.5) rotate(0 18.933513190723033 -0.7787055294727452)"><path d="M0.39 0.75 C7.02 0.78, 32.57 -0.33, 38.72 -0.46 M-0.86 0.09 C5.76 -0.18, 31.98 -1.97, 38.16 -2.3" stroke="#000000" stroke-width="1" fill="none"></path></g><g transform="translate(178.5 374.5) rotate(0 18.933513190723033 -0.7787055294727452)"><path d="M21.92 6.44 C25.39 2.54, 29.81 3.75, 39.3 -2.55 M21.56 5.82 C27.96 2.94, 34.91 -0.49, 38.77 -2.08" stroke="#000000" stroke-width="1" fill="none"></path></g><g transform="translate(178.5 374.5) rotate(0 18.933513190723033 -0.7787055294727452)"><path d="M21.11 -6.54 C24.69 -7.63, 29.28 -3.62, 39.3 -2.55 M20.76 -7.16 C27.43 -5.01, 34.7 -3.41, 38.77 -2.08" stroke="#000000" stroke-width="1" fill="none"></path></g></g><g transform="translate(192.5 344.5) rotate(0 2.5 13)"><text x="0" y="18" font-family="Virgil, Segoe UI Emoji" font-size="20px" fill="#000000" text-anchor="start" style="white-space: pre;" direction="ltr">1</text></g><g stroke-linecap="round"><g transform="translate(132.5 354.5) rotate(0 1.2387195684015921 -12.54001886238811)"><path d="M-0.66 0.94 C-0.26 -3.19, 2.72 -20.13, 3.14 -24.28 M1.19 0.39 C1.47 -4.13, 2.82 -21.67, 2.79 -26.02" stroke="#000000" stroke-width="1" fill="none"></path></g><g transform="translate(132.5 354.5) rotate(0 1.2387195684015921 -12.54001886238811)"><path d="M7.58 -12.89 C5.92 -18.56, 4.89 -23.04, 2.25 -24.93 M7.02 -14.05 C5.59 -18.15, 4.17 -22.53, 2.59 -25.45" stroke="#000000" stroke-width="1" fill="none"></path></g><g transform="translate(132.5 354.5) rotate(0 1.2387195684015921 -12.54001886238811)"><path d="M-0.99 -13.24 C0.44 -18.74, 2.5 -23.09, 2.25 -24.93 M-1.55 -14.41 C0.07 -18.43, 1.69 -22.67, 2.59 -25.45" stroke="#000000" stroke-width="1" fill="none"></path></g></g><g stroke-linecap="round"><g transform="translate(129.5 325.5) rotate(0 -11.952754219812334 4.9971063792053485)"><path d="M0.94 1.14 C-3.19 2.56, -20.13 6.76, -24.28 7.85 M-0.02 0.69 C-4.3 2.36, -20.83 7.95, -24.85 9.3" stroke="#000000" stroke-width="1" fill="none"></path></g></g><g stroke-linecap="round"><g transform="translate(96.5 338.5) rotate(0 9.561870910203993 9.550706458040509)"><path d="M1.14 0.72 C4.39 3.74, 15.92 16.26, 18.85 19.05 M0.28 0.05 C3.41 2.67, 14.91 14.4, 17.82 17.48" stroke="#000000" stroke-width="1" fill="none"></path></g><g transform="translate(96.5 338.5) rotate(0 9.561870910203993 9.550706458040509)"><path d="M6.83 11.59 C10.12 12.7, 11.3 15.59, 18.55 18.1 M6.47 11.91 C10.61 13.81, 14.23 16.4, 18.21 17.38" stroke="#000000" stroke-width="1" fill="none"></path></g><g transform="translate(96.5 338.5) rotate(0 9.561870910203993 9.550706458040509)"><path d="M13.26 5.36 C15.02 8.06, 14.63 12.47, 18.55 18.1 M12.9 5.69 C14.81 9.79, 16.14 14.59, 18.21 17.38" stroke="#000000" stroke-width="1" fill="none"></path></g></g><g transform="translate(64.5 332.5) rotate(0 7 13)"><text x="0" y="18" font-family="Virgil, Segoe UI Emoji" font-size="20px" fill="#000000" text-anchor="start" style="white-space: pre;" direction="ltr">0</text></g><g stroke-linecap="round"><g transform="translate(364.5 395.5) rotate(0 -68.81610903506169 39.57531664595007)"><path d="M-0.32 -0.52 C-23.45 12.59, -115.77 66.31, -138.95 79.67 M1.72 1.83 C-21.47 15.1, -115.75 65.26, -139.35 77.89" stroke="#000000" stroke-width="1" fill="none"></path></g><g transform="translate(364.5 395.5) rotate(0 -68.81610903506169 39.57531664595007)"><path d="M-120.18 57.31 C-123.77 62.88, -129.54 69.72, -139.29 79.19 M-119.63 56.47 C-125.09 62.65, -133.16 70.37, -139.33 77.14" stroke="#000000" stroke-width="1" fill="none"></path></g><g transform="translate(364.5 395.5) rotate(0 -68.81610903506169 39.57531664595007)"><path d="M-110.51 75.41 C-117.03 75.76, -125.59 77.4, -139.29 79.19 M-109.96 74.57 C-118.65 74.89, -129.85 76.75, -139.33 77.14" stroke="#000000" stroke-width="1" fill="none"></path></g></g><g stroke-linecap="round"><g transform="translate(218.5 478.5) rotate(0 -34.25873421140949 -40.10099856230897)"><path d="M-0.52 1.05 C-12.25 -12.14, -57.86 -66.06, -69.33 -79.43 M1.41 0.55 C-10.51 -12.96, -58.07 -67.64, -69.93 -81.25" stroke="#000000" stroke-width="1" fill="none"></path></g><g transform="translate(218.5 478.5) rotate(0 -34.25873421140949 -40.10099856230897)"><path d="M-41.94 -65.62 C-52.86 -71.38, -62.6 -78.03, -68.64 -80.77 M-42.77 -66.13 C-53.13 -72.93, -61.95 -77.07, -70.69 -81.22" stroke="#000000" stroke-width="1" fill="none"></path></g><g transform="translate(218.5 478.5) rotate(0 -34.25873421140949 -40.10099856230897)"><path d="M-57.41 -52.14 C-62.3 -63.06, -66.05 -74.92, -68.64 -80.77 M-58.25 -52.65 C-63.14 -64.17, -66.47 -73.09, -70.69 -81.22" stroke="#000000" stroke-width="1" fill="none"></path></g></g><g stroke-linecap="round" transform="translate(455 357.5) rotate(0 36 19.5)"><path d="M32.35 -0.52 C39.75 -1.21, 50.87 1.1, 57.44 3.45 C64.01 5.8, 69.86 9.55, 71.78 13.56 C73.7 17.58, 72.57 23.49, 68.97 27.54 C65.38 31.59, 57.25 35.99, 50.2 37.84 C43.15 39.69, 33.92 39.95, 26.68 38.62 C19.45 37.29, 11.3 33.36, 6.77 29.86 C2.25 26.36, -1.22 21.53, -0.47 17.64 C0.27 13.75, 5.33 9.34, 11.23 6.54 C17.14 3.73, 30.8 1.74, 34.94 0.8 C39.09 -0.15, 36 0.49, 36.1 0.85 M23.82 0.45 C30.48 -1.26, 40.04 -0.82, 47.19 0.57 C54.34 1.96, 62.53 5.08, 66.72 8.78 C70.9 12.48, 73.67 18.62, 72.29 22.77 C70.92 26.91, 64.24 30.91, 58.45 33.64 C52.65 36.37, 45.06 38.81, 37.53 39.17 C30 39.52, 19.55 38.3, 13.26 35.77 C6.97 33.25, 1.21 28.47, -0.23 24.02 C-1.67 19.56, 0.74 12.63, 4.62 9.06 C8.5 5.49, 19.91 3.93, 23.05 2.61 C26.2 1.29, 23.2 1.15, 23.52 1.15" stroke="#000000" stroke-width="1" fill="none"></path></g><g stroke-linecap="round"><g transform="translate(303 375.5) rotate(0 18.640307463980264 -1.1844924427568913)"><path d="M0.55 -0.35 C6.75 -0.81, 31.75 -1.78, 37.9 -2.02 M-0.62 -1.57 C5.36 -1.98, 30.73 -1.13, 36.89 -1.02" stroke="#000000" stroke-width="1" fill="none"></path></g><g transform="translate(303 375.5) rotate(0 18.640307463980264 -1.1844924427568913)"><path d="M18.32 4.86 C23.66 1.89, 30.45 0.91, 37.16 0.77 M18.47 5.88 C23.93 2.56, 28.54 2.04, 36.39 -1.87" stroke="#000000" stroke-width="1" fill="none"></path></g><g transform="translate(303 375.5) rotate(0 18.640307463980264 -1.1844924427568913)"><path d="M18.65 -8.14 C23.95 -6.46, 30.62 -2.79, 37.16 0.77 M18.8 -7.12 C24.09 -6.71, 28.61 -3.5, 36.39 -1.87" stroke="#000000" stroke-width="1" fill="none"></path></g></g><g transform="translate(310 340) rotate(0 7 13)"><text x="0" y="18" font-family="Virgil, Segoe UI Emoji" font-size="20px" fill="#000000" text-anchor="start" style="white-space: pre;" direction="ltr">0</text></g><g stroke-linecap="round"><g transform="translate(420 374) rotate(0 19.004515162063797 -0.3186120201181666)"><path d="M-0.08 -1.13 C6.05 -1.09, 30.78 -0.11, 37.26 0.04 M-1.58 0.89 C4.9 0.63, 32.9 -1.02, 39.59 -1.53" stroke="#000000" stroke-width="1" fill="none"></path></g><g transform="translate(420 374) rotate(0 19.004515162063797 -0.3186120201181666)"><path d="M20.41 4.96 C29.75 4.89, 35.22 1.86, 41.21 -1.59 M23.14 6.8 C26.54 3.85, 32.63 0.76, 39.16 -0.71" stroke="#000000" stroke-width="1" fill="none"></path></g><g transform="translate(420 374) rotate(0 19.004515162063797 -0.3186120201181666)"><path d="M19.55 -8.01 C29.17 -3.69, 34.93 -2.32, 41.21 -1.59 M22.29 -6.18 C25.84 -5.27, 32.18 -4.5, 39.16 -0.71" stroke="#000000" stroke-width="1" fill="none"></path></g></g><g transform="translate(434 344) rotate(0 2.5 13)"><text x="0" y="18" font-family="Virgil, Segoe UI Emoji" font-size="20px" fill="#000000" text-anchor="start" style="white-space: pre;" direction="ltr">1</text></g><g transform="translate(593 386) rotate(0 50 13)"><text x="0" y="18" font-family="Virgil, Segoe UI Emoji" font-size="20px" fill="#000000" text-anchor="start" style="white-space: pre;" direction="ltr">1  1  0  1 </text></g><g transform="translate(322 440) rotate(0 7 13)"><text x="0" y="18" font-family="Virgil, Segoe UI Emoji" font-size="20px" fill="#000000" text-anchor="start" style="white-space: pre;" direction="ltr">0</text></g><g stroke-linecap="round"><g transform="translate(271 359) rotate(0 1.9022329114377499 -14.306417211475775)"><path d="M-0.41 -0.76 C0.34 -5.66, 3.49 -25.53, 4.21 -30.07 M1.58 1.46 C2.21 -3.27, 3.12 -23.89, 3.37 -29.1" stroke="#000000" stroke-width="1" fill="none"></path></g><g transform="translate(271 359) rotate(0 1.9022329114377499 -14.306417211475775)"><path d="M6.8 -14.87 C5.28 -19.12, 6.6 -22.24, 4.25 -30.38 M7.14 -15.13 C5.53 -19.84, 4.53 -24.16, 3.23 -28.9" stroke="#000000" stroke-width="1" fill="none"></path></g><g transform="translate(271 359) rotate(0 1.9022329114377499 -14.306417211475775)"><path d="M-3.2 -15.34 C-1.95 -19.43, 2.15 -22.41, 4.25 -30.38 M-2.86 -15.61 C-1.09 -20.17, 1.3 -24.33, 3.23 -28.9" stroke="#000000" stroke-width="1" fill="none"></path></g></g><g stroke-linecap="round"><g transform="translate(273 324) rotate(0 -14.877424741261677 1.6783136366773306)"><path d="M0.68 -0.23 C-4.26 0.42, -24.56 2.88, -29.67 3.48 M-0.41 -1.39 C-5.49 -0.55, -25.39 3.79, -30.44 4.75" stroke="#000000" stroke-width="1" fill="none"></path></g></g><g stroke-linecap="round"><g transform="translate(237 330) rotate(0 6.707978633595587 13.56767976507544)"><path d="M1.05 -1.15 C2.88 3.5, 9.25 23.52, 11.06 28.28 M0.14 0.86 C2.34 5.1, 11.46 21.71, 13.28 26.31" stroke="#000000" stroke-width="1" fill="none"></path></g><g transform="translate(237 330) rotate(0 6.707978633595587 13.56767976507544)"><path d="M0.94 14.46 C6.09 18.64, 8.35 22.88, 14.1 25.88 M2.62 15.21 C5.06 18.04, 7.82 21.65, 13.16 25.87" stroke="#000000" stroke-width="1" fill="none"></path></g><g transform="translate(237 330) rotate(0 6.707978633595587 13.56767976507544)"><path d="M10.33 9.96 C12.65 15.59, 12.06 21.2, 14.1 25.88 M12.01 10.7 C12.05 14.79, 12.37 19.58, 13.16 25.87" stroke="#000000" stroke-width="1" fill="none"></path></g></g><g transform="translate(247 308) rotate(0 2.5 13)"><text x="0" y="18" font-family="Virgil, Segoe UI Emoji" font-size="20px" fill="#000000" text-anchor="start" style="white-space: pre;" direction="ltr">1</text></g><g transform="translate(10 529) rotate(0 250.5 26)"><text x="0" y="18" font-family="Virgil, Segoe UI Emoji" font-size="20px" fill="#000000" text-anchor="start" style="white-space: pre;" direction="ltr">Aluno 1    00         11            01          10</text><text x="0" y="44" font-family="Virgil, Segoe UI Emoji" font-size="20px" fill="#000000" text-anchor="start" style="white-space: pre;" direction="ltr">Aluno 2   01         10            1 1          00</text></g><g transform="translate(601 475) rotate(0 136 104)"><text x="0" y="18" font-family="Virgil, Segoe UI Emoji" font-size="20px" fill="#000000" text-anchor="start" style="white-space: pre;" direction="ltr">00 0:    0 0  0    0 1   1</text><text x="0" y="44" font-family="Virgil, Segoe UI Emoji" font-size="20px" fill="#000000" text-anchor="start" style="white-space: pre;" direction="ltr">00 1:     1  1   0   0 1   1</text><text x="0" y="70" font-family="Virgil, Segoe UI Emoji" font-size="20px" fill="#000000" text-anchor="start" style="white-space: pre;" direction="ltr">01 0:</text><text x="0" y="96" font-family="Virgil, Segoe UI Emoji" font-size="20px" fill="#000000" text-anchor="start" style="white-space: pre;" direction="ltr">01 1:</text><text x="0" y="122" font-family="Virgil, Segoe UI Emoji" font-size="20px" fill="#000000" text-anchor="start" style="white-space: pre;" direction="ltr">10 0:</text><text x="0" y="148" font-family="Virgil, Segoe UI Emoji" font-size="20px" fill="#000000" text-anchor="start" style="white-space: pre;" direction="ltr">10 1:</text><text x="0" y="174" font-family="Virgil, Segoe UI Emoji" font-size="20px" fill="#000000" text-anchor="start" style="white-space: pre;" direction="ltr">11 0:</text><text x="0" y="200" font-family="Virgil, Segoe UI Emoji" font-size="20px" fill="#000000" text-anchor="start" style="white-space: pre;" direction="ltr">11 1: </text></g><g transform="translate(586 419) rotate(0 156 26)"><text x="0" y="18" font-family="Virgil, Segoe UI Emoji" font-size="20px" fill="#000000" text-anchor="start" style="white-space: pre;" direction="ltr">          Aluno1      Aluno 2</text><text x="0" y="44" font-family="Virgil, Segoe UI Emoji" font-size="20px" fill="#000000" text-anchor="start" style="white-space: pre;" direction="ltr">E1E0 In   P1P0 Out  P1P0 Out</text></g><g stroke-linecap="round" transform="translate(106 525) rotate(0 24.5 13.5)"><path d="M-0.07 0.19 C13.57 -0.94, 28.36 1.15, 47.52 0.25 M0.26 -0.18 C10.25 -1.27, 20.98 -1.19, 49.34 0.31 M47.82 -0.16 C50.83 8.39, 49.9 14.75, 48.25 26.19 M49.21 0.83 C48.57 7.72, 49.87 16.49, 48.02 26.96 M48.72 25.17 C29.5 26.27, 13.02 28.41, -0.94 25.69 M48.41 26.9 C29.88 28.37, 12.22 27.49, -0.35 27.4 M1.93 25.59 C-1.44 17.37, -1.53 9.51, 0.41 0.95 M0.27 27.54 C-0.61 17.17, -0.65 5.43, -0.78 0.08" stroke="#000000" stroke-width="1" fill="none"></path></g></svg>