<svg version="1.1" xmlns="http://www.w3.org/2000/svg" viewBox="0 0 799 331" width="799" height="331">
  <!-- svg-source:excalidraw -->
  
  <defs>
    <style>
      @font-face {
        font-family: "Virgil";
        src: url("https://excalidraw.com/Virgil.woff2");
      }
      @font-face {
        font-family: "Cascadia";
        src: url("https://excalidraw.com/Cascadia.woff2");
      }
    </style>
  </defs>
  <rect x="0" y="0" width="799" height="331" fill="#ffffff"></rect><g transform="translate(10 10) rotate(0 238.5 50)"><text x="0" y="18" font-family="Virgil, Segoe UI Emoji" font-size="20px" fill="#000000" text-anchor="start" style="white-space: pre;" direction="ltr">Sequencia    0 0 1  0  1   0   1   1   0  1  .....</text><text x="0" y="43" font-family="Virgil, Segoe UI Emoji" font-size="20px" fill="#000000" text-anchor="start" style="white-space: pre;" direction="ltr">numero de 1's     1     2       3  4      5 ....</text><text x="0" y="68" font-family="Virgil, Segoe UI Emoji" font-size="20px" fill="#000000" text-anchor="start" style="white-space: pre;" direction="ltr">paridade é impar 1     0        1  0      1 .....</text><text x="0" y="93" font-family="Virgil, Segoe UI Emoji" font-size="20px" fill="#000000" text-anchor="start" style="white-space: pre;" direction="ltr">           </text></g><g transform="translate(169 150) rotate(0 21 12.5)"><text x="0" y="18" font-family="Virgil, Segoe UI Emoji" font-size="20px" fill="#000000" text-anchor="start" style="white-space: pre;" direction="ltr">par </text></g><g transform="translate(328 158) rotate(0 24.5 12.5)"><text x="0" y="18" font-family="Virgil, Segoe UI Emoji" font-size="20px" fill="#000000" text-anchor="start" style="white-space: pre;" direction="ltr">impar</text></g><g stroke-linecap="round" transform="translate(140 146) rotate(0 39 23.5)"><path d="M54.02 2.48 C61.64 3.93, 69.77 8.69, 73.64 12.8 C77.5 16.92, 78.75 22.36, 77.22 27.17 C75.7 31.97, 70.9 38.21, 64.5 41.65 C58.09 45.08, 47.4 47.75, 38.79 47.77 C30.17 47.79, 19.28 45.06, 12.82 41.77 C6.36 38.47, 1.17 32.94, 0.02 28.01 C-1.13 23.07, 1.59 16.4, 5.91 12.13 C10.22 7.87, 18.39 4.32, 25.93 2.4 C33.46 0.48, 46.15 0.53, 51.13 0.61 C56.12 0.68, 55.05 2.54, 55.84 2.84 C56.64 3.15, 56.27 2.16, 55.9 2.44 M34.04 1.25 C41.95 0.48, 53.73 0.7, 60.58 3.28 C67.44 5.85, 72.86 12.05, 75.17 16.71 C77.48 21.37, 77.24 26.74, 74.42 31.22 C71.6 35.69, 65.64 40.92, 58.23 43.57 C50.83 46.21, 38.33 47.97, 29.98 47.08 C21.64 46.18, 13.13 42.04, 8.17 38.18 C3.22 34.32, -0.1 28.75, 0.25 23.91 C0.6 19.07, 5.05 13.07, 10.27 9.15 C15.5 5.22, 27.68 1.84, 31.59 0.36 C35.51 -1.12, 33.2 0.5, 33.74 0.3 C34.29 0.09, 34.47 -1.26, 34.86 -0.85" stroke="#000000" stroke-width="1" fill="none"></path></g><g stroke-linecap="round" transform="translate(311 152) rotate(0 47.5 26)"><path d="M29.5 1.44 C37.48 -0.91, 48.68 -0.45, 57.77 0.8 C66.85 2.05, 77.86 5.15, 84.01 8.95 C90.15 12.74, 94.1 18.27, 94.64 23.57 C95.19 28.87, 92.26 36.35, 87.27 40.75 C82.27 45.14, 73.54 48.21, 64.67 49.95 C55.8 51.69, 43.19 52.63, 34.02 51.16 C24.85 49.69, 15.19 45.29, 9.64 41.13 C4.1 36.97, 1.02 31.12, 0.75 26.18 C0.48 21.24, 1.37 15.79, 8.02 11.49 C14.67 7.19, 33.11 2.05, 40.65 0.37 C48.19 -1.31, 53.07 0.88, 53.26 1.42 M26.05 3.22 C33.46 1, 44.51 0.64, 53.82 1.59 C63.12 2.55, 74.88 5.66, 81.89 8.97 C88.9 12.28, 94.44 16.47, 95.87 21.46 C97.3 26.44, 95.35 34.21, 90.47 38.88 C85.59 43.54, 75.43 47.47, 66.59 49.42 C57.76 51.38, 46.67 51.78, 37.46 50.62 C28.26 49.46, 17.59 46.21, 11.36 42.47 C5.14 38.74, 0.82 33.04, 0.11 28.21 C-0.59 23.39, 2.8 17.8, 7.16 13.54 C11.51 9.28, 23.19 4.34, 26.22 2.65 C29.25 0.96, 25.28 2.82, 25.35 3.39" stroke="#000000" stroke-width="1" fill="none"></path></g><g stroke-linecap="round"><g transform="translate(222 172) rotate(0 45.79896774954631 1.3322383485781017)"><path d="M0.13 0.19 C15.53 0.78, 77.39 3.15, 92.86 3.43 M-1.26 -0.76 C14.01 -0.53, 76.71 0.97, 92.37 1.53" stroke="#000000" stroke-width="1" fill="none"></path></g><g transform="translate(222 172) rotate(0 45.79896774954631 1.3322383485781017)"><path d="M64.2 12.41 C74.28 9.32, 81.36 4.63, 91.5 1.7 M64.07 11.68 C74.1 6.93, 83.41 4.81, 91.88 1.39" stroke="#000000" stroke-width="1" fill="none"></path></g><g transform="translate(222 172) rotate(0 45.79896774954631 1.3322383485781017)"><path d="M64.79 -8.1 C74.65 -4.23, 81.53 -1.94, 91.5 1.7 M64.66 -8.84 C74.3 -6.91, 83.42 -2.36, 91.88 1.39" stroke="#000000" stroke-width="1" fill="none"></path></g></g><g transform="translate(255 142) rotate(0 2.5 12.5)"><text x="0" y="18" font-family="Virgil, Segoe UI Emoji" font-size="20px" fill="#000000" text-anchor="start" style="white-space: pre;" direction="ltr">1</text></g><g stroke-linecap="round"><g transform="translate(391 160) rotate(0 3.5583267003996184 -10.001845009471282)"><path d="M0.63 -1 C1.91 -4.63, 6.47 -17.68, 7.61 -21.09 M-0.49 1.08 C0.68 -2.41, 5.73 -16.01, 6.98 -19.6" stroke="#000000" stroke-width="1" fill="none"></path></g></g><g stroke-linecap="round"><g transform="translate(397 142) rotate(0 -12.958318886915208 -8.337584284837362)"><path d="M-0.85 -0.08 C-5.16 -2.51, -21.89 -12.08, -26.26 -14.66 M0.91 -1.17 C-3.46 -3.96, -22.02 -14.38, -26.83 -16.6" stroke="#000000" stroke-width="1" fill="none"></path></g></g><g stroke-linecap="round"><g transform="translate(371 126) rotate(0 -3.924918545563685 9.806540500675311)"><path d="M0.73 0.61 C-0.73 3.72, -6.68 16.82, -8.11 19.72 M-0.34 -0.11 C-1.94 3.17, -7.32 14.83, -8.58 17.98" stroke="#000000" stroke-width="1" fill="none"></path></g><g transform="translate(371 126) rotate(0 -3.924918545563685 9.806540500675311)"><path d="M-7.4 8.27 C-7.44 12.27, -9.17 14.17, -9.36 17.95 M-8.31 7.23 C-8.18 9.96, -8.48 12.44, -8.65 17.89" stroke="#000000" stroke-width="1" fill="none"></path></g><g transform="translate(371 126) rotate(0 -3.924918545563685 9.806540500675311)"><path d="M-0.81 11.14 C-3.22 14.16, -7.29 15.04, -9.36 17.95 M-1.72 10.1 C-3.12 12.13, -4.93 13.95, -8.65 17.89" stroke="#000000" stroke-width="1" fill="none"></path></g></g><g transform="translate(403 118) rotate(0 7 12.5)"><text x="0" y="18" font-family="Virgil, Segoe UI Emoji" font-size="20px" fill="#000000" text-anchor="start" style="white-space: pre;" direction="ltr">0</text></g><g stroke-linecap="round"><g transform="translate(319 202) rotate(0 -51.56883892730809 -3.9277185194194146)"><path d="M-0.76 0.34 C-17.88 -1.05, -85.97 -6.8, -103.15 -8.2 M1.04 -0.52 C-16.22 -1.75, -87.11 -5.73, -104.18 -6.76" stroke="#000000" stroke-width="1" fill="none"></path></g><g transform="translate(319 202) rotate(0 -51.56883892730809 -3.9277185194194146)"><path d="M-74.87 -15.62 C-83.38 -14.68, -90.75 -12.79, -105.39 -5.18 M-75.19 -14.84 C-86.61 -11.65, -95.98 -9.53, -104.04 -6.85" stroke="#000000" stroke-width="1" fill="none"></path></g><g transform="translate(319 202) rotate(0 -51.56883892730809 -3.9277185194194146)"><path d="M-76.06 4.87 C-84.29 0.38, -91.34 -3.17, -105.39 -5.18 M-76.38 5.64 C-87.49 1.23, -96.42 -4.25, -104.04 -6.85" stroke="#000000" stroke-width="1" fill="none"></path></g></g><g transform="translate(262 220) rotate(0 2.5 12.5)"><text x="0" y="18" font-family="Virgil, Segoe UI Emoji" font-size="20px" fill="#000000" text-anchor="start" style="white-space: pre;" direction="ltr">1</text></g><g stroke-linecap="round"><g transform="translate(211.5 150) rotate(0 3.149630893538756 -11.07096390574705)"><path d="M0.1 0.42 C1.52 -3, 6.51 -17.04, 7.6 -20.63 M-1.3 -0.4 C0.09 -4.19, 5.8 -19.31, 6.96 -22.57" stroke="#000000" stroke-width="1" fill="none"></path></g></g><g stroke-linecap="round"><g transform="translate(217.5 132) rotate(0 -13.483699263171275 -7.38114394024015)"><path d="M0.42 0.6 C-4 -1.98, -22.04 -12.9, -26.63 -15.36 M-0.81 -0.13 C-5.35 -2.55, -22.86 -11.36, -27.39 -14.01" stroke="#000000" stroke-width="1" fill="none"></path></g></g><g stroke-linecap="round"><g transform="translate(191.5 116) rotate(0 -4.949867898900948 9.899723171601067)"><path d="M0.6 0.37 C-0.98 3.43, -7.9 15.88, -9.36 18.84 M-0.55 -0.49 C-2.32 2.73, -9.18 17.05, -10.5 20.29" stroke="#000000" stroke-width="1" fill="none"></path></g><g transform="translate(191.5 116) rotate(0 -4.949867898900948 9.899723171601067)"><path d="M-9.39 9.49 C-10.06 13.79, -10.97 15.26, -11.51 19.57 M-9.48 10 C-9.67 13.49, -9.85 17.47, -10.56 20.8" stroke="#000000" stroke-width="1" fill="none"></path></g><g transform="translate(191.5 116) rotate(0 -4.949867898900948 9.899723171601067)"><path d="M-2.84 12.45 C-5.54 15.87, -8.47 16.43, -11.51 19.57 M-2.93 12.96 C-5.51 15.4, -8.09 18.3, -10.56 20.8" stroke="#000000" stroke-width="1" fill="none"></path></g></g><g transform="translate(223.5 108) rotate(0 7 12.5)"><text x="0" y="18" font-family="Virgil, Segoe UI Emoji" font-size="20px" fill="#000000" text-anchor="start" style="white-space: pre;" direction="ltr">0</text></g><g transform="translate(509 146) rotate(0 137 87.5)"><text x="0" y="18" font-family="Virgil, Segoe UI Emoji" font-size="20px" fill="#000000" text-anchor="start" style="white-space: pre;" direction="ltr">linha: Estado IN  Prox Out</text><text x="0" y="43" font-family="Virgil, Segoe UI Emoji" font-size="20px" fill="#000000" text-anchor="start" style="white-space: pre;" direction="ltr"> 0 :    Par   0  Par   0</text><text x="0" y="68" font-family="Virgil, Segoe UI Emoji" font-size="20px" fill="#000000" text-anchor="start" style="white-space: pre;" direction="ltr"> 1:      Par   1   Impar 0</text><text x="0" y="93" font-family="Virgil, Segoe UI Emoji" font-size="20px" fill="#000000" text-anchor="start" style="white-space: pre;" direction="ltr"> 2:   Impar  0   Impar  1</text><text x="0" y="118" font-family="Virgil, Segoe UI Emoji" font-size="20px" fill="#000000" text-anchor="start" style="white-space: pre;" direction="ltr"> 3:   Impar   1   Par  1</text><text x="0" y="143" font-family="Virgil, Segoe UI Emoji" font-size="20px" fill="#000000" text-anchor="start" style="white-space: pre;" direction="ltr"></text><text x="0" y="168" font-family="Virgil, Segoe UI Emoji" font-size="20px" fill="#000000" text-anchor="start" style="white-space: pre;" direction="ltr">Modelo de Moore</text></g><g stroke-linecap="round" transform="translate(679 171) rotate(0 55 53)"><path d="M1.76 0.92 C42.11 0.63, 83.91 -0.33, 110.63 0.09 M-0.17 -0.72 C32.92 0.94, 64.32 -0.49, 109.52 -0.61 M110.48 1.37 C109.06 32.82, 107.66 64.41, 110.85 105.55 M110.73 0.31 C109.6 33.09, 108.96 65.7, 110.16 105.14 M110.1 107.56 C79.78 105.84, 50.62 108.01, 1.68 107.28 M110.12 106.87 C77.79 106.04, 44.87 107.94, 0.33 105.04 M1.65 107.11 C2.43 64.99, -0.92 27.14, -0.41 -1.2 M-0.92 106.45 C1.1 76.42, 0.12 47.86, -0.89 -0.57" stroke="#000000" stroke-width="1" fill="none"></path></g><g transform="translate(176 173) rotate(0 7 12.5)"><text x="0" y="18" font-family="Virgil, Segoe UI Emoji" font-size="20px" fill="#000000" text-anchor="start" style="white-space: pre;" direction="ltr">0</text></g><g transform="translate(360 173) rotate(0 2.5 12.5)"><text x="0" y="18" font-family="Virgil, Segoe UI Emoji" font-size="20px" fill="#000000" text-anchor="start" style="white-space: pre;" direction="ltr">1</text></g></svg>